<svg xmlns="http://www.w3.org/2000/svg" width="256" height="256"><defs><clipPath clipPathUnits="userSpaceOnUse" id="a"><path d="M0 192h192V0H0z"/></clipPath><clipPath clipPathUnits="userSpaceOnUse" id="b"><path d="M0 192h192V0H0z"/></clipPath></defs><g transform="matrix(1.70499 0 0 -1.70499 -31.606 295.09)" clip-path="url(#a)"><path d="M100.788 173.066c-.294.055-.576-.163-.64-.495a21032.63 21032.63 0 01-5.48-27.988c-.15-.778.837-1.076 1.068-.322l8.417 27.441c.114.369-.089.76-.425.821zm-13.776-.119l-2.94-.543c-.336-.063-.54-.453-.425-.821l8.416-27.441c.23-.755 1.221-.457 1.07.32v.001c-2.163 11.095-4.888 24.977-5.479 27.988-.065.332-.348.55-.642.496zm-13.341-3.133a.537.537 0 01-.157-.023l-3.383-1.022a.56.56 0 01-.271-.88l20.117-25.803c.43-.552 1.258.055.883.647-6.258 9.877-14.651 23.19-16.723 26.809a.537.537 0 01-.466.272zm40.38-.954a.542.542 0 01-.443-.272c-2.071-3.618-10.464-16.933-16.722-26.809h.001a.545.545 0 01-.083-.372l-.426.471c-2.02 1.997-2.9 2.502-5.534-.209L27.006 71.187c.105-.5.46-1.335.933-2.308-.154.263-.31.521-.463.786 9.078-24.871 30.445-46.738 69.151-46.738 32.946 0 52.026 24.664 59.716 40.86 1.737 2.855 3.599 6.3 3.873 7.609l-62.984 69.538a.507.507 0 01.539.198l20.115 25.805c.24.307.1.76-.271.878l-3.384 1.023a.532.532 0 01-.18.022zm-18.935-5.18c-.343.003-.921-.004-1.853-.043a.405.405 0 01-.39-.423c.118-2.342.296-9.86.415-16.042.01-.515.768-.541.813-.028l1.417 16.096a.405.405 0 01-.402.44zm-11.133-2.346a.369.369 0 01-.043-.005l-1.094-.176a.796.796 0 01-.575-1.16l7.299-13.652c.225-.42.86-.12.677.318-2.34 5.62-5.137 12.383-5.896 14.433a.372.372 0 01-.368.242zm20.05-.284a.568.568 0 01-.62-.358c-.652-1.736-2.472-6.17-4.332-10.656h.001c-.276-.663.682-1.117 1.02-.483l5.598 10.468a.566.566 0 01-.41.826zm-8.943-44.544c-1.07-4.59-1.683-6.731.918-9.639 2.6-2.907 4.284-6.733 1.835-12.087-2.447-5.355-7.65-14.688-2.447-18.206-3.825.46-5.049 4.896-3.06 8.874 1.99 3.978 5.202 10.403 3.672 13.921-1.53 3.52-8.108 7.193-.918 17.137zm-1.634-54.948c7.442 0 13.477-6.187 13.477-13.82v-.001c0-7.633-6.035-13.82-13.477-13.82-7.44 0-13.473 6.187-13.473 13.82 0 7.634 6.032 13.82 13.473 13.82zm59.093-1.016c.07-.073.125-.122.19-.188l-.025-.04z"/></g></svg>