<svg xmlns="http://www.w3.org/2000/svg" width="1200" height="400" viewBox="0 0 317.5 105.833"><path d="M5.027 41.275h46.567v23.283H5.027z" fill="#fff"/><path fill="#ed1b2e" d="M5.027 41.275h11.642v23.283H5.027zm34.925 0h11.642v23.283H39.952zm-11.839 2.051L26.376 46.6l-2.155-1.103 1.053 5.713-2.707-2.622-.768 1.586-2.472-.534.902 3.09-1.086.585 4.477 3.759-.501 1.97 4.527-1.002-.1 4.845h1.135l-.1-4.845 4.527 1.002-.501-1.97 4.476-3.759-1.085-.585.902-3.09-2.472.534-.769-1.586-2.706 2.622 1.052-5.713-2.154 1.103z"/><g fill="#231f20" aria-label="National Research Council Canada"><path d="M71.694 41.615v9.068h1.19v-7.277h.026l4.931 7.277h1.375v-9.068h-1.19v7.354H78l-4.971-7.354zM87.401 50.658q-.29.165-.806.165-.436 0-.7-.229-.252-.241-.252-.775-.463.534-1.084.775-.608.229-1.322.229-.463 0-.886-.102-.41-.101-.714-.317t-.49-.56q-.171-.355-.171-.85 0-.559.198-.914.199-.356.516-.572.33-.229.74-.343.423-.114.86-.19.462-.09.872-.127.423-.051.74-.127.318-.09.503-.242.185-.165.185-.47 0-.355-.145-.571-.133-.216-.357-.33-.212-.115-.49-.153-.264-.038-.528-.038-.714 0-1.19.267-.476.254-.516.978H81.24q.027-.61.265-1.029.238-.419.634-.673.397-.267.9-.381.515-.114 1.097-.114.463 0 .912.063.463.064.833.267.37.19.595.546.225.356.225.927v3.378q0 .381.04.56.052.177.317.177.145 0 .343-.064zm-1.824-3.366q-.212.153-.555.229-.344.063-.728.114-.37.038-.753.102-.384.05-.688.177-.304.127-.502.369-.185.228-.185.635 0 .266.106.457.119.178.29.292.186.114.424.165.238.05.502.05.555 0 .952-.139.397-.152.648-.368.25-.229.37-.483.119-.266.119-.495zM90.278 44.117V42.15h-1.124v1.968H87.99v.953h1.164v4.178q0 .457.092.737.093.279.278.431.198.153.502.216.318.051.754.051h.86v-.952h-.516q-.265 0-.436-.013-.16-.026-.252-.09-.092-.063-.132-.177-.026-.114-.026-.305V45.07h1.361v-.953zM94.335 42.936v-1.32h-1.124v1.32zm-1.124 1.181v6.566h1.124v-6.566zM97.18 47.406q0-.596.158-1.054.172-.47.463-.787.29-.318.674-.483.396-.165.833-.165.436 0 .82.165.396.165.687.483.29.317.45.787.171.458.171 1.054 0 .597-.172 1.067-.158.457-.45.775-.29.305-.687.47-.383.165-.82.165-.436 0-.832-.165-.384-.165-.674-.47-.291-.318-.463-.775-.159-.47-.159-1.067zm-1.19 0q0 .724.21 1.347.212.622.635 1.092.423.457 1.045.724.621.254 1.428.254.82 0 1.428-.254.62-.267 1.044-.724.423-.47.635-1.092.211-.623.211-1.347 0-.723-.211-1.346-.212-.635-.635-1.092-.423-.47-1.044-.737-.609-.266-1.428-.266-.807 0-1.428.266-.622.267-1.045.737-.423.457-.634 1.092-.212.623-.212 1.346zM104.221 44.117v6.566h1.124v-3.708q0-.445.12-.813.131-.381.383-.66.25-.28.621-.432.383-.153.899-.153.648 0 1.018.356.37.355.37.965v4.445h1.124v-4.318q0-.533-.119-.965-.106-.445-.383-.762-.278-.318-.728-.495-.45-.178-1.123-.178-1.52 0-2.221 1.194h-.027v-1.042zM117.906 50.658q-.29.165-.806.165-.437 0-.7-.229-.252-.241-.252-.775-.463.534-1.084.775-.608.229-1.322.229-.463 0-.886-.102-.41-.101-.714-.317t-.49-.56q-.171-.355-.171-.85 0-.559.198-.914.199-.356.516-.572.33-.229.74-.343.423-.114.86-.19.462-.09.872-.127.423-.051.74-.127.318-.09.503-.242.185-.165.185-.47 0-.355-.145-.571-.133-.216-.357-.33-.212-.115-.49-.153-.264-.038-.528-.038-.714 0-1.19.267-.476.254-.516.978h-1.124q.027-.61.265-1.029.238-.419.634-.673.397-.267.9-.381.515-.114 1.097-.114.462 0 .912.063.463.064.833.267.37.19.595.546.225.356.225.927v3.378q0 .381.04.56.052.177.317.177.145 0 .343-.064zm-1.824-3.366q-.212.153-.556.229-.343.063-.727.114-.37.038-.753.102-.384.05-.688.177-.304.127-.502.369-.185.228-.185.635 0 .266.106.457.119.178.29.292.185.114.423.165.238.05.503.05.555 0 .952-.139.396-.152.648-.368.25-.229.37-.483.119-.266.119-.495zM119.289 41.615v9.068h1.123v-9.068zM126.559 41.615v9.068h1.256V46.81h3.067q.463 0 .74.14.278.126.45.355.172.216.251.52.08.293.132.623.066.33.08.673l.026.648q.013.292.053.533.053.241.185.381h1.401q-.198-.229-.304-.52-.092-.305-.145-.636-.053-.33-.066-.673-.014-.343-.04-.673-.04-.33-.119-.635-.066-.305-.225-.546-.145-.254-.41-.432-.25-.178-.66-.254v-.025q.859-.229 1.242-.851.397-.622.397-1.448 0-1.105-.767-1.74-.754-.635-2.102-.635zm3.873 4.179h-2.617V42.63h3.12q.886 0 1.282.432.397.432.397 1.118 0 .495-.185.812-.172.305-.476.496-.291.178-.688.241-.396.064-.833.064zM140.454 46.771h-3.927q.027-.38.172-.71.146-.344.397-.598.25-.254.595-.393.357-.153.793-.153.423 0 .767.153.357.14.608.393.264.242.41.585.158.342.185.723zm1.084 1.83h-1.11q-.146.647-.609.964-.45.318-1.163.318-.555 0-.965-.178-.41-.178-.675-.47-.264-.305-.383-.686-.119-.393-.106-.825h5.117q.026-.597-.12-1.257-.131-.66-.502-1.22-.357-.558-.965-.914-.595-.368-1.507-.368-.7 0-1.296.254-.581.254-1.018.71-.423.458-.66 1.08-.239.623-.239 1.372.027.75.225 1.384.212.635.622 1.093.41.457 1.004.71.608.255 1.428.255 1.164 0 1.93-.56.767-.558.992-1.663zM143.766 48.613h-1.123q.026.61.264 1.041.238.42.635.686.396.254.912.368.516.115 1.084.115.516 0 1.031-.102.53-.089.939-.33.423-.241.674-.635.265-.394.265-.99 0-.47-.199-.788-.185-.318-.502-.52-.304-.217-.714-.344-.397-.127-.82-.216-.396-.088-.793-.165-.397-.089-.714-.203-.317-.127-.529-.305-.198-.19-.198-.47 0-.254.132-.406.132-.165.344-.254.211-.102.463-.14.264-.038.515-.038.278 0 .542.064.278.05.503.178.224.127.37.342.145.204.172.521h1.124q-.04-.597-.265-.99-.225-.407-.608-.635-.37-.242-.86-.33-.489-.102-1.07-.102-.45 0-.913.114-.449.102-.82.33-.356.216-.594.572-.225.355-.225.85 0 .636.33.991.331.356.82.559.503.19 1.084.305.582.101 1.071.241.503.127.833.343.33.216.33.635 0 .305-.158.508-.159.19-.41.292-.238.102-.529.14-.29.038-.555.038-.344 0-.674-.064-.317-.063-.582-.203-.251-.152-.41-.393-.158-.254-.172-.61zM154.706 46.771h-3.927q.027-.38.172-.71.146-.344.397-.598t.595-.393q.357-.153.793-.153.423 0 .767.153.357.14.608.393.265.242.41.585.159.342.185.723zm1.084 1.83h-1.11q-.146.647-.609.964-.45.318-1.163.318-.555 0-.965-.178-.41-.178-.674-.47-.265-.305-.384-.686-.119-.393-.106-.825h5.117q.026-.597-.12-1.257-.131-.66-.501-1.22-.357-.558-.966-.914-.595-.368-1.507-.368-.7 0-1.295.254-.582.254-1.018.71-.423.458-.661 1.08-.238.623-.238 1.372.026.75.224 1.384.212.635.622 1.093.41.457 1.004.71.609.255 1.428.255 1.164 0 1.93-.56.767-.558.992-1.663zM163.386 50.658q-.29.165-.806.165-.436 0-.7-.229-.252-.241-.252-.775-.463.534-1.084.775-.608.229-1.322.229-.463 0-.886-.102-.41-.101-.714-.317t-.49-.56q-.171-.355-.171-.85 0-.559.198-.914.199-.356.516-.572.33-.229.74-.343.423-.114.86-.19.462-.09.872-.127.423-.051.74-.127.318-.09.503-.242.185-.165.185-.47 0-.355-.145-.571-.133-.216-.357-.33-.212-.115-.49-.153-.264-.038-.528-.038-.714 0-1.19.267-.476.254-.516.978h-1.124q.027-.61.265-1.029.238-.419.634-.673.397-.267.9-.381.515-.114 1.097-.114.462 0 .912.063.463.064.833.267.37.19.595.546.225.356.225.927v3.378q0 .381.04.56.052.177.317.177.145 0 .343-.064zm-1.824-3.366q-.212.153-.555.229-.344.063-.728.114-.37.038-.753.102-.384.05-.688.177-.304.127-.502.369-.185.228-.185.635 0 .266.106.457.119.178.29.292.186.114.424.165.238.05.502.05.555 0 .952-.139.396-.152.648-.368.25-.229.37-.483.119-.266.119-.495zM164.663 44.117v6.566h1.124v-2.921q0-.635.132-1.118.132-.495.423-.838.29-.343.767-.52.476-.178 1.15-.178v-1.143q-.912-.026-1.507.355-.595.381-1.005 1.181h-.026v-1.384zM173.78 46.225h1.164q-.066-.584-.317-1.003-.251-.432-.648-.711-.383-.28-.899-.407-.502-.14-1.084-.14-.806 0-1.415.28-.608.267-1.018.75-.396.47-.594 1.117-.199.635-.199 1.372 0 .736.199 1.359.211.61.608 1.054.41.444 1.004.685.609.242 1.389.242 1.309 0 2.062-.66.767-.661.952-1.88h-1.15q-.106.762-.582 1.18-.463.42-1.296.42-.528 0-.912-.203-.383-.203-.621-.534-.238-.343-.357-.774-.106-.432-.106-.89 0-.495.106-.952.106-.47.344-.825.25-.356.66-.572.41-.216 1.019-.216.714 0 1.137.343.423.343.555.965zM176.502 41.615v9.068h1.123v-3.708q0-.445.12-.813.132-.381.383-.66.251-.28.621-.432.384-.153.9-.153.647 0 1.017.356.37.355.37.965v4.445h1.124v-4.318q0-.533-.119-.965-.106-.445-.383-.762-.278-.318-.727-.495-.45-.178-1.124-.178-.304 0-.635.063-.317.064-.621.203-.29.127-.529.343-.238.204-.37.508h-.027v-3.467zM78.344 57.68H79.6q-.106-.723-.45-1.27-.344-.558-.86-.926-.515-.369-1.176-.56-.66-.19-1.401-.19-1.084 0-1.93.381-.833.369-1.402 1.016-.555.648-.846 1.524-.29.864-.29 1.854 0 .991.264 1.855.277.863.82 1.498.541.635 1.361 1.004.82.355 1.917.355 1.811 0 2.856-.952 1.044-.953 1.23-2.667h-1.257q-.04.558-.238 1.041-.198.483-.555.838-.344.343-.833.546-.476.19-1.097.19-.846 0-1.455-.304-.608-.305-1.004-.813-.384-.52-.569-1.206-.185-.699-.185-1.473 0-.712.185-1.372.185-.66.569-1.168.396-.521.991-.826.608-.305 1.455-.305.991 0 1.705.483.727.482.939 1.448zM82.166 60.741q0-.597.159-1.054.171-.47.462-.787.291-.318.675-.483.396-.165.832-.165.437 0 .82.165.397.165.688.483.29.317.45.787.171.457.171 1.054t-.172 1.067q-.158.457-.45.775-.29.305-.687.47-.383.165-.82.165-.436 0-.832-.165-.384-.165-.675-.47-.29-.318-.462-.775-.16-.47-.16-1.067zm-1.19 0q0 .724.212 1.347.211.622.634 1.092.423.457 1.045.724.621.254 1.427.254.82 0 1.428-.254.622-.267 1.045-.724.423-.47.634-1.092.212-.623.212-1.347t-.212-1.346q-.211-.635-.634-1.092-.423-.47-1.045-.737-.608-.266-1.428-.266-.806 0-1.427.266-.622.267-1.045.737-.423.457-.634 1.092-.212.622-.212 1.346zM94.867 64.018v-6.566h-1.124v3.708q0 .445-.132.826-.12.368-.37.648-.252.28-.635.431-.37.153-.886.153-.648 0-1.018-.356-.37-.355-.37-.965v-4.445h-1.124v4.318q0 .533.106.978.119.432.397.75.277.317.727.495.45.165 1.124.165.753 0 1.308-.28.556-.292.913-.901h.026v1.041zM96.838 57.452v6.566h1.124V60.31q0-.445.119-.813.132-.381.383-.66.251-.28.621-.432.384-.153.9-.153.647 0 1.017.356.37.355.37.965v4.445h1.124V59.7q0-.533-.119-.965-.105-.445-.383-.762-.278-.318-.727-.496-.45-.177-1.124-.177-1.52 0-2.221 1.193h-.026v-1.04zM109.108 59.56h1.163q-.066-.584-.317-1.003-.251-.432-.648-.711-.383-.28-.899-.407-.502-.14-1.084-.14-.806 0-1.414.28-.609.267-1.018.75-.397.47-.595 1.117-.199.635-.199 1.372 0 .736.199 1.358.211.61.608 1.055.41.444 1.005.685.608.242 1.388.242 1.309 0 2.062-.66.767-.661.952-1.88h-1.15q-.106.762-.582 1.18-.463.42-1.295.42-.53 0-.913-.203-.383-.204-.621-.534-.238-.343-.357-.774-.106-.432-.106-.89 0-.495.106-.952.106-.47.344-.825.25-.356.66-.572.41-.216 1.019-.216.714 0 1.137.343.423.343.555.965zM113.029 56.271v-1.32h-1.124v1.32zm-1.124 1.181v6.566h1.124v-6.566zM115.12 54.95v9.068h1.123V54.95zM129.026 57.68h1.256q-.106-.723-.45-1.27-.343-.558-.859-.926-.515-.369-1.176-.56-.661-.19-1.402-.19-1.084 0-1.93.381-.833.369-1.401 1.016-.556.648-.847 1.524-.29.864-.29 1.854 0 .991.264 1.855.278.863.82 1.498.542.635 1.361 1.004.82.355 1.917.355 1.812 0 2.856-.952 1.045-.953 1.23-2.667h-1.256q-.04.558-.238 1.041-.199.483-.556.838-.343.343-.832.546-.476.19-1.098.19-.846 0-1.454-.304-.608-.305-1.005-.813-.383-.52-.568-1.206-.185-.699-.185-1.473 0-.712.185-1.372.185-.66.568-1.168.397-.521.992-.826.608-.305 1.454-.305.992 0 1.705.483.728.482.94 1.448zM138.084 63.993q-.291.165-.807.165-.436 0-.7-.229-.252-.241-.252-.775-.462.534-1.084.775-.608.229-1.322.229-.462 0-.886-.102-.41-.102-.713-.317-.305-.216-.49-.56-.172-.355-.172-.85 0-.559.199-.915.198-.355.515-.571.33-.229.74-.343.424-.114.86-.19.463-.09.873-.127.423-.051.74-.127.317-.09.502-.242.186-.165.186-.47 0-.355-.146-.571-.132-.216-.357-.33-.211-.115-.489-.153-.264-.038-.529-.038-.714 0-1.19.267-.476.254-.515.978h-1.124q.026-.61.264-1.029.238-.419.635-.673.397-.267.899-.381.516-.114 1.097-.114.463 0 .913.063.462.064.832.267.37.19.595.546.225.356.225.927v3.378q0 .381.04.56.053.177.317.177.146 0 .344-.064zm-1.825-3.366q-.211.152-.555.229-.344.063-.727.114-.37.038-.754.102-.383.05-.687.177-.304.127-.503.369-.185.228-.185.635 0 .266.106.457.12.178.291.292.185.114.423.165.238.05.502.05.556 0 .952-.139.397-.152.648-.368.251-.229.37-.483.12-.266.12-.495zM139.4 57.452v6.566h1.124V60.31q0-.445.119-.813.132-.381.383-.66.251-.28.622-.432.383-.153.899-.153.647 0 1.018.356.37.355.37.965v4.445h1.124V59.7q0-.533-.12-.965-.105-.445-.383-.762-.277-.318-.727-.496-.45-.177-1.124-.177-1.52 0-2.22 1.193h-.027v-1.04zM153.085 63.993q-.291.165-.807.165-.436 0-.7-.229-.252-.241-.252-.775-.462.534-1.084.775-.608.229-1.322.229-.462 0-.886-.102-.41-.102-.713-.317-.305-.216-.49-.56-.171-.355-.171-.85 0-.559.198-.915.198-.355.515-.571.331-.229.74-.343.424-.114.86-.19.463-.09.873-.127.423-.051.74-.127.317-.09.503-.242.185-.165.185-.47 0-.355-.146-.571-.132-.216-.357-.33-.211-.115-.489-.153-.264-.038-.529-.038-.714 0-1.19.267-.476.254-.515.978h-1.124q.026-.61.264-1.029.238-.419.635-.673.397-.267.899-.381.516-.114 1.097-.114.463 0 .913.063.462.064.832.267.37.19.595.546.225.356.225.927v3.378q0 .381.04.56.053.177.317.177.146 0 .344-.064zm-1.825-3.366q-.211.152-.555.229-.344.063-.727.114-.37.038-.754.102-.383.05-.687.177-.304.127-.503.369-.185.228-.185.635 0 .266.106.457.12.178.291.292.185.114.423.165.238.05.502.05.556 0 .952-.139.397-.152.648-.368.251-.229.37-.483.12-.266.12-.495zM155.22 60.792q0-.482.107-.94.105-.457.343-.812.238-.356.635-.572.397-.216.965-.216.582 0 .992.216.41.203.66.546.265.343.384.8.119.445.119.927 0 .458-.119.902-.106.445-.357.8-.251.343-.648.559-.396.216-.965.216-.542 0-.952-.203-.396-.204-.66-.546-.252-.343-.384-.775-.12-.445-.12-.902zm5.29 3.226V54.95h-1.125v3.378h-.026q-.185-.292-.463-.482-.264-.203-.568-.318-.304-.127-.608-.178-.304-.05-.569-.05-.78 0-1.375.28-.582.266-.978.736-.384.457-.582 1.08-.185.621-.185 1.32 0 .698.198 1.32.199.623.582 1.093.397.47.978.75.595.279 1.389.279.713 0 1.308-.242.595-.24.873-.787h.026v.889zM168.577 63.993q-.291.165-.807.165-.436 0-.7-.229-.252-.241-.252-.775-.463.534-1.084.775-.608.229-1.322.229-.463 0-.886-.102-.41-.102-.714-.317-.304-.216-.489-.56-.172-.355-.172-.85 0-.559.199-.915.198-.355.515-.571.33-.229.74-.343.424-.114.86-.19.463-.09.872-.127.423-.051.74-.127.318-.09.503-.242.185-.165.185-.47 0-.355-.145-.571-.132-.216-.357-.33-.212-.115-.49-.153-.264-.038-.528-.038-.714 0-1.19.267-.476.254-.516.978h-1.123q.026-.61.264-1.029.238-.419.635-.673.396-.267.899-.381.515-.114 1.097-.114.463 0 .912.063.463.064.833.267.37.19.595.546.225.356.225.927v3.378q0 .381.04.56.052.177.317.177.145 0 .344-.064zm-1.825-3.366q-.211.152-.555.229-.344.063-.727.114-.37.038-.754.102-.383.05-.687.177-.305.127-.503.369-.185.228-.185.635 0 .266.106.457.119.178.29.292.186.114.424.165.238.05.502.05.555 0 .952-.139.397-.152.648-.368.251-.229.37-.483.119-.266.119-.495z"/></g><g fill="#231f20" aria-label="Conseil national de resherches Canada"><path d="M205.096 44.673h1.206q-.101-.724-.431-1.27-.33-.56-.826-.927-.495-.369-1.13-.56-.635-.19-1.346-.19-1.042 0-1.855.381-.8.369-1.346 1.016-.533.648-.813 1.524-.279.864-.279 1.854 0 .991.254 1.855.267.863.787 1.498.521.635 1.309 1.004.787.355 1.841.355 1.74 0 2.743-.952 1.004-.953 1.181-2.667h-1.206q-.038.558-.229 1.041-.19.483-.533.838-.33.343-.8.546-.457.19-1.054.19-.813 0-1.397-.304-.585-.305-.966-.813-.368-.52-.546-1.206-.177-.699-.177-1.473 0-.712.177-1.372.178-.66.546-1.168.381-.521.953-.826.584-.305 1.397-.305.952 0 1.638.483.699.482.902 1.448zM208.773 47.733q0-.597.152-1.054.165-.47.445-.787.28-.318.648-.483.38-.165.8-.165.419 0 .787.165.381.165.66.483.28.317.432.787.165.457.165 1.054t-.165 1.067q-.152.457-.432.775-.279.305-.66.47-.368.165-.787.165-.42 0-.8-.165-.369-.165-.648-.47-.28-.318-.445-.775-.152-.47-.152-1.067zm-1.143 0q0 .724.203 1.347.203.622.61 1.092.406.457 1.003.724.597.254 1.372.254.787 0 1.371-.254.597-.267 1.004-.724.406-.47.61-1.092.202-.623.202-1.347t-.203-1.346q-.203-.635-.61-1.092-.406-.47-1.003-.737-.584-.266-1.371-.266-.775 0-1.372.266-.597.267-1.003.737-.407.457-.61 1.092-.203.622-.203 1.346zM215.543 44.444v6.566h1.08v-3.708q0-.445.114-.813.127-.381.368-.66.242-.28.597-.432.368-.153.864-.153.622 0 .978.356.355.355.355.965v4.445h1.08v-4.318q0-.533-.115-.965-.101-.445-.368-.762-.267-.318-.698-.496-.432-.177-1.08-.177-1.46 0-2.133 1.193h-.026v-1.04zM223.538 48.94h-1.08q.026.61.254 1.041.229.42.61.686.38.254.876.368.496.115 1.042.115.495 0 .99-.102.508-.089.902-.33.406-.241.648-.635.254-.394.254-.99 0-.47-.19-.788-.179-.318-.483-.52-.293-.217-.686-.344-.381-.127-.788-.216-.38-.089-.762-.165-.38-.089-.685-.203-.305-.127-.508-.305-.191-.19-.191-.47 0-.254.127-.406.127-.165.33-.254.203-.102.445-.14.254-.038.495-.038.267 0 .52.064.267.05.483.177.216.127.356.343.14.204.165.521h1.08q-.039-.597-.254-.99-.216-.407-.585-.636-.355-.24-.825-.33-.47-.101-1.029-.101-.432 0-.876.114-.432.102-.788.33-.342.216-.571.572-.216.355-.216.85 0 .636.318.991.317.356.787.559.483.19 1.041.305.56.101 1.029.241.483.127.8.343.318.216.318.635 0 .305-.153.508-.152.19-.393.292-.23.102-.508.14-.28.038-.534.038-.33 0-.648-.064-.304-.063-.558-.203-.242-.152-.394-.394-.152-.254-.165-.61zM234.052 47.098h-3.772q.025-.38.165-.71.14-.344.38-.598.242-.254.572-.393.343-.153.762-.153.407 0 .737.153.343.14.584.393.254.242.394.584.152.343.178.724zm1.041 1.83h-1.067q-.14.647-.584.964-.432.318-1.117.318-.534 0-.928-.178-.393-.178-.647-.47-.254-.305-.369-.686-.114-.393-.101-.825h4.915q.025-.597-.115-1.257-.127-.66-.482-1.22-.343-.558-.927-.914-.572-.368-1.448-.368-.673 0-1.245.254-.558.254-.978.71-.406.458-.635 1.08-.228.623-.228 1.372.025.75.216 1.384.203.635.597 1.092.393.458.965.712.584.254 1.371.254 1.118 0 1.855-.56.736-.558.952-1.663zM237.722 43.263v-1.32h-1.08v1.32zm-1.08 1.181v6.566h1.08v-6.566zM239.735 41.942v9.068h1.08v-9.068zM246.551 44.444v6.566h1.08v-3.708q0-.445.114-.813.127-.381.369-.66.24-.28.596-.432.369-.153.864-.153.622 0 .978.356.356.355.356.965v4.445h1.08v-4.318q0-.533-.115-.965-.102-.445-.369-.762-.266-.318-.698-.496-.432-.177-1.08-.177-1.46 0-2.133 1.193h-.026v-1.04zM259.702 50.985q-.279.165-.774.165-.42 0-.673-.229-.242-.241-.242-.775-.444.534-1.041.775-.584.229-1.27.229-.445 0-.851-.102-.394-.102-.686-.317-.292-.216-.47-.56-.165-.355-.165-.85 0-.559.19-.915.191-.355.496-.571.317-.229.711-.343.407-.114.826-.19.444-.09.838-.127.406-.051.711-.127.305-.09.483-.242.177-.165.177-.47 0-.355-.14-.571-.126-.216-.342-.33-.203-.115-.47-.153-.254-.038-.508-.038-.686 0-1.143.267-.457.254-.495.978h-1.08q.026-.61.254-1.029.229-.419.61-.673.38-.267.863-.381.496-.114 1.055-.114.444 0 .876.063.444.064.8.267.355.19.571.546.216.356.216.927v3.378q0 .381.038.56.051.177.305.177.14 0 .33-.064zm-1.752-3.366q-.203.152-.534.229-.33.063-.698.114-.356.038-.724.102-.368.05-.66.177-.292.127-.483.369-.178.228-.178.635 0 .266.102.457.114.178.28.292.177.114.406.165.228.05.482.05.534 0 .915-.139.38-.152.622-.368.241-.229.356-.483.114-.266.114-.495zM262.47 44.444v-1.968h-1.079v1.968h-1.117v.953h1.117v4.178q0 .457.09.736.088.28.266.432.19.153.482.216.305.051.724.051h.826v-.953h-.496q-.254 0-.419-.012-.152-.026-.24-.09-.09-.063-.128-.177-.025-.114-.025-.305v-4.076h1.308v-.953zM266.374 43.263v-1.32h-1.08v1.32zm-1.08 1.181v6.566h1.08v-6.566zM269.11 47.733q0-.597.153-1.054.165-.47.445-.787.28-.318.647-.483.381-.165.8-.165.42 0 .788.165.38.165.66.483.28.317.432.787.165.457.165 1.054t-.165 1.067q-.152.457-.432.775-.28.305-.66.47-.368.165-.788.165-.419 0-.8-.165-.368-.165-.647-.47-.28-.318-.445-.775-.152-.47-.152-1.067zm-1.142 0q0 .724.203 1.347.203.622.61 1.092.406.457 1.003.724.597.254 1.371.254.788 0 1.372-.254.597-.267 1.003-.724.407-.47.61-1.092.203-.623.203-1.347t-.203-1.346q-.203-.635-.61-1.092-.406-.47-1.003-.737-.584-.266-1.372-.266-.774 0-1.371.266-.597.267-1.003.737-.407.457-.61 1.092-.203.622-.203 1.346zM275.881 44.444v6.566h1.08v-3.708q0-.445.114-.813.127-.381.368-.66.241-.28.597-.432.368-.153.864-.153.622 0 .977.356.356.355.356.965v4.445h1.08v-4.318q0-.533-.115-.965-.101-.445-.368-.762-.267-.318-.699-.496-.431-.177-1.079-.177-1.46 0-2.134 1.193h-.025v-1.04zM289.032 50.985q-.28.165-.775.165-.419 0-.673-.229-.241-.241-.241-.775-.445.534-1.042.775-.584.229-1.27.229-.444 0-.85-.102-.394-.102-.686-.317-.292-.216-.47-.56-.165-.355-.165-.85 0-.559.19-.915.19-.355.496-.571.317-.229.71-.343.407-.114.826-.19.445-.09.838-.127.407-.051.712-.127.304-.09.482-.242.178-.165.178-.47 0-.355-.14-.571-.127-.216-.343-.33-.203-.115-.47-.153-.254-.038-.508-.038-.685 0-1.143.267-.457.254-.495.978h-1.08q.026-.61.255-1.029.228-.419.61-.673.38-.267.863-.381.495-.114 1.054-.114.445 0 .876.063.445.064.8.267.356.19.572.546.216.356.216.927v3.378q0 .381.038.56.05.177.305.177.14 0 .33-.064zm-1.753-3.366q-.203.152-.533.229-.33.063-.699.114-.355.038-.723.102-.369.05-.66.177-.293.127-.483.369-.178.228-.178.635 0 .266.101.457.115.178.28.292.178.114.406.165.229.05.483.05.533 0 .914-.139.381-.152.622-.368.242-.229.356-.483.114-.266.114-.495zM290.365 41.942v9.068h1.08v-9.068zM297.969 47.784q0-.482.102-.94.101-.457.33-.812.228-.356.61-.572.38-.216.926-.216.56 0 .953.216.394.203.635.546.254.343.368.8.115.445.115.927 0 .458-.115.902-.101.445-.343.8-.24.343-.622.559-.38.216-.927.216-.52 0-.914-.203-.381-.204-.635-.546-.242-.343-.369-.775-.114-.445-.114-.902zm5.08 3.226v-9.068h-1.08v3.378h-.025q-.178-.292-.444-.482-.254-.203-.547-.318-.292-.127-.584-.178-.292-.05-.546-.05-.75 0-1.32.28-.56.266-.94.736-.369.457-.56 1.08-.177.621-.177 1.32 0 .698.19 1.32.191.623.56 1.093.38.47.94.75.57.279 1.333.279.685 0 1.257-.242.571-.24.838-.787h.025v.889zM309.547 47.098h-3.772q.025-.38.165-.71.14-.344.38-.598.242-.254.572-.393.343-.153.762-.153.407 0 .737.153.343.14.584.393.254.242.394.584.152.343.178.724zm1.04 1.83h-1.066q-.14.647-.584.964-.432.318-1.118.318-.533 0-.927-.178-.393-.178-.647-.47-.254-.305-.369-.686-.114-.393-.101-.825h4.915q.025-.597-.115-1.257-.127-.66-.482-1.22-.343-.558-.927-.914-.572-.368-1.448-.368-.673 0-1.245.254-.559.254-.978.71-.406.458-.635 1.08-.228.623-.228 1.372.025.75.216 1.384.203.635.596 1.092.394.458.966.712.584.254 1.371.254 1.118 0 1.854-.56.737-.558.953-1.663zM198.505 57.78v6.565h1.08v-2.921q0-.635.126-1.118.127-.495.407-.838.279-.343.736-.52.457-.178 1.105-.178v-1.143q-.876-.026-1.448.355-.571.381-.965 1.181h-.025V57.78zM207.37 60.433h-3.772q.026-.38.166-.71.14-.344.38-.598.242-.254.572-.393.343-.153.762-.153.406 0 .737.153.343.14.584.393.254.242.394.585.152.342.177.723zm1.042 1.83h-1.067q-.14.647-.584.964-.432.318-1.118.318-.533 0-.927-.178t-.648-.47q-.254-.305-.368-.686-.114-.393-.102-.825h4.915q.026-.597-.114-1.257-.127-.66-.483-1.22-.342-.558-.927-.914-.571-.368-1.447-.368-.674 0-1.245.254-.559.254-.978.71-.406.458-.635 1.08-.229.623-.229 1.372.026.75.216 1.384.204.635.597 1.093.394.457.965.71.585.255 1.372.255 1.118 0 1.854-.56.737-.558.953-1.663zM210.548 62.275h-1.08q.026.61.255 1.041.228.42.61.686.38.254.875.368.496.115 1.042.115.495 0 .99-.102.508-.089.902-.33.407-.241.648-.635.254-.394.254-.99 0-.47-.19-.788-.178-.318-.483-.52-.292-.217-.686-.344-.381-.127-.787-.216-.381-.088-.762-.165-.381-.089-.686-.203-.305-.127-.508-.305-.19-.19-.19-.47 0-.254.126-.406.127-.165.33-.254.204-.102.445-.14.254-.038.495-.038.267 0 .52.064.268.05.484.178.215.127.355.342.14.204.165.521h1.08q-.038-.597-.254-.99-.216-.407-.584-.635-.356-.242-.826-.33-.47-.102-1.029-.102-.431 0-.876.114-.432.102-.787.33-.343.216-.572.572-.216.355-.216.85 0 .636.318.991.317.356.787.559.483.19 1.042.305.558.101 1.028.241.483.127.8.343.318.216.318.635 0 .305-.153.508-.152.19-.393.292-.229.102-.508.14-.28.038-.534.038-.33 0-.647-.064-.305-.063-.56-.203-.24-.152-.393-.393-.152-.254-.165-.61zM216.503 55.277v9.068h1.08v-3.708q0-.445.113-.813.127-.381.369-.66.241-.28.597-.432.368-.153.863-.153.623 0 .978.356.356.355.356.965v4.445h1.08v-4.318q0-.533-.115-.965-.102-.445-.368-.762-.267-.318-.699-.495-.432-.178-1.08-.178-.291 0-.609.063-.305.064-.597.203-.28.127-.508.343-.228.204-.355.508h-.026v-3.467zM228.396 60.433h-3.772q.026-.38.165-.71.14-.344.381-.598.242-.254.572-.393.343-.153.762-.153.406 0 .737.153.342.14.584.393.254.242.393.585.153.342.178.723zm1.042 1.83h-1.067q-.14.647-.584.964-.432.318-1.118.318-.533 0-.927-.178t-.648-.47q-.254-.305-.368-.686-.114-.393-.102-.825h4.915q.026-.597-.114-1.257-.127-.66-.483-1.22-.343-.558-.927-.914-.571-.368-1.448-.368-.673 0-1.244.254-.559.254-.978.71-.406.458-.635 1.08-.229.623-.229 1.372.026.75.216 1.384.203.635.597 1.093.394.457.965.71.585.255 1.372.255 1.118 0 1.854-.56.737-.558.953-1.663zM230.885 57.78v6.565h1.08v-2.921q0-.635.127-1.118.127-.495.406-.838.28-.343.737-.52.457-.178 1.105-.178v-1.143q-.877-.026-1.448.355-.572.381-.965 1.181h-.026V57.78zM239.65 59.887h1.117q-.064-.584-.305-1.003-.241-.432-.622-.711-.369-.28-.864-.407-.482-.14-1.041-.14-.775 0-1.36.28-.583.267-.977.75-.381.47-.572 1.117-.19.635-.19 1.372 0 .736.19 1.359.204.61.585 1.054.393.444.965.685.584.242 1.333.242 1.258 0 1.982-.66.736-.661.914-1.88H239.7q-.102.762-.559 1.18-.444.42-1.244.42-.508 0-.877-.203-.368-.203-.597-.534-.228-.343-.342-.774-.102-.432-.102-.89 0-.495.102-.952.101-.47.33-.825.241-.356.635-.572.393-.216.978-.216.685 0 1.092.343.406.343.533.965zM242.268 55.277v9.068h1.08v-3.708q0-.445.114-.813.127-.381.368-.66.242-.28.597-.432.368-.153.864-.153.622 0 .978.356.355.355.355.965v4.445h1.08v-4.318q0-.533-.115-.965-.101-.445-.368-.762-.267-.318-.698-.495-.432-.178-1.08-.178-.292 0-.61.063-.304.064-.596.203-.28.127-.508.343-.229.204-.356.508h-.025v-3.467zM254.162 60.433h-3.772q.025-.38.165-.71.14-.344.38-.598.242-.254.572-.393.343-.153.762-.153.407 0 .737.153.343.14.584.393.254.242.394.585.152.342.178.723zm1.041 1.83h-1.067q-.14.647-.584.964-.432.318-1.117.318-.534 0-.928-.178-.393-.178-.647-.47-.254-.305-.369-.686-.114-.393-.101-.825h4.915q.025-.597-.115-1.257-.127-.66-.482-1.22-.343-.558-.927-.914-.572-.368-1.448-.368-.673 0-1.245.254-.558.254-.978.71-.406.458-.635 1.08-.228.623-.228 1.372.025.75.216 1.384.203.635.597 1.093.393.457.965.71.584.255 1.371.255 1.118 0 1.855-.56.736-.558.952-1.663zM257.35 62.275h-1.08q.025.61.254 1.041.228.42.61.686.38.254.876.368.495.115 1.04.115.496 0 .992-.102.508-.089.901-.33.407-.241.648-.635.254-.394.254-.99 0-.47-.19-.788-.178-.318-.483-.52-.292-.217-.686-.344-.381-.127-.787-.216-.381-.088-.762-.165-.381-.089-.686-.203-.305-.127-.508-.305-.19-.19-.19-.47 0-.254.126-.406.127-.165.33-.254.204-.102.445-.14.254-.038.495-.038.267 0 .521.064.267.05.483.178.216.127.355.342.14.204.165.521h1.08q-.038-.597-.254-.99-.216-.407-.584-.635-.356-.242-.826-.33-.47-.102-1.029-.102-.431 0-.876.114-.432.102-.787.33-.343.216-.572.572-.216.355-.216.85 0 .636.318.991.317.356.787.559.483.19 1.042.305.558.101 1.028.241.483.127.8.343.318.216.318.635 0 .305-.152.508-.153.19-.394.292-.229.102-.508.14-.28.038-.534.038-.33 0-.647-.064-.305-.063-.56-.203-.24-.152-.393-.393-.152-.254-.165-.61zM273.644 58.008h1.207q-.102-.724-.432-1.27-.33-.56-.826-.927-.495-.369-1.13-.56-.635-.19-1.346-.19-1.041 0-1.854.381-.8.369-1.346 1.016-.534.648-.813 1.524-.28.864-.28 1.855 0 .99.254 1.854.267.863.788 1.498.52.635 1.308 1.004.787.355 1.841.355 1.74 0 2.744-.952 1.003-.953 1.18-2.667h-1.206q-.038.559-.228 1.041-.191.483-.534.838-.33.343-.8.546-.457.19-1.054.19-.813 0-1.397-.304-.584-.305-.965-.813-.369-.52-.546-1.206-.178-.699-.178-1.473 0-.712.178-1.372.177-.66.546-1.168.38-.521.952-.826.584-.305 1.397-.305.953 0 1.639.483.698.483.901 1.448zM282.35 64.32q-.28.165-.774.165-.42 0-.673-.229-.242-.241-.242-.775-.444.534-1.041.775-.584.229-1.27.229-.445 0-.851-.102-.394-.101-.686-.317-.292-.216-.47-.56-.165-.355-.165-.85 0-.559.19-.914.191-.356.496-.572.317-.229.711-.343.407-.114.826-.19.444-.09.838-.127.406-.051.711-.127.305-.09.483-.242.177-.165.177-.47 0-.355-.14-.571-.126-.216-.342-.33-.203-.115-.47-.153-.254-.038-.508-.038-.686 0-1.143.267-.457.254-.495.978h-1.08q.026-.61.254-1.029.229-.419.61-.673.38-.267.863-.381.496-.114 1.054-.114.445 0 .877.063.444.064.8.267.355.19.571.546.216.356.216.927v3.378q0 .381.038.56.051.177.305.177.14 0 .33-.064zm-1.752-3.366q-.203.153-.534.229-.33.063-.698.114-.356.038-.724.102-.368.05-.66.177-.293.127-.483.369-.178.228-.178.635 0 .266.102.457.114.178.28.292.177.114.406.165.228.05.482.05.534 0 .915-.139.38-.152.622-.368.241-.229.355-.483.115-.266.115-.495zM283.62 57.78v6.565h1.08v-3.708q0-.445.114-.813.127-.381.368-.66.241-.28.597-.432.368-.153.864-.153.622 0 .978.356.355.355.355.965v4.445h1.08v-4.318q0-.533-.115-.965-.101-.445-.368-.762-.267-.318-.698-.495-.432-.178-1.08-.178-1.46 0-2.134 1.194h-.025v-1.042zM296.771 64.32q-.28.165-.775.165-.419 0-.673-.229-.241-.241-.241-.775-.445.534-1.042.775-.584.229-1.27.229-.444 0-.85-.102-.394-.101-.686-.317-.292-.216-.47-.56-.165-.355-.165-.85 0-.559.19-.914.19-.356.496-.572.317-.229.71-.343.407-.114.826-.19.445-.09.838-.127.407-.051.712-.127.304-.09.482-.242.178-.165.178-.47 0-.355-.14-.571-.127-.216-.343-.33-.203-.115-.47-.153-.253-.038-.507-.038-.686 0-1.143.267-.458.254-.496.978h-1.08q.026-.61.255-1.029.228-.419.61-.673.38-.267.863-.381.495-.114 1.054-.114.445 0 .876.063.445.064.8.267.356.19.572.546.216.356.216.927v3.378q0 .381.038.56.05.177.305.177.14 0 .33-.064zm-1.753-3.366q-.203.153-.533.229-.33.063-.699.114-.355.038-.723.102-.369.05-.66.177-.293.127-.483.369-.178.228-.178.635 0 .266.101.457.115.178.28.292.178.114.406.165.229.05.483.05.533 0 .914-.139.381-.152.622-.368.242-.229.356-.483.114-.266.114-.495zM298.828 61.12q0-.483.102-.94.101-.458.33-.813.228-.356.61-.572.38-.216.927-.216.558 0 .952.216.394.203.635.546.254.343.368.8.115.445.115.927 0 .458-.115.902-.101.445-.343.8-.24.343-.622.559-.38.216-.927.216-.52 0-.914-.203-.381-.203-.635-.546-.242-.343-.369-.775-.114-.445-.114-.902zm5.08 3.225v-9.068h-1.08v3.378h-.025q-.178-.292-.444-.482-.254-.203-.546-.318-.293-.127-.585-.177-.292-.051-.546-.051-.75 0-1.32.28-.56.266-.94.736-.369.457-.56 1.08-.177.622-.177 1.32 0 .699.19 1.32.191.623.56 1.093.38.47.94.75.57.279 1.333.279.685 0 1.257-.242.571-.24.838-.787h.026v.889zM311.663 64.32q-.28.165-.775.165-.419 0-.673-.229-.241-.241-.241-.775-.445.534-1.042.775-.584.229-1.27.229-.444 0-.85-.102-.394-.101-.686-.317-.292-.216-.47-.56-.165-.355-.165-.85 0-.559.19-.914.19-.356.495-.572.318-.229.712-.343.406-.114.825-.19.445-.09.838-.127.407-.051.712-.127.304-.09.482-.242.178-.165.178-.47 0-.355-.14-.571-.127-.216-.343-.33-.203-.115-.47-.153-.254-.038-.508-.038-.685 0-1.143.267-.457.254-.495.978h-1.08q.026-.61.255-1.029.228-.419.61-.673.38-.267.863-.381.495-.114 1.054-.114.444 0 .876.063.445.064.8.267.356.19.572.546.216.356.216.927v3.378q0 .381.038.56.05.177.305.177.14 0 .33-.064zm-1.753-3.366q-.203.153-.533.229-.33.063-.699.114-.355.038-.724.102-.368.05-.66.177-.292.127-.483.369-.177.228-.177.635 0 .266.101.457.115.178.28.292.177.114.406.165.229.05.483.05.533 0 .914-.139.381-.152.622-.368.242-.229.356-.483.114-.266.114-.495z"/></g></svg>