<svg clip-rule="evenodd" fill-rule="evenodd" stroke-linejoin="round" stroke-miterlimit="2" viewBox="0 0 6281 262" xmlns="http://www.w3.org/2000/svg"><g fill-rule="nonzero"><path d="m255.638 235.939s-1.706-41.966-1.706-46.185c0-4.18 3.529-5.599 7.722-4.688 4.179.925 43.411 8.907 43.411 8.907s-3.008-8.516-5.091-14.805c-2.096-6.25.651-7.422 2.083-8.75 1.446-1.289 43.841-37.943 43.841-37.943l-6.927-3.372c-4.192-1.966-3.528-5.495-2.877-7.891.651-2.317 7.63-26.81 7.63-26.81s-18.281 4.102-22.565 4.74c-3.399.534-4.583-1.016-5.625-3.386-1.042-2.369-5.495-13.072-5.495-13.072s-22.409 24.791-22.891 25.26c-4.309 3.88-8.502.912-7.708-3.672.716-4.193 11.511-53.763 11.511-53.763s-11.915 7.07-15.834 9.414c-3.919 2.37-6.015 1.953-8.112-1.862-2.083-3.789-16.771-33.177-16.771-33.177h.026s-14.687 29.388-16.77 33.177c-2.097 3.815-4.193 4.232-8.112 1.862-3.92-2.344-15.821-9.414-15.821-9.414s10.795 49.57 11.511 53.763c.781 4.584-3.412 7.552-7.722 3.672-.481-.469-22.877-25.26-22.877-25.26s-4.453 10.703-5.508 13.072c-1.042 2.37-2.214 3.92-5.625 3.386-4.271-.638-23.307-4.74-23.307-4.74s7.721 24.493 8.385 26.81c.638 2.396 1.302 5.925-2.891 7.891l-6.927 3.372s42.396 36.654 43.842 37.943c1.432 1.328 4.192 2.5 2.083 8.75-2.083 6.289-5.091 14.805-5.091 14.805s39.231-7.982 43.424-8.907c4.18-.911 7.722.508 7.722 4.688 0 4.219-1.706 46.185-1.706 46.185z" fill="#ed1c24"/><path d="m378.62 3.308h124.57v255.612h-124.57z" fill="#ed1c24"/><path d="m0 3.217h124.57v255.599h-124.57z" fill="#ed1c24"/><g fill="#231f20"><path d="m719.258 70.652h12.044c.3 5.365 1.563 9.714 3.789 13.073 4.258 6.263 11.745 9.388 22.474 9.388 4.805 0 9.18-.69 13.138-2.057 7.63-2.643 11.445-7.435 11.445-14.297 0-5.143-1.601-8.828-4.83-10.99-3.256-2.161-8.36-4.01-15.313-5.612l-12.812-2.903c-8.373-1.888-14.297-3.971-17.774-6.237-6.002-3.958-8.997-9.831-8.997-17.695 0-8.516 2.93-15.456 8.815-20.925 5.872-5.443 14.206-8.19 24.974-8.19 9.909 0 18.333 2.409 25.26 7.187 6.927 4.792 10.404 12.448 10.404 22.943h-12.044c-.638-5.078-2.018-8.919-4.115-11.64-3.906-4.935-10.534-7.435-19.896-7.435-7.552 0-12.981 1.627-16.289 4.791-3.294 3.177-4.948 6.863-4.948 11.055 0 4.662 1.927 8.034 5.795 10.195 2.526 1.354 8.255 3.086 17.187 5.144l13.255 2.994c6.394 1.511 11.328 3.49 14.805 6.029 6.003 4.427 9.01 10.833 9.01 19.232 0 10.469-3.802 17.982-11.419 22.474-7.617 4.505-16.471 6.745-26.562 6.745-11.758 0-20.951-2.982-27.605-8.998-6.653-5.977-9.921-14.075-9.791-24.271z"/><path d="m813.438 40.522c-5.873 6.862-8.829 16.094-8.829 27.696 0 10.807 2.8 19.427 8.386 25.833 5.573 6.406 13.099 9.635 22.591 9.635 11.367 0 19.753-3.632 25.169-10.885 5.404-7.24 8.112-16.445 8.112-27.565 0-11.498-3.073-20.196-9.206-26.12-6.145-5.951-13.645-8.893-22.539-8.893-9.908 0-17.812 3.424-23.684 10.299zm7.916 45.846c-3.216-4.908-4.817-11.002-4.817-18.359 0-7.656 1.601-14.167 4.817-19.557 3.216-5.417 8.373-8.112 15.456-8.112 7.969 0 13.594 3.177 16.862 9.518 2.057 4.037 3.086 9.271 3.086 15.716 0 7.096-1.419 13.607-4.284 19.401-2.852 5.82-8.112 8.724-15.794 8.724-7.005 0-12.11-2.448-15.326-7.331z"/><path d="m909.193 30.223c7.76 0 14.088 1.901 18.958 5.664 4.87 3.789 7.799 10.273 8.789 19.505h-11.276c-.677-4.271-2.239-7.773-4.687-10.573-2.448-2.826-6.381-4.219-11.784-4.219-7.383 0-12.656 3.581-15.834 10.807-2.057 4.649-3.086 10.443-3.086 17.292 0 6.941 1.446 12.734 4.375 17.474 2.917 4.727 7.5 7.071 13.776 7.071 4.805 0 8.607-1.485 11.42-4.402 2.812-2.955 4.752-6.966 5.82-12.083h11.276c-1.289 9.154-4.505 15.821-9.661 20.039-5.143 4.245-11.732 6.354-19.766 6.354-9.01 0-16.198-3.307-21.562-9.856-5.365-6.589-8.047-14.831-8.047-24.701 0-12.109 2.942-21.536 8.828-28.255 5.872-6.732 13.359-10.117 22.461-10.117z"/><path d="m948.529 19.715v-13.125h11.783v13.125zm0 81.432v-68.594h11.783v68.594z"/><path d="m980.547 68.218c-3.985 3.502-5.99 8.463-5.99 14.869 0 5.807 2.032 10.69 6.094 14.57 4.05 3.868 9.271 5.834 15.677 5.834 5.313 0 10.182-1.146 14.609-3.437 4.415-2.266 7.8-4.936 10.17-8.034.39 2.747 1.054 4.882 1.992 6.354 1.797 2.851 4.7 4.27 8.685 4.27 1.641 0 2.916-.052 3.867-.195.938-.13 2.318-.442 4.128-.976v-8.568c-.742.156-1.42.26-2.071.312-.638.079-1.211.092-1.731.092-1.589 0-2.631-.352-3.125-1.107-.495-.716-.743-1.68-.743-2.878v-39.726c0-6.511-2.513-11.315-7.526-14.415-5.065-3.111-11.653-4.635-19.765-4.635-6.993 0-13.138 1.654-18.451 4.987-5.299 3.334-8.047 9.232-8.268 17.748h10.82c.43-3.555 1.355-6.276 2.774-8.061 2.526-3.255 6.823-4.882 12.864-4.882 5.235 0 9.258.885 12.071 2.643 2.812 1.81 4.218 4.688 4.218 8.62 0 1.914-.26 3.411-.768 4.427-.898 1.888-2.682 3.034-5.351 3.333l-18.477 2.344c-6.471.807-11.706 2.969-15.703 6.511zm11.458 4.934c2.11-1.198 5.261-2.07 9.466-2.63l7.019-.911c2.135-.248 4.336-.691 6.562-1.289 2.24-.586 4.063-1.355 5.482-2.266v9.349c0 7.122-3.229 12.24-9.661 15.39-3.829 1.889-7.774 2.852-11.849 2.852-3.347 0-6.238-.963-8.685-2.929-2.448-1.901-3.672-4.545-3.672-7.904 0-4.401 1.784-7.656 5.338-9.662z"/><path d="m1051.39 6.59h11.589v94.557h-11.589z"/><path d="m1114.83 70.652h12.044c.287 5.365 1.563 9.714 3.802 13.073 4.245 6.263 11.719 9.388 22.461 9.388 4.805 0 9.18-.69 13.125-2.057 7.643-2.643 11.458-7.435 11.458-14.297 0-5.143-1.601-8.828-4.83-10.99-3.256-2.161-8.36-4.01-15.313-5.612l-12.812-2.903c-8.373-1.888-14.297-3.971-17.774-6.237-6.002-3.958-9.01-9.831-9.01-17.695 0-8.516 2.943-15.456 8.828-20.925 5.872-5.443 14.193-8.19 24.974-8.19 9.909 0 18.333 2.409 25.273 7.187 6.914 4.792 10.391 12.448 10.391 22.943h-12.044c-.638-5.078-2.019-8.919-4.115-11.64-3.906-4.935-10.534-7.435-19.896-7.435-7.552 0-12.981 1.627-16.289 4.791-3.307 3.177-4.961 6.863-4.961 11.055 0 4.662 1.94 8.034 5.807 10.195 2.527 1.354 8.256 3.086 17.188 5.144l13.255 2.994c6.394 1.511 11.328 3.49 14.805 6.029 6.003 4.427 9.01 10.833 9.01 19.232 0 10.469-3.802 17.982-11.419 22.474-7.617 4.505-16.471 6.745-26.562 6.745-11.758 0-20.964-2.982-27.605-8.998-6.666-5.977-9.921-14.075-9.791-24.271z"/><path d="m1231.47 30.223c7.774 0 14.089 1.901 18.959 5.664 4.869 3.789 7.812 10.273 8.789 19.505h-11.263c-.69-4.271-2.253-7.773-4.701-10.573-2.448-2.826-6.38-4.219-11.784-4.219-7.382 0-12.643 3.581-15.833 10.807-2.057 4.649-3.099 10.443-3.099 17.292 0 6.941 1.472 12.734 4.388 17.474 2.917 4.727 7.513 7.071 13.776 7.071 4.805 0 8.62-1.485 11.432-4.402 2.8-2.955 4.74-6.966 5.821-12.083h11.263c-1.289 9.154-4.518 15.821-9.649 20.039-5.169 4.245-11.744 6.354-19.765 6.354-9.011 0-16.198-3.307-21.563-9.856-5.364-6.589-8.06-14.831-8.06-24.701 0-12.109 2.943-21.536 8.828-28.255 5.873-6.732 13.373-10.117 22.461-10.117z"/><path d="m1282.58 101.147v-68.594h-11.771v68.594zm0-81.432v-13.125h-11.771v13.125z"/><path d="m1305.21 41.03c-6.002 6.914-8.997 15.898-8.997 26.979 0 11.237 2.969 19.987 8.932 26.25 5.964 6.224 13.242 9.336 21.836 9.336 3.516 0 6.667-.339 9.466-1.003 5.183-1.21 9.532-3.554 13.06-6.992 2.097-1.927 3.998-4.492 5.69-7.604 1.693-3.125 2.696-5.951 2.995-8.464h-11.393c-.86 3.047-2.318 5.717-4.375 8.061-3.607 3.997-8.438 5.95-14.479 5.95-6.485 0-11.263-2.109-14.362-6.328-3.073-4.206-4.727-9.818-4.961-16.836h50.534c0-6.94-.339-12.005-1.016-15.182-.781-4.636-2.318-8.672-4.648-12.162-2.396-3.633-5.899-6.615-10.482-8.893-4.61-2.318-9.336-3.463-14.232-3.463-9.7 0-17.565 3.463-23.568 10.351zm9.466 5.495c3.607-3.815 8.073-5.755 13.399-5.755 7.409 0 12.721 2.799 15.898 8.398 1.719 2.995 2.813 6.992 3.282 12.005h-38.308c.209-5.924 2.123-10.807 5.729-14.648z"/><path d="m1373.36 101.147v-68.919h10.99v9.792c3.268-4.05 6.719-6.941 10.378-8.698 3.645-1.784 7.708-2.643 12.161-2.643 9.792 0 16.406 3.411 19.831 10.247 1.888 3.711 2.825 9.049 2.825 16.002v44.219h-11.77v-43.464c0-4.166-.625-7.551-1.876-10.143-2.057-4.271-5.781-6.458-11.198-6.458-2.747 0-4.999.273-6.77.859-3.164.938-5.951 2.826-8.36 5.651-1.94 2.292-3.177 4.623-3.763 7.071-.573 2.408-.872 5.898-.872 10.403v36.081z"/><path d="m1473.24 30.223c7.748 0 14.076 1.901 18.946 5.664 4.882 3.789 7.799 10.273 8.776 19.505h-11.25c-.69-4.271-2.266-7.773-4.701-10.573-2.448-2.826-6.38-4.219-11.771-4.219-7.409 0-12.669 3.581-15.846 10.807-2.057 4.649-3.099 10.443-3.099 17.292 0 6.941 1.471 12.734 4.375 17.474 2.917 4.727 7.526 7.071 13.776 7.071 4.805 0 8.62-1.485 11.432-4.402 2.813-2.955 4.753-6.966 5.834-12.083h11.25c-1.277 9.154-4.493 15.821-9.649 20.039-5.143 4.245-11.732 6.354-19.752 6.354-9.024 0-16.198-3.307-21.576-9.856-5.365-6.589-8.047-14.831-8.047-24.701 0-12.109 2.943-21.536 8.815-28.255 5.886-6.732 13.373-10.117 22.487-10.117z"/><path d="m1517.72 41.03c-6.015 6.914-9.023 15.898-9.023 26.979 0 11.237 2.995 19.987 8.945 26.25 5.977 6.224 13.242 9.336 21.823 9.336 3.529 0 6.68-.339 9.466-1.003 5.196-1.21 9.545-3.554 13.06-6.992 2.11-1.927 4.011-4.492 5.69-7.604 1.706-3.125 2.709-5.951 3.008-8.464h-11.393c-.859 3.047-2.318 5.717-4.375 8.061-3.607 3.997-8.438 5.95-14.492 5.95-6.472 0-11.263-2.109-14.349-6.328-3.099-4.206-4.753-9.818-4.961-16.836h50.534c0-6.94-.339-12.005-1.029-15.182-.768-4.636-2.331-8.672-4.635-12.162-2.396-3.633-5.899-6.615-10.495-8.893-4.596-2.318-9.336-3.463-14.232-3.463-9.687 0-17.539 3.463-23.542 10.351zm9.454 5.495c3.619-3.815 8.059-5.755 13.385-5.755 7.422 0 12.734 2.799 15.898 8.398 1.719 2.995 2.813 6.992 3.295 12.005h-38.308c.209-5.924 2.123-10.807 5.73-14.648z"/><path d="m1581.6 79.532h11.132c.352 3.868 1.302 6.836 2.904 8.894 2.917 3.724 7.982 5.599 15.182 5.599 4.297 0 8.073-.964 11.341-2.8 3.256-1.875 4.883-4.778 4.883-8.698 0-2.916-1.302-5.182-3.919-6.731-1.68-.938-4.987-2.032-9.909-3.282l-9.206-2.343c-5.885-1.42-10.234-3.047-13.007-4.883-4.974-3.099-7.474-7.448-7.474-12.969 0-6.562 2.343-11.823 7.044-15.846 4.714-4.037 11.029-6.081 18.958-6.081 10.391 0 17.878 3.086 22.474 9.166 2.878 3.855 4.271 8.034 4.18 12.488h-10.951c-.195-2.605-1.119-4.987-2.747-7.149-2.669-3.06-7.292-4.557-13.854-4.557-4.375 0-7.682.846-9.948 2.5-2.24 1.666-3.372 3.88-3.372 6.601 0 3.034 1.484 5.417 4.44 7.253 1.705 1.042 4.257 2.005 7.591 2.826l7.669 1.849c8.32 2.018 13.906 3.971 16.732 5.885 4.505 2.917 6.771 7.604 6.771 13.932 0 6.146-2.344 11.446-6.993 15.912-4.661 4.479-11.757 6.718-21.276 6.718-10.26 0-17.526-2.343-21.797-7.018-4.257-4.648-6.549-10.403-6.848-17.266z"/><path d="m1691.16 68.218c-3.997 3.502-5.977 8.463-5.977 14.869 0 5.807 2.018 10.69 6.081 14.57 4.049 3.868 9.284 5.834 15.664 5.834 5.326 0 10.195-1.146 14.622-3.437 4.428-2.266 7.813-4.936 10.17-8.034.377 2.747 1.041 4.882 1.979 6.354 1.81 2.851 4.714 4.27 8.698 4.27 1.628 0 2.93-.052 3.867-.195.951-.13 2.318-.442 4.128-.976v-8.568c-.743.156-1.433.26-2.058.312-.638.079-1.224.092-1.731.092-1.602 0-2.644-.352-3.139-1.107-.494-.716-.729-1.68-.729-2.878v-39.726c0-6.511-2.526-11.315-7.539-14.415-5.065-3.111-11.653-4.635-19.765-4.635-7.006 0-13.138 1.654-18.451 4.987-5.286 3.334-8.047 9.232-8.268 17.748h10.807c.443-3.555 1.367-6.276 2.774-8.061 2.552-3.255 6.836-4.882 12.877-4.882 5.235 0 9.271.885 12.071 2.643 2.812 1.81 4.231 4.688 4.231 8.62 0 1.914-.26 3.411-.781 4.427-.898 1.888-2.682 3.034-5.352 3.333l-18.463 2.344c-6.484.807-11.719 2.969-15.716 6.511zm11.471 4.934c2.097-1.198 5.248-2.07 9.453-2.63l7.019-.911c2.135-.248 4.323-.691 6.562-1.289 2.24-.586 4.063-1.355 5.469-2.266v9.349c0 7.122-3.216 12.24-9.649 15.39-3.828 1.889-7.773 2.852-11.836 2.852-3.359 0-6.262-.963-8.698-2.929-2.447-1.901-3.658-4.545-3.658-7.904 0-4.401 1.771-7.656 5.338-9.662z"/><path d="m1761.68 101.147v-68.919h11.015v9.792c3.256-4.05 6.706-6.941 10.365-8.698 3.646-1.784 7.695-2.643 12.161-2.643 9.792 0 16.394 3.411 19.831 10.247 1.888 3.711 2.826 9.049 2.826 16.002v44.219h-11.771v-43.464c0-4.166-.638-7.551-1.875-10.143-2.07-4.271-5.795-6.458-11.198-6.458-2.747 0-5.013.273-6.758.859-3.19.938-5.964 2.826-8.372 5.651-1.927 2.292-3.177 4.623-3.763 7.071-.586 2.408-.86 5.898-.86 10.403v36.081z"/><path d="m1837.77 42.046c-5.131 7.343-7.683 16.041-7.683 26.067 0 10.729 2.8 19.349 8.412 25.808 5.625 6.458 12.291 9.674 19.974 9.674 4.752 0 8.984-.924 12.669-2.825 3.698-1.889 6.888-4.935 9.596-9.18v9.557h10.43v-94.883h-11.133v34.818c-2.617-3.177-4.961-5.469-7.018-6.745-3.568-2.213-7.995-3.333-13.268-3.333-9.519 0-16.849 3.672-21.979 11.042zm9.973 5.742c3.633-4.467 8.36-6.706 14.206-6.706 5.222 0 9.623 2.11 13.19 6.302 3.555 4.167 5.352 10.638 5.352 19.349 0 8.633-1.732 15.208-5.196 19.844-3.45 4.622-7.864 6.914-13.216 6.914-6.914 0-11.94-2.487-15.078-7.474-3.138-4.961-4.7-11.146-4.7-18.516 0-8.672 1.823-15.234 5.442-19.713z"/><path d="m1946.76 101.147v-94.557h12.929v39.088h49.18v-39.088h12.943v94.557h-12.943v-44.219h-49.18v44.219z"/><path d="m2039.81 32.228h11.836v45.755c0 3.529.56 6.406 1.679 8.62 2.071 4.115 5.899 6.198 11.524 6.198 8.06 0 13.554-3.607 16.484-10.833 1.589-3.842 2.383-9.154 2.383-15.912v-33.828h11.589v68.919h-10.951l.13-10.143c-1.497 2.617-3.359 4.831-5.599 6.615-4.427 3.606-9.791 5.416-16.094 5.416-9.817 0-16.523-3.281-20.091-9.87-1.914-3.515-2.89-8.19-2.89-14.088z"/><path d="m2113.36 101.147v-68.919h11.459v9.792c2.747-3.412 5.234-5.873 7.474-7.396 3.815-2.644 8.138-3.945 12.994-3.945 5.495 0 9.922 1.341 13.256 4.062 1.875 1.536 3.607 3.789 5.156 6.823 2.552-3.685 5.586-6.433 9.063-8.242 3.489-1.784 7.395-2.643 11.731-2.643 9.258 0 15.573 3.359 18.92 10.039 1.797 3.619 2.695 8.45 2.695 14.531v45.898h-12.018v-47.864c0-4.597-1.172-7.748-3.477-9.48-2.266-1.731-5.065-2.578-8.372-2.578-4.558 0-8.477 1.537-11.771 4.584-3.268 3.047-4.909 8.138-4.909 15.26v40.078h-11.784v-44.987c0-4.648-.56-8.086-1.68-10.247-1.744-3.203-5.026-4.831-9.843-4.831-4.362 0-8.36 1.732-11.94 5.104-3.581 3.386-5.378 9.544-5.378 18.386v36.575z"/><path d="m2225.9 68.218c-3.972 3.502-5.99 8.463-5.99 14.869 0 5.807 2.044 10.69 6.094 14.57 4.062 3.868 9.284 5.834 15.677 5.834 5.325 0 10.182-1.146 14.609-3.437 4.427-2.266 7.813-4.936 10.182-8.034.378 2.747 1.042 4.882 1.993 6.354 1.796 2.851 4.687 4.27 8.685 4.27 1.627 0 2.916-.052 3.867-.195.937-.13 2.304-.442 4.114-.976v-8.568c-.742.156-1.406.26-2.057.312-.638.079-1.224.092-1.732.092-1.601 0-2.643-.352-3.125-1.107-.494-.716-.742-1.68-.742-2.878v-39.726c0-6.511-2.513-11.315-7.526-14.415-5.078-3.111-11.654-4.635-19.766-4.635-7.005 0-13.151 1.654-18.437 4.987-5.326 3.334-8.073 9.232-8.294 17.748h10.82c.43-3.555 1.354-6.276 2.76-8.061 2.552-3.255 6.836-4.882 12.891-4.882 5.221 0 9.258.885 12.07 2.643 2.813 1.81 4.219 4.688 4.219 8.62 0 1.914-.261 3.411-.781 4.427-.899 1.888-2.683 3.034-5.339 3.333l-18.476 2.344c-6.498.807-11.719 2.969-15.716 6.511zm11.471 4.934c2.096-1.198 5.247-2.07 9.466-2.63l7.018-.911c2.136-.248 4.323-.691 6.563-1.289 2.239-.586 4.049-1.355 5.468-2.266v9.349c0 7.122-3.216 12.24-9.661 15.39-3.828 1.889-7.76 2.852-11.836 2.852-3.359 0-6.25-.963-8.711-2.929-2.422-1.901-3.646-4.545-3.646-7.904 0-4.401 1.784-7.656 5.339-9.662z"/><path d="m2296.42 101.147v-68.919h11.016v9.792c3.255-4.05 6.719-6.941 10.377-8.698 3.633-1.784 7.696-2.643 12.149-2.643 9.792 0 16.406 3.411 19.844 10.247 1.875 3.711 2.825 9.049 2.825 16.002v44.219h-11.784v-43.464c0-4.166-.625-7.551-1.862-10.143-2.057-4.271-5.781-6.458-11.21-6.458-2.735 0-5 .273-6.758.859-3.177.938-5.951 2.826-8.373 5.651-1.927 2.292-3.177 4.623-3.763 7.071-.586 2.408-.859 5.898-.859 10.403v36.081z"/><path d="m2369.71 19.715v-13.125h11.772v13.125zm0 81.432v-68.594h11.772v68.594z"/><path d="m2401.3 32.228v-19.245h11.706v19.245h11.002v9.466h-11.002v44.961c0 2.435.82 4.01 2.448 4.831.898.507 2.396.716 4.518.716h1.784c.651-.052 1.406-.104 2.252-.182v9.127c-1.315.378-2.708.69-4.14.86-1.445.156-3.008.26-4.675.26-5.403 0-9.075-1.393-11.002-4.141-1.928-2.773-2.891-6.393-2.891-10.807v-45.625h-9.336v-9.466z"/><path d="m2435.61 19.715v-13.125h11.771v13.125zm0 81.432v-68.594h11.771v68.594z"/><path d="m2470.01 41.03c-6.015 6.914-9.01 15.898-9.01 26.979 0 11.237 2.981 19.987 8.932 26.25 5.976 6.224 13.255 9.336 21.836 9.336 3.529 0 6.68-.339 9.466-1.003 5.195-1.21 9.544-3.554 13.06-6.992 2.109-1.927 4.01-4.492 5.69-7.604 1.706-3.125 2.695-5.951 3.008-8.464h-11.394c-.872 3.047-2.317 5.717-4.375 8.061-3.619 3.997-8.45 5.95-14.505 5.95-6.471 0-11.25-2.109-14.336-6.328-3.086-4.206-4.752-9.818-4.96-16.836h50.533c0-6.94-.338-12.005-1.028-15.182-.782-4.636-2.331-8.672-4.649-12.162-2.382-3.633-5.898-6.615-10.468-8.893-4.61-2.318-9.35-3.463-14.245-3.463-9.688 0-17.553 3.463-23.555 10.351zm9.466 5.495c3.607-3.815 8.06-5.755 13.386-5.755 7.421 0 12.734 2.799 15.911 8.398 1.706 2.995 2.8 6.992 3.281 12.005h-38.307c.208-5.924 2.122-10.807 5.729-14.648z"/><path d="m2533.91 79.532h11.133c.339 3.868 1.315 6.836 2.904 8.894 2.903 3.724 7.982 5.599 15.182 5.599 4.297 0 8.073-.964 11.341-2.8 3.255-1.875 4.883-4.778 4.883-8.698 0-2.916-1.302-5.182-3.919-6.731-1.68-.938-4.987-2.032-9.922-3.282l-9.206-2.343c-5.872-1.42-10.221-3.047-12.995-4.883-4.987-3.099-7.473-7.448-7.473-12.969 0-6.562 2.356-11.823 7.044-15.846 4.7-4.037 11.028-6.081 18.971-6.081 10.378 0 17.865 3.086 22.461 9.166 2.865 3.855 4.271 8.034 4.179 12.488h-10.95c-.195-2.605-1.133-4.987-2.76-7.149-2.657-3.06-7.266-4.557-13.842-4.557-4.375 0-7.682.846-9.947 2.5-2.253 1.666-3.386 3.88-3.386 6.601 0 3.034 1.498 5.417 4.454 7.253 1.705 1.042 4.244 2.005 7.59 2.826l7.67 1.849c8.32 2.018 13.893 3.971 16.732 5.885 4.505 2.917 6.77 7.604 6.77 13.932 0 6.146-2.343 11.446-6.992 15.912-4.661 4.479-11.758 6.718-21.276 6.718-10.26 0-17.526-2.343-21.784-7.018-4.27-4.648-6.562-10.403-6.862-17.266z"/><path d="m737.292 257.397v-40.534h29.153c5.235 0 9.076.56 11.524 1.732 4.297 2.083 6.575 6.25 6.888 12.435l.768 15.742c.169 3.711.391 6.172.651 7.474.247 1.289.599 2.344 1.029 3.151h15.703v-2.109c-1.966-.846-3.347-2.774-4.115-5.794-.481-1.758-.781-4.427-.898-8.047l-.456-12.683c-.221-5.495-1.263-9.466-3.125-11.901-1.862-2.448-4.648-4.427-8.333-5.95 4.205-2.188 7.474-5.065 9.817-8.646 2.331-3.62 3.503-8.242 3.503-13.945 0-10.834-4.44-18.281-13.32-22.318-4.688-2.096-10.625-3.164-17.826-3.164h-43.776v94.557zm0-83.541h31.276c4.375 0 7.877.637 10.495 1.926 4.895 2.449 7.343 7.045 7.343 13.79 0 6.263-1.758 10.586-5.247 12.968-3.503 2.448-8.255 3.633-14.258 3.633h-29.609z"/><path d="m821.706 197.28c-6.003 6.914-9.011 15.898-9.011 26.979 0 11.237 2.982 19.987 8.946 26.25 5.976 6.224 13.242 9.336 21.823 9.336 3.515 0 6.679-.339 9.466-1.003 5.195-1.21 9.544-3.554 13.06-6.992 2.109-1.927 4.01-4.492 5.703-7.604 1.692-3.125 2.695-5.951 2.994-8.464h-11.393c-.859 3.047-2.317 5.717-4.375 8.061-3.606 3.997-8.437 5.95-14.479 5.95-6.484 0-11.276-2.109-14.362-6.328-3.086-4.206-4.739-9.818-4.961-16.836h50.534c0-6.94-.339-12.005-1.029-15.182-.768-4.636-2.317-8.672-4.635-12.162-2.409-3.633-5.898-6.615-10.495-8.893-4.583-2.318-9.323-3.463-14.218-3.463-9.701 0-17.566 3.463-23.568 10.351zm9.466 5.495c3.607-3.815 8.073-5.755 13.385-5.755 7.422 0 12.722 2.799 15.912 8.398 1.705 2.995 2.799 6.992 3.281 12.005h-38.307c.208-5.924 2.122-10.807 5.729-14.648z"/><path d="m885.599 235.782h11.133c.351 3.868 1.315 6.836 2.903 8.894 2.917 3.724 7.982 5.599 15.183 5.599 4.297 0 8.073-.964 11.328-2.8 3.268-1.875 4.896-4.778 4.896-8.698 0-2.916-1.302-5.182-3.92-6.731-1.679-.938-4.986-2.032-9.921-3.282l-9.206-2.343c-5.873-1.42-10.209-3.047-12.995-4.883-4.974-3.099-7.474-7.448-7.474-12.969 0-6.562 2.357-11.823 7.057-15.846 4.701-4.037 11.016-6.081 18.959-6.081 10.377 0 17.864 3.086 22.461 9.166 2.877 3.855 4.27 8.034 4.192 12.488h-10.95c-.222-2.605-1.146-4.987-2.774-7.149-2.656-3.06-7.265-4.557-13.841-4.557-4.375 0-7.682.846-9.935 2.5-2.265 1.666-3.385 3.88-3.385 6.601 0 3.034 1.484 5.417 4.44 7.253 1.719 1.042 4.245 2.005 7.604 2.826l7.656 1.849c8.321 2.018 13.907 3.971 16.732 5.885 4.505 2.917 6.758 7.604 6.758 13.932 0 6.146-2.318 11.446-6.979 15.912-4.662 4.479-11.745 6.718-21.276 6.718-10.261 0-17.526-2.343-21.784-7.018-4.284-4.648-6.563-10.403-6.862-17.266z"/><path d="m960.912 197.28c-6.003 6.914-9.011 15.898-9.011 26.979 0 11.237 2.982 19.987 8.958 26.25 5.964 6.224 13.23 9.336 21.81 9.336 3.529 0 6.68-.339 9.466-1.003 5.196-1.21 9.545-3.554 13.073-6.992 2.097-1.927 3.998-4.492 5.691-7.604 1.692-3.125 2.695-5.951 2.994-8.464h-11.393c-.859 3.047-2.318 5.717-4.375 8.061-3.607 3.997-8.438 5.95-14.479 5.95-6.498 0-11.276-2.109-14.362-6.328-3.086-4.206-4.74-9.818-4.948-16.836h50.521c0-6.94-.339-12.005-1.029-15.182-.768-4.636-2.318-8.672-4.635-12.162-2.396-3.633-5.899-6.615-10.495-8.893-4.583-2.318-9.336-3.463-14.219-3.463-9.7 0-17.552 3.463-23.567 10.351zm9.466 5.495c3.606-3.815 8.073-5.755 13.385-5.755 7.435 0 12.734 2.799 15.898 8.398 1.719 2.995 2.813 6.992 3.295 12.005h-38.307c.221-5.924 2.122-10.807 5.729-14.648z"/><path d="m1031.82 224.468c-3.984 3.502-5.99 8.463-5.99 14.869 0 5.807 2.032 10.69 6.094 14.57 4.05 3.868 9.271 5.834 15.664 5.834 5.326 0 10.196-1.146 14.623-3.437 4.414-2.266 7.799-4.936 10.156-8.034.39 2.747 1.068 4.882 2.005 6.354 1.797 2.851 4.701 4.27 8.685 4.27 1.628 0 2.917-.052 3.867-.195.938-.13 2.318-.442 4.128-.976v-8.568c-.742.156-1.42.26-2.071.312-.638.079-1.223.092-1.731.092-1.602 0-2.631-.352-3.125-1.107-.495-.716-.742-1.68-.742-2.878v-39.726c0-6.511-2.514-11.315-7.527-14.415-5.078-3.111-11.653-4.635-19.765-4.635-7.005 0-13.151 1.654-18.451 4.987-5.299 3.334-8.06 9.232-8.268 17.748h10.82c.417-3.555 1.342-6.276 2.761-8.061 2.539-3.255 6.823-4.882 12.877-4.882 5.235 0 9.258.885 12.071 2.643 2.812 1.81 4.218 4.688 4.218 8.62 0 1.914-.26 3.411-.781 4.427-.885 1.888-2.682 3.034-5.338 3.333l-18.477 2.344c-6.471.807-11.719 2.969-15.703 6.511zm11.458 4.934c2.097-1.198 5.261-2.07 9.466-2.63l7.019-.911c2.135-.248 4.323-.691 6.562-1.289 2.227-.586 4.063-1.355 5.469-2.266v9.349c0 7.122-3.216 12.24-9.662 15.39-3.815 1.889-7.76 2.852-11.835 2.852-3.347 0-6.251-.963-8.685-2.929-2.448-1.901-3.672-4.545-3.672-7.904 0-4.401 1.771-7.656 5.338-9.662z"/><path d="m1102.67 257.397v-68.919h11.003v11.901c.898-2.344 3.112-5.156 6.627-8.464 3.529-3.307 7.579-4.986 12.175-4.986.208 0 .573 0 1.094.052.508.052 1.393.156 2.63.273v12.24c-.677-.157-1.315-.235-1.888-.261-.586-.052-1.211-.104-1.901-.104-5.834 0-10.326 1.914-13.451 5.651-3.138 3.737-4.7 8.086-4.7 12.995v39.622z"/><path d="m1172.8 186.473c7.774 0 14.089 1.901 18.959 5.664 4.87 3.789 7.799 10.273 8.776 19.505h-11.263c-.677-4.271-2.24-7.773-4.688-10.573-2.447-2.826-6.38-4.219-11.784-4.219-7.382 0-12.656 3.581-15.833 10.807-2.057 4.649-3.086 10.443-3.086 17.292 0 6.941 1.458 12.734 4.375 17.474 2.917 4.727 7.5 7.071 13.776 7.071 4.805 0 8.607-1.485 11.42-4.402 2.812-2.955 4.752-6.966 5.82-12.083h11.263c-1.263 9.154-4.492 15.821-9.648 20.039-5.144 4.245-11.732 6.354-19.766 6.354-9.011 0-16.198-3.307-21.563-9.856-5.364-6.589-8.033-14.831-8.033-24.701 0-12.109 2.929-21.536 8.815-28.255 5.872-6.732 13.359-10.117 22.46-10.117z"/><path d="m1212.13 257.397v-94.883h11.589v35.3c2.734-3.516 5.208-5.951 7.396-7.357 3.737-2.435 8.385-3.659 13.971-3.659 10 0 16.784 3.49 20.352 10.482 1.927 3.841 2.89 9.128 2.89 15.898v44.219h-11.914v-43.464c0-5.039-.651-8.75-1.927-11.106-2.096-3.763-6.054-5.651-11.836-5.651-4.817 0-9.166 1.627-13.073 4.935-3.919 3.307-5.859 9.557-5.859 18.711v36.575z"/><path d="m1363.44 160.275c11.979 0 21.276 3.151 27.89 9.466 6.589 6.302 10.274 13.477 10.99 21.51h-12.487c-1.407-6.132-4.232-10.937-8.464-14.518-4.231-3.542-10.156-5.312-17.786-5.312-9.323 0-16.836 3.268-22.578 9.804-5.73 6.537-8.594 16.589-8.594 30.091 0 11.094 2.578 20.039 7.76 26.927 5.17 6.901 12.878 10.352 23.138 10.352 9.454 0 16.641-3.633 21.563-10.885 2.63-3.815 4.57-8.842 5.872-15.052h12.487c-1.12 9.948-4.818 18.307-11.08 25.026-7.514 8.138-17.631 12.161-30.378 12.161-10.99 0-20.221-3.307-27.695-9.948-9.818-8.828-14.727-22.383-14.727-40.768 0-13.958 3.685-25.404 11.068-34.31 7.981-9.714 18.997-14.544 33.021-14.544z"/><path d="m1421.34 196.772c-5.885 6.862-8.815 16.094-8.815 27.696 0 10.807 2.774 19.427 8.372 25.833 5.573 6.406 13.099 9.635 22.579 9.635 11.38 0 19.765-3.632 25.182-10.885 5.404-7.24 8.112-16.445 8.112-27.565 0-11.498-3.073-20.196-9.206-26.12-6.146-5.951-13.659-8.893-22.526-8.893-9.922 0-17.825 3.424-23.698 10.299zm7.93 45.846c-3.229-4.908-4.831-11.002-4.831-18.359 0-7.656 1.602-14.167 4.831-19.557 3.216-5.417 8.359-8.112 15.43-8.112 7.981 0 13.606 3.177 16.875 9.518 2.057 4.037 3.086 9.271 3.086 15.716 0 7.096-1.42 13.607-4.271 19.401-2.852 5.82-8.138 8.724-15.821 8.724-6.992 0-12.083-2.448-15.299-7.331z"/><path d="m1490.25 188.478h11.849v45.755c0 3.529.56 6.406 1.68 8.62 2.057 4.115 5.899 6.198 11.523 6.198 8.06 0 13.555-3.607 16.485-10.833 1.575-3.842 2.37-9.154 2.37-15.912v-33.828h11.588v68.919h-10.937l.13-10.143c-1.497 2.617-3.372 4.831-5.599 6.615-4.427 3.606-9.792 5.416-16.094 5.416-9.844 0-16.536-3.281-20.091-9.87-1.94-3.515-2.904-8.19-2.904-14.088z"/><path d="m1563.8 257.397v-68.919h11.003v9.792c3.255-4.05 6.718-6.941 10.364-8.698 3.659-1.784 7.709-2.643 12.175-2.643 9.792 0 16.393 3.411 19.817 10.247 1.902 3.711 2.839 9.049 2.839 16.002v44.219h-11.771v-43.464c0-4.166-.638-7.551-1.888-10.143-2.057-4.271-5.781-6.458-11.185-6.458-2.747 0-5.013.273-6.77.859-3.178.938-5.964 2.826-8.36 5.651-1.94 2.292-3.177 4.623-3.763 7.071-.586 2.408-.872 5.898-.872 10.403v36.081z"/><path d="m1663.67 186.473c7.773 0 14.088 1.901 18.971 5.664 4.857 3.789 7.787 10.273 8.763 19.505h-11.263c-.69-4.271-2.239-7.773-4.687-10.573-2.448-2.826-6.367-4.219-11.784-4.219-7.383 0-12.656 3.581-15.82 10.807-2.058 4.649-3.112 10.443-3.112 17.292 0 6.941 1.471 12.734 4.375 17.474 2.929 4.727 7.539 7.071 13.789 7.071 4.804 0 8.619-1.485 11.419-4.402 2.826-2.955 4.753-6.966 5.82-12.083h11.263c-1.263 9.154-4.492 15.821-9.635 20.039-5.156 4.245-11.745 6.354-19.766 6.354-9.023 0-16.198-3.307-21.575-9.856-5.352-6.589-8.047-14.831-8.047-24.701 0-12.109 2.956-21.536 8.828-28.255 5.872-6.732 13.359-10.117 22.461-10.117z"/><path d="m1703.01 175.965v-13.125h11.771v13.125zm0 81.432v-68.594h11.771v68.594z"/><path d="m1732.59 162.84h11.589v94.557h-11.589z"/><path d="m1802.27 196.772c-5.873 6.862-8.828 16.094-8.828 27.696 0 10.807 2.799 19.427 8.385 25.833s13.112 9.635 22.591 9.635c11.367 0 19.766-3.632 25.182-10.885 5.391-7.24 8.099-16.445 8.099-27.565 0-11.498-3.06-20.196-9.205-26.12-6.146-5.951-13.646-8.893-22.526-8.893-9.909 0-17.826 3.424-23.698 10.299zm7.929 45.846c-3.229-4.908-4.83-11.002-4.83-18.359 0-7.656 1.601-14.167 4.83-19.557 3.217-5.417 8.36-8.112 15.443-8.112 7.982 0 13.607 3.177 16.862 9.518 2.057 4.037 3.099 9.271 3.099 15.716 0 7.096-1.432 13.607-4.297 19.401-2.851 5.82-8.112 8.724-15.794 8.724-6.992 0-12.096-2.448-15.313-7.331z"/><path d="m1874.34 177.97c.169-4.831 1.003-8.307 2.513-10.573 2.708-3.919 7.917-5.924 15.651-5.924.703 0 1.471.052 2.24.104.781.052 1.653.091 2.643.169v10.56c-1.198-.078-2.071-.13-2.604-.156-.534-.026-1.042-.052-1.524-.052-3.502 0-5.612.95-6.302 2.747-.69 1.836-1.028 6.484-1.028 13.958h11.458v9.141h-11.589v59.453h-11.458v-59.453h-9.583v-9.141h9.583z"/><path d="m1986.08 160.275c11.979 0 21.263 3.151 27.877 9.466 6.615 6.302 10.274 13.477 11.016 21.51h-12.487c-1.432-6.132-4.258-10.937-8.477-14.518-4.218-3.542-10.156-5.312-17.799-5.312-9.31 0-16.836 3.268-22.552 9.804-5.729 6.537-8.607 16.589-8.607 30.091 0 11.094 2.604 20.039 7.761 26.927 5.169 6.901 12.89 10.352 23.151 10.352 9.427 0 16.627-3.633 21.562-10.885 2.617-3.815 4.57-8.842 5.859-15.052h12.487c-1.119 9.948-4.817 18.307-11.08 25.026-7.5 8.138-17.63 12.161-30.391 12.161-10.976 0-20.195-3.307-27.669-9.948-9.818-8.828-14.74-22.383-14.74-40.768 0-13.958 3.685-25.404 11.068-34.31 7.982-9.714 18.984-14.544 33.021-14.544z"/><path d="m2042.64 224.468c-3.997 3.502-5.989 8.463-5.989 14.869 0 5.807 2.018 10.69 6.093 14.57 4.037 3.868 9.271 5.834 15.664 5.834 5.313 0 10.196-1.146 14.61-3.437 4.427-2.266 7.825-4.936 10.169-8.034.404 2.747 1.055 4.882 2.005 6.354 1.797 2.851 4.701 4.27 8.698 4.27 1.628 0 2.904-.052 3.855-.195.95-.13 2.317-.442 4.114-.976v-8.568c-.729.156-1.406.26-2.057.312-.651.079-1.224.092-1.745.092-1.575 0-2.617-.352-3.112-1.107-.495-.716-.742-1.68-.742-2.878v-39.726c0-6.511-2.5-11.315-7.539-14.415-5.065-3.111-11.654-4.635-19.766-4.635-6.992 0-13.138 1.654-18.437 4.987-5.3 3.334-8.06 9.232-8.256 17.748h10.808c.429-3.555 1.341-6.276 2.773-8.061 2.513-3.255 6.81-4.882 12.865-4.882 5.234 0 9.258.885 12.07 2.643 2.8 1.81 4.219 4.688 4.219 8.62 0 1.914-.274 3.411-.781 4.427-.899 1.888-2.683 3.034-5.339 3.333l-18.477 2.344c-6.484.807-11.705 2.969-15.703 6.511zm11.459 4.934c2.096-1.198 5.247-2.07 9.466-2.63l7.018-.911c2.148-.248 4.336-.691 6.549-1.289 2.227-.586 4.063-1.355 5.482-2.266v9.349c0 7.122-3.229 12.24-9.661 15.39-3.815 1.889-7.761 2.852-11.849 2.852-3.334 0-6.224-.963-8.685-2.929-2.435-1.901-3.672-4.545-3.672-7.904 0-4.401 1.784-7.656 5.352-9.662z"/><path d="m2113.16 257.397v-68.919h11.016v9.792c3.255-4.05 6.706-6.941 10.351-8.698 3.646-1.784 7.695-2.643 12.162-2.643 9.791 0 16.393 3.411 19.831 10.247 1.887 3.711 2.838 9.049 2.838 16.002v44.219h-11.784v-43.464c0-4.166-.625-7.551-1.862-10.143-2.07-4.271-5.807-6.458-11.211-6.458-2.747 0-4.987.273-6.744.859-3.178.938-5.977 2.826-8.373 5.651-1.927 2.292-3.19 4.623-3.763 7.071-.586 2.408-.872 5.898-.872 10.403v36.081z"/><path d="m2189.21 224.468c-3.984 3.502-5.977 8.463-5.977 14.869 0 5.807 2.031 10.69 6.081 14.57 4.05 3.868 9.271 5.834 15.677 5.834 5.326 0 10.182-1.146 14.609-3.437 4.415-2.266 7.813-4.936 10.17-8.034.39 2.747 1.054 4.882 1.992 6.354 1.797 2.851 4.714 4.27 8.685 4.27 1.641 0 2.93-.052 3.867-.195.95-.13 2.318-.442 4.127-.976v-8.568c-.729.156-1.419.26-2.057.312-.638.079-1.224.092-1.731.092-1.589 0-2.631-.352-3.138-1.107-.482-.716-.73-1.68-.73-2.878v-39.726c0-6.511-2.526-11.315-7.526-14.415-5.065-3.111-11.666-4.635-19.765-4.635-6.992 0-13.164 1.654-18.451 4.987-5.299 3.334-8.047 9.232-8.294 17.748h10.833c.443-3.555 1.367-6.276 2.774-8.061 2.539-3.255 6.823-4.882 12.877-4.882 5.222 0 9.258.885 12.058 2.643 2.812 1.81 4.218 4.688 4.218 8.62 0 1.914-.247 3.411-.755 4.427-.924 1.888-2.695 3.034-5.364 3.333l-18.464 2.344c-6.485.807-11.706 2.969-15.716 6.511zm11.458 4.934c2.123-1.198 5.274-2.07 9.466-2.63l7.019-.911c2.135-.248 4.336-.691 6.562-1.289 2.24-.586 4.063-1.355 5.482-2.266v9.349c0 7.122-3.216 12.24-9.649 15.39-3.841 1.889-7.786 2.852-11.849 2.852-3.359 0-6.249-.963-8.698-2.929-2.447-1.901-3.671-4.545-3.671-7.904 0-4.401 1.783-7.656 5.338-9.662z"/><path d="m2262.54 198.296c-5.13 7.343-7.695 16.041-7.695 26.067 0 10.729 2.825 19.349 8.437 25.808 5.625 6.458 12.266 9.674 19.961 9.674 4.766 0 8.985-.924 12.669-2.825 3.685-1.889 6.901-4.935 9.597-9.18v9.557h10.417v-94.883h-11.133v34.818c-2.617-3.177-4.948-5.469-7.006-6.745-3.58-2.213-7.981-3.333-13.268-3.333-9.518 0-16.862 3.672-21.979 11.042zm9.974 5.742c3.633-4.467 8.359-6.706 14.193-6.706 5.247 0 9.635 2.11 13.203 6.302 3.555 4.167 5.338 10.638 5.338 19.349 0 8.633-1.731 15.208-5.182 19.844-3.45 4.622-7.864 6.914-13.229 6.914-6.901 0-11.927-2.487-15.052-7.474-3.138-4.961-4.714-11.146-4.714-18.516 0-8.672 1.81-15.234 5.443-19.713z"/><path d="m2335.79 224.468c-3.997 3.502-5.976 8.463-5.976 14.869 0 5.807 2.018 10.69 6.08 14.57 4.05 3.868 9.271 5.834 15.665 5.834 5.325 0 10.195-1.146 14.622-3.437 4.427-2.266 7.799-4.936 10.169-8.034.378 2.747 1.042 4.882 1.979 6.354 1.81 2.851 4.714 4.27 8.698 4.27 1.628 0 2.93-.052 3.867-.195.938-.13 2.318-.442 4.128-.976v-8.568c-.742.156-1.432.26-2.07.312-.638.079-1.211.092-1.732.092-1.601 0-2.643-.352-3.125-1.107-.508-.716-.729-1.68-.729-2.878v-39.726c0-6.511-2.526-11.315-7.539-14.415-5.078-3.111-11.667-4.635-19.766-4.635-7.005 0-13.151 1.654-18.45 4.987-5.287 3.334-8.06 9.232-8.269 17.748h10.808c.442-3.555 1.367-6.276 2.773-8.061 2.539-3.255 6.836-4.882 12.865-4.882 5.247 0 9.257.885 12.083 2.643 2.813 1.81 4.219 4.688 4.219 8.62 0 1.914-.261 3.411-.781 4.427-.886 1.888-2.67 3.034-5.339 3.333l-18.463 2.344c-6.485.807-11.732 2.969-15.717 6.511zm11.471 4.934c2.097-1.198 5.248-2.07 9.454-2.63l7.018-.911c2.135-.248 4.323-.691 6.562-1.289 2.24-.586 4.05-1.355 5.469-2.266v9.349c0 7.122-3.216 12.24-9.661 15.39-3.815 1.889-7.761 2.852-11.836 2.852-3.347 0-6.25-.963-8.685-2.929-2.448-1.901-3.672-4.545-3.672-7.904 0-4.401 1.771-7.656 5.351-9.662z"/><path d="m2914.4 4.025c11.966 0 21.263 3.151 27.865 9.466 6.614 6.302 10.286 13.477 11.015 21.51h-12.487c-1.419-6.132-4.244-10.937-8.463-14.518-4.232-3.542-10.17-5.312-17.8-5.312-9.323 0-16.836 3.268-22.565 9.804-5.729 6.537-8.594 16.589-8.594 30.091 0 11.094 2.592 20.039 7.761 26.927 5.169 6.901 12.878 10.352 23.138 10.352 9.44 0 16.628-3.633 21.563-10.885 2.617-3.815 4.57-8.842 5.859-15.052h12.487c-1.12 9.948-4.805 18.307-11.068 25.026-7.513 8.138-17.643 12.161-30.391 12.161-10.976 0-20.208-3.307-27.682-9.948-9.831-8.828-14.74-22.383-14.74-40.768 0-13.958 3.698-25.404 11.081-34.31 7.969-9.714 18.985-14.544 33.021-14.544z"/><path d="m2972.3 40.522c-5.886 6.862-8.815 16.094-8.815 27.696 0 10.807 2.786 19.427 8.359 25.833 5.586 6.406 13.112 9.635 22.604 9.635 11.368 0 19.753-3.632 25.156-10.885 5.417-7.24 8.112-16.445 8.112-27.565 0-11.498-3.059-20.196-9.205-26.12-6.133-5.951-13.646-8.893-22.526-8.893-9.909 0-17.813 3.424-23.685 10.299zm7.917 45.846c-3.217-4.908-4.831-11.002-4.831-18.359 0-7.656 1.614-14.167 4.831-19.557 3.215-5.417 8.359-8.112 15.442-8.112 7.982 0 13.607 3.177 16.875 9.518 2.057 4.037 3.086 9.271 3.086 15.716 0 7.096-1.432 13.607-4.284 19.401-2.851 5.82-8.112 8.724-15.794 8.724-7.005 0-12.11-2.448-15.325-7.331z"/><path d="m3041.47 101.147v-68.919h11.003v9.792c3.268-4.05 6.719-6.941 10.365-8.698 3.646-1.784 7.708-2.643 12.174-2.643 9.779 0 16.393 3.411 19.831 10.247 1.875 3.711 2.825 9.049 2.825 16.002v44.219h-11.784v-43.464c0-4.166-.625-7.551-1.862-10.143-2.07-4.271-5.794-6.458-11.197-6.458-2.761 0-5.013.273-6.758.859-3.177.938-5.977 2.826-8.373 5.651-1.927 2.292-3.19 4.623-3.763 7.071-.586 2.408-.872 5.898-.872 10.403v36.081z"/><path d="m3110.51 79.532h11.146c.338 3.868 1.302 6.836 2.89 8.894 2.93 3.724 7.982 5.599 15.195 5.599 4.284 0 8.061-.964 11.329-2.8 3.255-1.875 4.883-4.778 4.883-8.698 0-2.916-1.302-5.182-3.92-6.731-1.68-.938-4.987-2.032-9.909-3.282l-9.218-2.343c-5.873-1.42-10.209-3.047-12.995-4.883-4.974-3.099-7.461-7.448-7.461-12.969 0-6.562 2.344-11.823 7.044-15.846 4.701-4.037 11.016-6.081 18.946-6.081 10.39 0 17.877 3.086 22.473 9.166 2.878 3.855 4.271 8.034 4.193 12.488h-10.95c-.209-2.605-1.133-4.987-2.774-7.149-2.656-3.06-7.265-4.557-13.841-4.557-4.375 0-7.682.846-9.948 2.5-2.239 1.666-3.372 3.88-3.372 6.601 0 3.034 1.484 5.417 4.44 7.253 1.719 1.042 4.245 2.005 7.604 2.826l7.656 1.849c8.321 2.018 13.92 3.971 16.732 5.885 4.518 2.917 6.771 7.604 6.771 13.932 0 6.146-2.344 11.446-6.992 15.912-4.662 4.479-11.745 6.718-21.276 6.718-10.261 0-17.513-2.343-21.784-7.018-4.271-4.648-6.563-10.403-6.862-17.266z"/><path d="m3185.83 41.03c-6.015 6.914-9.01 15.898-9.01 26.979 0 11.237 2.969 19.987 8.932 26.25 5.964 6.224 13.255 9.336 21.823 9.336 3.529 0 6.693-.339 9.466-1.003 5.196-1.21 9.558-3.554 13.073-6.992 2.097-1.927 4.011-4.492 5.704-7.604 1.692-3.125 2.682-5.951 2.981-8.464h-11.393c-.859 3.047-2.305 5.717-4.375 8.061-3.607 3.997-8.425 5.95-14.492 5.95-6.472 0-11.25-2.109-14.336-6.328-3.099-4.206-4.766-9.818-4.961-16.836h50.534c0-6.94-.352-12.005-1.042-15.182-.768-4.636-2.305-8.672-4.635-12.162-2.409-3.633-5.886-6.615-10.495-8.893-4.583-2.318-9.323-3.463-14.206-3.463-9.726 0-17.565 3.463-23.568 10.351zm9.454 5.495c3.606-3.815 8.072-5.755 13.398-5.755 7.409 0 12.721 2.799 15.898 8.398 1.706 2.995 2.8 6.992 3.282 12.005h-38.308c.222-5.924 2.123-10.807 5.73-14.648z"/><path d="m3253.96 19.715v-13.125h11.784v13.125zm0 81.432v-68.594h11.784v68.594z"/><path d="m3283.56 6.59h11.576v94.557h-11.576z"/><path d="m3351.91 42.046c-5.143 7.343-7.695 16.041-7.695 26.067 0 10.729 2.812 19.349 8.424 25.808 5.625 6.458 12.292 9.674 19.961 9.674 4.766 0 8.998-.924 12.682-2.825 3.685-1.889 6.901-4.935 9.597-9.18v9.557h10.417v-94.883h-11.12v34.818c-2.63-3.177-4.974-5.469-7.032-6.745-3.554-2.213-7.968-3.333-13.255-3.333-9.531 0-16.862 3.672-21.979 11.042zm9.974 5.742c3.62-4.467 8.359-6.706 14.193-6.706 5.234 0 9.635 2.11 13.19 6.302 3.568 4.167 5.351 10.638 5.351 19.349 0 8.633-1.731 15.208-5.182 19.844-3.45 4.622-7.877 6.914-13.229 6.914-6.914 0-11.927-2.487-15.065-7.474-3.125-4.961-4.701-11.146-4.701-18.516 0-8.672 1.823-15.234 5.443-19.713z"/><path d="m3427.55 41.03c-6.015 6.914-9.01 15.898-9.01 26.979 0 11.237 2.982 19.987 8.945 26.25 5.963 6.224 13.229 9.336 21.823 9.336 3.516 0 6.667-.339 9.453-1.003 5.196-1.21 9.544-3.554 13.073-6.992 2.109-1.927 3.997-4.492 5.69-7.604 1.693-3.125 2.695-5.951 2.995-8.464h-11.393c-.86 3.047-2.318 5.717-4.375 8.061-3.607 3.997-8.438 5.95-14.467 5.95-6.51 0-11.276-2.109-14.362-6.328-3.099-4.206-4.739-9.818-4.973-16.836h50.546c0-6.94-.338-12.005-1.028-15.182-.782-4.636-2.331-8.672-4.649-12.162-2.395-3.633-5.898-6.615-10.481-8.893-4.597-2.318-9.337-3.463-14.232-3.463-9.701 0-17.565 3.463-23.555 10.351zm9.453 5.495c3.607-3.815 8.073-5.755 13.399-5.755 7.422 0 12.721 2.799 15.898 8.398 1.719 2.995 2.813 6.992 3.281 12.005h-38.294c.195-5.924 2.123-10.807 5.716-14.648z"/><path d="m3532.64 101.147v-68.919h10.99v11.901c.911-2.344 3.125-5.156 6.641-8.464 3.515-3.307 7.578-4.986 12.174-4.986.208 0 .586 0 1.094.052.521.052 1.393.156 2.643.273v12.24c-.703-.157-1.341-.235-1.914-.261-.586-.052-1.198-.104-1.888-.104-5.847 0-10.326 1.914-13.451 5.651-3.151 3.737-4.713 8.086-4.713 12.995v39.622z"/><path d="m3581.33 41.03c-6.003 6.914-8.997 15.898-8.997 26.979 0 11.237 2.969 19.987 8.932 26.25 5.963 6.224 13.242 9.336 21.823 9.336 3.516 0 6.68-.339 9.466-1.003 5.196-1.21 9.557-3.554 13.073-6.992 2.096-1.927 3.997-4.492 5.703-7.604 1.693-3.125 2.683-5.951 2.982-8.464h-11.393c-.847 3.047-2.305 5.717-4.375 8.061-3.607 3.997-8.425 5.95-14.492 5.95-6.472 0-11.25-2.109-14.35-6.328-3.085-4.206-4.752-9.818-4.948-16.836h50.534c0-6.94-.351-12.005-1.041-15.182-.769-4.636-2.305-8.672-4.636-12.162-2.395-3.633-5.885-6.615-10.494-8.893-4.584-2.318-9.323-3.463-14.206-3.463-9.714 0-17.565 3.463-23.581 10.351zm9.466 5.495c3.607-3.815 8.073-5.755 13.399-5.755 7.409 0 12.708 2.799 15.898 8.398 1.706 2.995 2.8 6.992 3.269 12.005h-38.295c.222-5.924 2.123-10.807 5.729-14.648z"/><path d="m3676.06 30.223c7.773 0 14.088 1.901 18.958 5.664 4.87 3.789 7.8 10.273 8.789 19.505h-11.263c-.69-4.271-2.253-7.773-4.7-10.573-2.448-2.826-6.368-4.219-11.784-4.219-7.383 0-12.643 3.581-15.834 10.807-2.07 4.649-3.085 10.443-3.085 17.292 0 6.941 1.458 12.734 4.375 17.474 2.929 4.727 7.499 7.071 13.775 7.071 4.818 0 8.62-1.485 11.433-4.402 2.812-2.955 4.739-6.966 5.82-12.083h11.263c-1.276 9.154-4.492 15.821-9.661 20.039-5.144 4.245-11.732 6.354-19.766 6.354-9.01 0-16.198-3.307-21.55-9.856-5.377-6.589-8.046-14.831-8.046-24.701 0-12.109 2.942-21.536 8.815-28.255 5.885-6.732 13.359-10.117 22.461-10.117z"/><path d="m3715.39 101.147v-94.883h11.588v35.3c2.735-3.516 5.221-5.951 7.396-7.357 3.737-2.435 8.399-3.659 13.972-3.659 9.999 0 16.783 3.49 20.351 10.482 1.927 3.841 2.89 9.128 2.89 15.898v44.219h-11.913v-43.464c0-5.039-.639-8.75-1.914-11.106-2.11-3.763-6.068-5.651-11.849-5.651-4.818 0-9.167 1.627-13.073 4.935-3.907 3.307-5.86 9.557-5.86 18.711v36.575z"/><path d="m3793.83 41.03c-6.016 6.914-9.01 15.898-9.01 26.979 0 11.237 2.982 19.987 8.945 26.25 5.964 6.224 13.242 9.336 21.823 9.336 3.529 0 6.679-.339 9.466-1.003 5.182-1.21 9.544-3.554 13.073-6.992 2.097-1.927 3.984-4.492 5.69-7.604 1.693-3.125 2.695-5.951 2.995-8.464h-11.393c-.873 3.047-2.318 5.717-4.375 8.061-3.62 3.997-8.438 5.95-14.493 5.95-6.484 0-11.263-2.109-14.348-6.328-3.086-4.206-4.74-9.818-4.962-16.836h50.534c0-6.94-.351-12.005-1.015-15.182-.795-4.636-2.331-8.672-4.649-12.162-2.395-3.633-5.911-6.615-10.481-8.893-4.597-2.318-9.336-3.463-14.232-3.463-9.701 0-17.552 3.463-23.568 10.351zm9.466 5.495c3.607-3.815 8.06-5.755 13.386-5.755 7.422 0 12.734 2.799 15.898 8.398 1.732 2.995 2.813 6.992 3.294 12.005h-38.307c.222-5.924 2.123-10.807 5.729-14.648z"/><path d="m3862.29 101.147v-68.919h11.015v11.901c.886-2.344 3.099-5.156 6.628-8.464 3.515-3.307 7.565-4.986 12.161-4.986.209 0 .586 0 1.094.052.521.052 1.393.156 2.63.273v12.24c-.664-.157-1.302-.235-1.887-.261-.587-.052-1.225-.104-1.902-.104-5.833 0-10.325 1.914-13.463 5.651-3.125 3.737-4.688 8.086-4.688 12.995v39.622z"/><path d="m3932.43 30.223c7.76 0 14.076 1.901 18.945 5.664 4.883 3.789 7.8 10.273 8.789 19.505h-11.263c-.677-4.271-2.252-7.773-4.7-10.573-2.435-2.826-6.381-4.219-11.771-4.219-7.396 0-12.669 3.581-15.846 10.807-2.058 4.649-3.086 10.443-3.086 17.292 0 6.941 1.458 12.734 4.388 17.474 2.903 4.727 7.5 7.071 13.75 7.071 4.817 0 8.619-1.485 11.432-4.402 2.826-2.955 4.752-6.966 5.833-12.083h11.263c-1.289 9.154-4.505 15.821-9.661 20.039-5.143 4.245-11.732 6.354-19.753 6.354-9.01 0-16.211-3.307-21.562-9.856-5.365-6.589-8.06-14.831-8.06-24.701 0-12.109 2.943-21.536 8.815-28.255 5.885-6.732 13.385-10.117 22.487-10.117z"/><path d="m3971.74 101.147v-94.883h11.601v35.3c2.748-3.516 5.209-5.951 7.396-7.357 3.737-2.435 8.399-3.659 13.972-3.659 10 0 16.784 3.49 20.338 10.482 1.94 3.841 2.904 9.128 2.904 15.898v44.219h-11.901v-43.464c0-5.039-.651-8.75-1.94-11.106-2.11-3.763-6.055-5.651-11.849-5.651-4.805 0-9.167 1.627-13.073 4.935-3.906 3.307-5.847 9.557-5.847 18.711v36.575z"/><path d="m4050.21 41.03c-6.015 6.914-9.036 15.898-9.036 26.979 0 11.237 2.995 19.987 8.958 26.25 5.964 6.224 13.229 9.336 21.823 9.336 3.516 0 6.667-.339 9.466-1.003 5.195-1.21 9.558-3.554 13.073-6.992 2.097-1.927 3.998-4.492 5.703-7.604 1.68-3.125 2.683-5.951 2.982-8.464h-11.393c-.859 3.047-2.331 5.717-4.388 8.061-3.594 3.997-8.424 5.95-14.479 5.95-6.472 0-11.263-2.109-14.349-6.328-3.099-4.206-4.753-9.818-4.974-16.836h50.547c0-6.94-.352-12.005-1.042-15.182-.755-4.636-2.305-8.672-4.622-12.162-2.409-3.633-5.899-6.615-10.495-8.893-4.583-2.318-9.336-3.463-14.232-3.463-9.688 0-17.552 3.463-23.542 10.351zm9.454 5.495c3.606-3.815 8.059-5.755 13.385-5.755 7.422 0 12.721 2.799 15.898 8.398 1.719 2.995 2.813 6.992 3.281 12.005h-38.294c.196-5.924 2.123-10.807 5.73-14.648z"/><path d="m4114.09 79.532h11.119c.352 3.868 1.315 6.836 2.917 8.894 2.917 3.724 7.969 5.599 15.182 5.599 4.297 0 8.06-.964 11.328-2.8 3.269-1.875 4.896-4.778 4.896-8.698 0-2.916-1.302-5.182-3.932-6.731-1.654-.938-4.961-2.032-9.896-3.282l-9.205-2.343c-5.886-1.42-10.222-3.047-13.009-4.883-4.973-3.099-7.473-7.448-7.473-12.969 0-6.562 2.357-11.823 7.044-15.846 4.7-4.037 11.016-6.081 18.958-6.081 10.378 0 17.878 3.086 22.474 9.166 2.878 3.855 4.271 8.034 4.18 12.488h-10.938c-.208-2.605-1.145-4.987-2.773-7.149-2.656-3.06-7.279-4.557-13.841-4.557-4.375 0-7.696.846-9.948 2.5-2.24 1.666-3.372 3.88-3.372 6.601 0 3.034 1.484 5.417 4.453 7.253 1.692 1.042 4.245 2.005 7.591 2.826l7.656 1.849c8.32 2.018 13.906 3.971 16.732 5.885 4.505 2.917 6.758 7.604 6.758 13.932 0 6.146-2.331 11.446-6.98 15.912-4.661 4.479-11.744 6.718-21.276 6.718-10.26 0-17.526-2.343-21.796-7.018-4.271-4.648-6.55-10.403-6.849-17.266z"/><path d="m4226.03 41.03c-6.003 6.914-9.011 15.898-9.011 26.979 0 11.237 2.982 19.987 8.946 26.25 5.963 6.224 13.229 9.336 21.823 9.336 3.515 0 6.679-.339 9.466-1.003 5.195-1.21 9.544-3.554 13.059-6.992 2.11-1.927 4.011-4.492 5.704-7.604 1.693-3.125 2.695-5.951 2.994-8.464h-11.393c-.859 3.047-2.33 5.717-4.388 8.061-3.593 3.997-8.411 5.95-14.479 5.95-6.471 0-11.263-2.109-14.349-6.328-3.099-4.206-4.752-9.818-4.961-16.836h50.534c0-6.94-.339-12.005-1.028-15.182-.769-4.636-2.318-8.672-4.636-12.162-2.396-3.633-5.899-6.615-10.495-8.893-4.596-2.318-9.336-3.463-14.232-3.463-9.687 0-17.539 3.463-23.554 10.351zm9.466 5.495c3.606-3.815 8.06-5.755 13.385-5.755 7.422 0 12.722 2.799 15.899 8.398 1.718 2.995 2.812 6.992 3.281 12.005h-38.294c.208-5.924 2.122-10.807 5.729-14.648z"/><path d="m4294.17 101.147v-68.919h11.015v9.792c3.256-4.05 6.706-6.941 10.365-8.698 3.646-1.784 7.682-2.643 12.161-2.643 9.779 0 16.394 3.411 19.831 10.247 1.888 3.711 2.826 9.049 2.826 16.002v44.219h-11.784v-43.464c0-4.166-.625-7.551-1.862-10.143-2.071-4.271-5.795-6.458-11.211-6.458-2.734 0-4.987.273-6.745.859-3.177.938-5.964 2.826-8.372 5.651-1.927 2.292-3.177 4.623-3.763 7.071-.586 2.408-.86 5.898-.86 10.403v36.081z"/><path d="m2868.75 235.782h11.146c.338 3.868 1.302 6.836 2.891 8.894 2.929 3.724 7.981 5.599 15.195 5.599 4.297 0 8.073-.964 11.328-2.8 3.268-1.875 4.896-4.778 4.896-8.698 0-2.916-1.302-5.182-3.933-6.731-1.666-.938-4.973-2.032-9.908-3.282l-9.206-2.343c-5.886-1.42-10.221-3.047-12.995-4.883-4.987-3.099-7.474-7.448-7.474-12.969 0-6.562 2.344-11.823 7.045-15.846 4.7-4.037 11.028-6.081 18.958-6.081 10.39 0 17.877 3.086 22.461 9.166 2.877 3.855 4.283 8.034 4.192 12.488h-10.95c-.208-2.605-1.133-4.987-2.761-7.149-2.669-3.06-7.278-4.557-13.841-4.557-4.375 0-7.695.846-9.948 2.5-2.252 1.666-3.372 3.88-3.372 6.601 0 3.034 1.471 5.417 4.44 7.253 1.719 1.042 4.245 2.005 7.591 2.826l7.657 1.849c8.333 2.018 13.906 3.971 16.744 5.885 4.506 2.917 6.758 7.604 6.758 13.932 0 6.146-2.331 11.446-6.992 15.912-4.649 4.479-11.732 6.718-21.263 6.718-10.261 0-17.526-2.343-21.797-7.018-4.271-4.648-6.55-10.403-6.862-17.266z"/><path d="m2965.51 186.473c7.773 0 14.088 1.901 18.958 5.664 4.87 3.789 7.8 10.273 8.789 19.505h-11.263c-.69-4.271-2.252-7.773-4.7-10.573-2.448-2.826-6.368-4.219-11.784-4.219-7.383 0-12.657 3.581-15.833 10.807-2.058 4.649-3.086 10.443-3.086 17.292 0 6.941 1.458 12.734 4.375 17.474 2.916 4.727 7.513 7.071 13.776 7.071 4.804 0 8.619-1.485 11.419-4.402 2.812-2.955 4.752-6.966 5.833-12.083h11.263c-1.289 9.154-4.505 15.821-9.661 20.039-5.144 4.245-11.732 6.354-19.753 6.354-9.01 0-16.211-3.307-21.575-9.856-5.365-6.589-8.034-14.831-8.034-24.701 0-12.109 2.93-21.536 8.815-28.255 5.872-6.732 13.359-10.117 22.461-10.117z"/><path d="m3004.84 175.965v-13.125h11.784v13.125zm0 81.432v-68.594h11.784v68.594z"/><path d="m3038.48 198.751c-6.016 6.888-9.011 15.899-9.011 26.954 0 11.249 2.982 19.999 8.946 26.249 5.963 6.237 13.242 9.362 21.822 9.362 3.516 0 6.667-.338 9.466-1.041 5.183-1.198 9.545-3.516 13.061-6.941 2.109-1.966 4.01-4.504 5.703-7.63 1.692-3.111 2.682-5.924 2.994-8.45h-11.406c-.859 3.034-2.305 5.729-4.375 8.034-3.594 3.971-8.424 5.976-14.479 5.976-6.485 0-11.263-2.109-14.349-6.354-3.099-4.218-4.753-9.818-4.961-16.81h50.534c0-6.94-.352-12.005-1.029-15.182-.781-4.649-2.318-8.698-4.635-12.187-2.409-3.659-5.912-6.602-10.495-8.92-4.596-2.292-9.336-3.437-14.232-3.437-9.7 0-17.552 3.437-23.554 10.377zm9.466 5.495c3.593-3.841 8.059-5.768 13.385-5.768 7.422 0 12.722 2.786 15.898 8.359 1.719 3.034 2.813 7.044 3.282 12.032h-38.294c.208-5.899 2.122-10.782 5.729-14.623z"/><path d="m3107.4 257.397v-68.919h11.003v9.792c3.255-4.05 6.705-6.941 10.364-8.698 3.646-1.784 7.709-2.643 12.174-2.643 9.779 0 16.381 3.411 19.818 10.247 1.888 3.711 2.826 9.049 2.826 16.002v44.219h-11.771v-43.464c0-4.166-.625-7.551-1.875-10.143-2.058-4.271-5.794-6.458-11.185-6.458-2.76 0-5.013.273-6.771.859-3.177.938-5.976 2.826-8.359 5.651-1.94 2.292-3.203 4.623-3.776 7.071-.573 2.408-.873 5.898-.873 10.403v36.081z"/><path d="m3207.27 186.473c7.76 0 14.075 1.901 18.945 5.664 4.883 3.789 7.813 10.273 8.789 19.505h-11.25c-.69-4.271-2.266-7.773-4.701-10.573-2.447-2.826-6.393-4.219-11.783-4.219-7.383 0-12.67 3.581-15.834 10.807-2.07 4.649-3.098 10.443-3.098 17.292 0 6.941 1.471 12.734 4.387 17.474 2.904 4.727 7.5 7.071 13.763 7.071 4.805 0 8.62-1.485 11.433-4.402 2.825-2.955 4.752-6.966 5.833-12.083h11.25c-1.276 9.154-4.492 15.821-9.648 20.039-5.144 4.245-11.732 6.354-19.753 6.354-9.023 0-16.224-3.307-21.576-9.856-5.364-6.589-8.046-14.831-8.046-24.701 0-12.109 2.942-21.536 8.815-28.255 5.885-6.732 13.372-10.117 22.474-10.117z"/><path d="m3251.74 197.28c-6.003 6.914-9.011 15.898-9.011 26.979 0 11.237 2.982 19.987 8.946 26.25 5.963 6.224 13.242 9.336 21.809 9.336 3.542 0 6.693-.339 9.48-1.003 5.182-1.21 9.544-3.554 13.073-6.992 2.096-1.927 3.997-4.492 5.69-7.604 1.693-3.125 2.682-5.951 2.995-8.464h-11.394c-.872 3.047-2.317 5.717-4.375 8.061-3.606 3.997-8.437 5.95-14.492 5.95-6.471 0-11.263-2.109-14.349-6.328-3.086-4.206-4.753-9.818-4.961-16.836h50.534c0-6.94-.338-12.005-1.028-15.182-.782-4.636-2.318-8.672-4.649-12.162-2.396-3.633-5.885-6.615-10.482-8.893-4.596-2.318-9.336-3.463-14.218-3.463-9.714 0-17.566 3.463-23.568 10.351zm9.466 5.495c3.594-3.815 8.06-5.755 13.386-5.755 7.421 0 12.734 2.799 15.898 8.398 1.719 2.995 2.812 6.992 3.294 12.005h-38.307c.208-5.924 2.122-10.807 5.729-14.648z"/><path d="m3315.64 235.782h11.133c.352 3.868 1.315 6.836 2.903 8.894 2.904 3.724 7.969 5.599 15.196 5.599 4.284 0 8.06-.964 11.328-2.8 3.255-1.875 4.883-4.778 4.883-8.698 0-2.916-1.302-5.182-3.919-6.731-1.68-.938-4.988-2.032-9.923-3.282l-9.205-2.343c-5.872-1.42-10.209-3.047-13.008-4.883-4.961-3.099-7.461-7.448-7.461-12.969 0-6.562 2.344-11.823 7.057-15.846 4.688-4.037 11.016-6.081 18.946-6.081 10.391 0 17.877 3.086 22.474 9.166 2.864 3.855 4.27 8.034 4.179 12.488h-10.937c-.209-2.605-1.146-4.987-2.774-7.149-2.656-3.06-7.265-4.557-13.841-4.557-4.375 0-7.682.846-9.948 2.5-2.252 1.666-3.372 3.88-3.372 6.601 0 3.034 1.485 5.417 4.44 7.253 1.706 1.042 4.245 2.005 7.591 2.826l7.656 1.849c8.334 2.018 13.907 3.971 16.745 5.885 4.506 2.917 6.758 7.604 6.758 13.932 0 6.146-2.331 11.446-6.979 15.912-4.662 4.479-11.758 6.718-21.276 6.718-10.26 0-17.526-2.343-21.784-7.018-4.271-4.648-6.562-10.403-6.862-17.266z"/><path d="m3422.43 257.397v-94.883h11.575v35.3c2.748-3.516 5.222-5.951 7.422-7.357 3.724-2.435 8.373-3.659 13.959-3.659 10 0 16.77 3.49 20.351 10.482 1.927 3.841 2.878 9.128 2.878 15.898v44.219h-11.901v-43.464c0-5.039-.651-8.75-1.927-11.106-2.11-3.763-6.055-5.651-11.836-5.651-4.831 0-9.18 1.627-13.073 4.935-3.906 3.307-5.873 9.557-5.873 18.711v36.575z"/><path d="m3495.46 188.478h11.849v45.755c0 3.529.547 6.406 1.679 8.62 2.058 4.115 5.886 6.198 11.511 6.198 8.073 0 13.568-3.607 16.497-10.833 1.576-3.842 2.37-9.154 2.37-15.912v-33.828h11.589v68.919h-10.951l.143-10.143c-1.51 2.617-3.372 4.831-5.612 6.615-4.427 3.606-9.791 5.416-16.093 5.416-9.818 0-16.524-3.281-20.078-9.87-1.941-3.515-2.904-8.19-2.904-14.088z"/><path d="m3569.01 257.397v-68.919h11.459v9.792c2.734-3.412 5.234-5.873 7.474-7.396 3.815-2.644 8.138-3.945 12.995-3.945 5.494 0 9.921 1.341 13.255 4.062 1.901 1.536 3.607 3.789 5.156 6.823 2.565-3.685 5.599-6.433 9.075-8.242 3.477-1.784 7.383-2.643 11.719-2.643 9.258 0 15.573 3.359 18.919 10.039 1.797 3.619 2.709 8.45 2.709 14.531v45.898h-12.032v-47.864c0-4.597-1.158-7.748-3.463-9.48-2.292-1.731-5.078-2.578-8.385-2.578-4.558 0-8.464 1.537-11.758 4.584-3.281 3.047-4.922 8.138-4.922 15.26v40.078h-11.784v-44.987c0-4.648-.547-8.086-1.667-10.247-1.757-3.203-5.039-4.831-9.856-4.831-4.375 0-8.347 1.732-11.94 5.104-3.581 3.386-5.365 9.544-5.365 18.386v36.575z"/><path d="m3681.56 224.468c-3.984 3.502-5.989 8.463-5.989 14.869 0 5.807 2.031 10.69 6.081 14.57 4.062 3.868 9.283 5.834 15.677 5.834 5.325 0 10.182-1.146 14.622-3.437 4.414-2.266 7.813-4.936 10.156-8.034.391 2.747 1.068 4.882 2.005 6.354 1.797 2.851 4.701 4.27 8.686 4.27 1.64 0 2.916-.052 3.867-.195.95-.13 2.305-.442 4.114-.976v-8.568c-.729.156-1.406.26-2.057.312-.638.079-1.224.092-1.745.092-1.575 0-2.617-.352-3.112-1.107-.495-.716-.742-1.68-.742-2.878v-39.726c0-6.511-2.5-11.315-7.539-14.415-5.065-3.111-11.628-4.635-19.766-4.635-6.992 0-13.125 1.654-18.437 4.987-5.3 3.334-8.047 9.232-8.268 17.748h10.82c.43-3.555 1.354-6.276 2.773-8.061 2.526-3.255 6.823-4.882 12.865-4.882 5.234 0 9.258.885 12.083 2.643 2.813 1.81 4.206 4.688 4.206 8.62 0 1.914-.26 3.411-.781 4.427-.899 1.888-2.683 3.034-5.339 3.333l-18.476 2.344c-6.472.807-11.706 2.969-15.704 6.511zm11.459 4.934c2.109-1.198 5.26-2.07 9.466-2.63l7.018-.911c2.136-.248 4.336-.691 6.576-1.289 2.213-.586 4.049-1.355 5.455-2.266v9.349c0 7.122-3.229 12.24-9.648 15.39-3.828 1.889-7.773 2.852-11.849 2.852-3.359 0-6.237-.963-8.698-2.929-2.435-1.901-3.659-4.545-3.659-7.904 0-4.401 1.784-7.656 5.339-9.662z"/><path d="m3752.08 175.965v-13.125h11.784v13.125zm0 81.432v-68.594h11.784v68.594z"/><path d="m3781.34 257.397v-68.919h11.016v9.792c3.255-4.05 6.719-6.941 10.365-8.698 3.632-1.784 7.708-2.643 12.148-2.643 9.792 0 16.393 3.411 19.831 10.247 1.887 3.711 2.851 9.049 2.851 16.002v44.219h-11.797v-43.464c0-4.166-.612-7.551-1.862-10.143-2.057-4.271-5.794-6.458-11.198-6.458-2.747 0-5 .273-6.77.859-3.165.938-5.964 2.826-8.36 5.651-1.94 2.292-3.19 4.623-3.763 7.071-.586 2.408-.872 5.898-.872 10.403v36.081z"/><path d="m3859.78 197.28c-6.003 6.914-9.011 15.898-9.011 26.979 0 11.237 2.982 19.987 8.959 26.25 5.95 6.224 13.216 9.336 21.822 9.336 3.503 0 6.667-.339 9.454-1.003 5.195-1.21 9.544-3.554 13.073-6.992 2.083-1.927 3.997-4.492 5.703-7.604 1.667-3.125 2.682-5.951 2.981-8.464h-11.393c-.859 3.047-2.33 5.717-4.388 8.061-3.594 3.997-8.424 5.95-14.466 5.95-6.484 0-11.263-2.109-14.362-6.328-3.086-4.206-4.74-9.818-4.974-16.836h50.547c0-6.94-.339-12.005-1.029-15.182-.768-4.636-2.33-8.672-4.622-12.162-2.422-3.633-5.911-6.615-10.508-8.893-4.583-2.318-9.336-3.463-14.219-3.463-9.713 0-17.552 3.463-23.567 10.351zm9.466 5.495c3.607-3.815 8.06-5.755 13.398-5.755 7.422 0 12.708 2.799 15.886 8.398 1.718 2.995 2.812 6.992 3.281 12.005h-38.294c.208-5.924 2.122-10.807 5.729-14.648z"/><path d="m3923.67 235.782h11.133c.351 3.868 1.315 6.836 2.904 8.894 2.916 3.724 7.968 5.599 15.195 5.599 4.283 0 8.059-.964 11.328-2.8 3.255-1.875 4.883-4.778 4.883-8.698 0-2.916-1.303-5.182-3.933-6.731-1.666-.938-4.961-2.032-9.896-3.282l-9.205-2.343c-5.886-1.42-10.221-3.047-13.008-4.883-4.974-3.099-7.474-7.448-7.474-12.969 0-6.562 2.344-11.823 7.044-15.846 4.714-4.037 11.029-6.081 18.959-6.081 10.377 0 17.89 3.086 22.474 9.166 2.877 3.855 4.27 8.034 4.179 12.488h-10.937c-.208-2.605-1.133-4.987-2.761-7.149-2.669-3.06-7.278-4.557-13.854-4.557-4.375 0-7.695.846-9.948 2.5-2.239 1.666-3.372 3.88-3.372 6.601 0 3.034 1.471 5.417 4.44 7.253 1.719 1.042 4.258 2.005 7.591 2.826l7.657 1.849c8.333 2.018 13.919 3.971 16.744 5.885 4.505 2.917 6.758 7.604 6.758 13.932 0 6.146-2.331 11.446-6.979 15.912-4.662 4.479-11.745 6.718-21.276 6.718-10.261 0-17.526-2.343-21.797-7.018-4.271-4.648-6.55-10.403-6.849-17.266z"/><path d="m4033.27 198.296c-5.13 7.343-7.695 16.041-7.695 26.067 0 10.729 2.812 19.349 8.438 25.808 5.612 6.458 12.265 9.674 19.96 9.674 4.753 0 8.972-.924 12.67-2.825 3.697-1.889 6.888-4.935 9.596-9.18v9.557h10.43v-94.883h-11.146v34.818c-2.604-3.177-4.948-5.469-7.005-6.745-3.568-2.213-7.982-3.333-13.281-3.333-9.506 0-16.849 3.672-21.967 11.042zm9.974 5.742c3.633-4.467 8.359-6.706 14.193-6.706 5.234 0 9.635 2.11 13.19 6.302 3.568 4.167 5.352 10.638 5.352 19.349 0 8.633-1.732 15.208-5.183 19.844-3.463 4.622-7.864 6.914-13.229 6.914-6.901 0-11.94-2.487-15.065-7.474-3.125-4.961-4.687-11.146-4.687-18.516 0-8.672 1.81-15.234 5.429-19.713z"/><path d="m4103.49 188.478h11.849v45.755c0 3.529.56 6.406 1.679 8.62 2.058 4.115 5.899 6.198 11.511 6.198 8.073 0 13.567-3.607 16.484-10.833 1.589-3.842 2.396-9.154 2.396-15.912v-33.828h11.575v68.919h-10.937l.117-10.143c-1.497 2.617-3.372 4.831-5.599 6.615-4.414 3.606-9.778 5.416-16.094 5.416-9.831 0-16.51-3.281-20.078-9.87-1.927-3.515-2.903-8.19-2.903-14.088z"/><path d="m4255.05 160.275c11.979 0 21.276 3.151 27.891 9.466 6.601 6.302 10.273 13.477 10.99 21.51h-12.475c-1.419-6.132-4.245-10.937-8.463-14.518-4.232-3.542-10.156-5.312-17.8-5.312-9.323 0-16.835 3.268-22.565 9.804-5.729 6.537-8.607 16.589-8.607 30.091 0 11.094 2.605 20.039 7.761 26.927 5.169 6.901 12.89 10.352 23.138 10.352 9.453 0 16.64-3.633 21.575-10.885 2.631-3.815 4.571-8.842 5.86-15.052h12.5c-1.133 9.948-4.818 18.307-11.094 25.026-7.5 8.138-17.617 12.161-30.378 12.161-10.989 0-20.221-3.307-27.682-9.948-9.831-8.828-14.739-22.383-14.739-40.768 0-13.958 3.698-25.404 11.08-34.31 7.982-9.714 18.985-14.544 33.008-14.544z"/><path d="m4311.61 224.468c-3.997 3.502-5.976 8.463-5.976 14.869 0 5.807 2.018 10.69 6.081 14.57 4.036 3.868 9.284 5.834 15.664 5.834 5.326 0 10.195-1.146 14.622-3.437 4.414-2.266 7.8-4.936 10.156-8.034.391 2.747 1.055 4.882 1.993 6.354 1.809 2.851 4.713 4.27 8.698 4.27 1.627 0 2.916-.052 3.867-.195.95-.13 2.317-.442 4.127-.976v-8.568c-.742.156-1.432.26-2.057.312-.651.079-1.224.092-1.745.092-1.588 0-2.63-.352-3.125-1.107-.495-.716-.742-1.68-.742-2.878v-39.726c0-6.511-2.513-11.315-7.526-14.415-5.078-3.111-11.666-4.635-19.779-4.635-6.992 0-13.138 1.654-18.437 4.987-5.287 3.334-8.06 9.232-8.268 17.748h10.807c.443-3.555 1.367-6.276 2.773-8.061 2.54-3.255 6.836-4.882 12.878-4.882 5.234 0 9.258.885 12.071 2.643 2.799 1.81 4.218 4.688 4.218 8.62 0 1.914-.26 3.411-.781 4.427-.886 1.888-2.669 3.034-5.326 3.333l-18.476 2.344c-6.485.807-11.719 2.969-15.717 6.511zm11.459 4.934c2.109-1.198 5.261-2.07 9.466-2.63l7.005-.911c2.149-.248 4.336-.691 6.576-1.289 2.226-.586 4.049-1.355 5.468-2.266v9.349c0 7.122-3.215 12.24-9.661 15.39-3.815 1.889-7.76 2.852-11.836 2.852-3.346 0-6.25-.963-8.698-2.929-2.448-1.901-3.659-4.545-3.659-7.904 0-4.401 1.771-7.656 5.339-9.662z"/><path d="m4382.14 257.397v-68.919h11.016v9.792c3.255-4.05 6.706-6.941 10.365-8.698 3.645-1.784 7.682-2.643 12.161-2.643 9.779 0 16.393 3.411 19.831 10.247 1.875 3.711 2.826 9.049 2.826 16.002v44.219h-11.784v-43.464c0-4.166-.625-7.551-1.862-10.143-2.058-4.271-5.795-6.458-11.198-6.458-2.748 0-5.013.273-6.758.859-3.19.938-5.964 2.826-8.373 5.651-1.927 2.292-3.19 4.623-3.776 7.071-.573 2.408-.859 5.898-.859 10.403v36.081z"/><path d="m4458.2 224.468c-3.997 3.502-6.002 8.463-6.002 14.869 0 5.807 2.031 10.69 6.093 14.57 4.05 3.868 9.271 5.834 15.678 5.834 5.312 0 10.182-1.146 14.609-3.437 4.414-2.266 7.799-4.936 10.169-8.034.377 2.747 1.055 4.882 1.992 6.354 1.797 2.851 4.714 4.27 8.685 4.27 1.628 0 2.93-.052 3.867-.195.938-.13 2.318-.442 4.128-.976v-8.568c-.729.156-1.432.26-2.071.312-.637.079-1.223.092-1.731.092-1.602 0-2.63-.352-3.138-1.107-.482-.716-.716-1.68-.716-2.878v-39.726c0-6.511-2.526-11.315-7.539-14.415-5.066-3.111-11.654-4.635-19.766-4.635-6.992 0-13.151 1.654-18.437 4.987-5.3 3.334-8.06 9.232-8.282 17.748h10.821c.429-3.555 1.354-6.276 2.76-8.061 2.539-3.255 6.836-4.882 12.878-4.882 5.247 0 9.257.885 12.07 2.643 2.812 1.81 4.206 4.688 4.206 8.62 0 1.914-.248 3.411-.756 4.427-.898 1.888-2.682 3.034-5.338 3.333l-18.477 2.344c-6.484.807-11.731 2.969-15.703 6.511zm11.458 4.934c2.097-1.198 5.248-2.07 9.454-2.63l7.005-.911c2.148-.248 4.349-.691 6.575-1.289 2.227-.586 4.063-1.355 5.482-2.266v9.349c0 7.122-3.229 12.24-9.661 15.39-3.816 1.889-7.774 2.852-11.849 2.852-3.347 0-6.25-.963-8.685-2.929-2.448-1.901-3.685-4.545-3.685-7.904 0-4.401 1.784-7.656 5.364-9.662z"/><path d="m4531.52 198.296c-5.143 7.343-7.708 16.041-7.708 26.067 0 10.729 2.826 19.349 8.438 25.808 5.625 6.458 12.278 9.674 19.948 9.674 4.778 0 8.997-.924 12.682-2.825 3.685-1.889 6.888-4.935 9.596-9.18v9.557h10.43v-94.883h-11.133v34.818c-2.617-3.177-4.948-5.469-7.005-6.745-3.581-2.213-7.995-3.333-13.281-3.333-9.519 0-16.849 3.672-21.967 11.042zm9.974 5.742c3.62-4.467 8.36-6.706 14.18-6.706 5.235 0 9.635 2.11 13.216 6.302 3.542 4.167 5.326 10.638 5.326 19.349 0 8.633-1.732 15.208-5.182 19.844-3.451 4.622-7.852 6.914-13.217 6.914-6.901 0-11.927-2.487-15.065-7.474-3.138-4.961-4.713-11.146-4.713-18.516 0-8.672 1.823-15.234 5.455-19.713z"/><path d="m4604.78 224.468c-3.998 3.502-5.99 8.463-5.99 14.869 0 5.807 2.018 10.69 6.068 14.57 4.075 3.868 9.284 5.834 15.677 5.834 5.325 0 10.208-1.146 14.622-3.437 4.414-2.266 7.8-4.936 10.17-8.034.39 2.747 1.041 4.882 1.992 6.354 1.81 2.851 4.687 4.27 8.698 4.27 1.627 0 2.916-.052 3.854-.195.937-.13 2.317-.442 4.114-.976v-8.568c-.716.156-1.406.26-2.057.312-.638.079-1.224.092-1.731.092-1.602 0-2.631-.352-3.126-1.107-.494-.716-.729-1.68-.729-2.878v-39.726c0-6.511-2.526-11.315-7.539-14.415-5.065-3.111-11.654-4.635-19.752-4.635-7.006 0-13.165 1.654-18.451 4.987-5.299 3.334-8.06 9.232-8.281 17.748h10.82c.417-3.555 1.354-6.276 2.761-8.061 2.526-3.255 6.822-4.882 12.877-4.882 5.234 0 9.258.885 12.07 2.643 2.813 1.81 4.219 4.688 4.219 8.62 0 1.914-.26 3.411-.768 4.427-.912 1.888-2.682 3.034-5.339 3.333l-18.476 2.344c-6.484.807-11.719 2.969-15.703 6.511zm11.445 4.934c2.109-1.198 5.273-2.07 9.466-2.63l7.018-.911c2.149-.248 4.323-.691 6.563-1.289 2.227-.586 4.049-1.355 5.469-2.266v9.349c0 7.122-3.204 12.24-9.649 15.39-3.828 1.889-7.773 2.852-11.849 2.852-3.346 0-6.25-.963-8.685-2.929-2.448-1.901-3.672-4.545-3.672-7.904 0-4.401 1.784-7.656 5.339-9.662z"/><path d="m5715.89 144.025c.261 10.247 0 84.075 0 84.075s-3.88 19.935-18.02 24.115c-4.779 1.393-4.975 4.388 0 4.388h69.271c4.987 0 4.778-2.995 0-4.388-14.141-4.18-18.008-24.115-18.008-24.115v-88.32c0-21.927-16.902-42.748-55.677-42.748-38.789 0-49.063 16.928-50.443 18.868-1.393 1.953-2.487.273-2.487.273s-3.594-14.141-4.427-16.888c-.833-2.76-2.214-2.253-2.214-2.253l-47.643 6.941s-9.727 1.679 0 4.726c0 0 21.328 10.534 21.029 26.602-.17 10.247 0 92.799 0 92.799s-3.868 19.935-17.982 24.115c-4.805 1.393-5.013 4.388 0 4.388h69.258c4.961 0 4.778-2.995 0-4.388-14.154-4.18-18.021-24.115-18.021-24.115v-83.945s4.414-36.55 41.289-36.55c0 0 33.047-.833 34.075 36.42z"/></g><path d="m6104.31 4.259h39.87v79.779h-39.87z" fill="#ed1c24"/><path d="m6223.97 4.259h39.896v79.779h-39.896z" fill="#ed1c24"/><path d="m6184.35 15.066s-.052.118.052.105" fill="#ed1c24"/><path d="m6184.9 13.387c3.555 17.526 10.807 8.307 10.807 8.307l-2.487 14.961c-.847 4.727 3.32 1.12 3.32 1.12l6.107-6.081c-1.38 9.948 10.534 3.867 10.534 3.867-6.653 11.628 1.64 10.782 1.64 10.782l-13.554 11.119c0 .248-2.227 2.747-2.227 2.747l3.607 5.821-16.913-4.154.846 15.769h-2.227-2.213l.833-15.769-15.781 3.594 2.486-5.261s-2.226-2.499-2.226-2.747l-13.568-11.119s8.307-.808 1.107-11.342c0 0 11.901 6.107 11.081-3.307l6.093 6.081s4.154 3.607 3.32-1.12l-2.486-14.961s8.086 8.32 11.354-8.307" fill="#ed1c24"/><path d="m5401.99 1.759 6.094 90.873s-1.641 12.174-7.188-1.12c-5.546-13.307-25.481-88.099-80.911-80.873-55.417 7.201-80.325 52.617-80.325 125.756 0 73.138 31.575 111.367 85.872 111.367s72.591-32.683 82.552-63.711c0 0 3.893-12.761 3.359-.56 0 0-.625 78.711-98.659 77.565-96.445-1.12-121.887-91.419-121.887-125.221 0-33.803 13.294-126.315 130.755-135.73 0 0 32.955.534 57.617 13.868 0 0 7.773 4.427 11.654-1.68 3.867-6.107 4.96-8.321 4.96-8.321s2.787-7.2 6.107-2.213z" fill="#231f20"/><path d="m6053.46 178.53c.065-32.11 3.02-78.932-48.659-73.893-34.48 3.346-48.034 54.14-40.678 89.336 6.082 29.14 19.063 61.797 55.027 56.171 39.778-6.223 34.257-49.388 34.31-71.614zm-3.282 67.148c-35.885 22.175-83.19 17.058-107.877-18.854-26.094-37.994-21.446-89.609 17.552-116.341 28.19-19.349 68.008-21.641 90.13-.69 0 0 3.334 3.607 3.334-1.367v-75.352s-4.714-22.187-26.042-22.187c0 0-5.547-1.927-.547-4.414l52.083-5.547s7.735-.534 7.735 4.7v215.833s4.713 26.576 23.827 26.576c0 0 7.201.56-.26 4.453l-51.263 6.641s-3.88 1.679-3.88-3.333l-1.094-8.321s1.55-5.026-3.698-1.797z" fill="#231f20"/><path d="m5507.81 170.757c-23.855 11.588-56.797 22.656-56.381 53.176.261 20.261 24.779 32.448 43.79 20.066 11.367-7.435 15.052-19.818 15.937-31.967v-38.229s.547-4.453-3.346-3.046zm67.057 72.825s11.64-9.935 4.153 1.432l-4.713 5.547c-17.239 11.901-47.487 8.62-59.557-5.299-2.786-4.141-5.86-.859-5.86-.859-16.067 14.088-38.958 16.835-60.95 10.676-18.438-5.156-32.604-21.107-30.755-40 4.062-40.898 50.312-35.859 79.466-46.744 7.864-2.943 13.398-14.115 13.685-25.56.416-15.157-4.206-39.206-27.722-39.466-20.482-.248-20.703 20.755-31.796 32.474-4.988 5.26-21.264 4.856-25.313-5.521-2.474-6.276-1.901-16.328 7.383-23.516 24.713-19.206 111.575-14.83 111.575 20.573 0 49.154-.365 65.586.026 107.721.105 10.508 7.969 13.763 16.797 13.894 4.662.078 11.224-3.62 15.547-6.459" fill="#231f20"/><path d="m5860.22 170.757c-23.867 11.588-56.809 22.656-56.419 53.176.287 20.261 24.805 32.448 43.841 20.066 11.355-7.435 15.026-19.818 15.911-31.967l-.012-38.229s.547-4.453-3.321-3.046zm67.032 72.825s11.64-9.935 4.14 1.432l-4.674 5.547c-17.253 11.901-47.5 8.62-59.571-5.299-2.786-4.141-5.846-.859-5.846-.859-16.068 14.088-38.984 16.835-60.951 10.676-18.437-5.156-32.63-21.107-30.755-40 4.037-40.898 50.287-35.859 79.454-46.744 7.89-2.943 13.372-14.115 13.684-25.56.378-15.157-4.193-39.206-27.734-39.466-20.482-.248-20.677 20.755-31.771 32.474-4.987 5.26-21.263 4.856-25.338-5.521-2.462-6.276-1.901-16.328 7.408-23.516 24.675-19.206 111.563-14.83 111.563 20.573 0 49.154-.352 65.586.026 107.721.091 10.508 7.969 13.763 16.784 13.894 4.648.078 11.211-3.62 15.56-6.459" fill="#231f20"/><path d="m6206.52 170.757c-23.88 11.588-56.811 22.656-56.407 53.176.273 20.261 24.779 32.448 43.802 20.066 11.367-7.435 15.052-19.818 15.925-31.967l-.014-38.229s.561-4.453-3.306-3.046zm67.031 72.825s11.628-9.935 4.153 1.432l-4.687 5.547c-17.266 11.901-47.513 8.62-59.597-5.299-2.76-4.141-5.846-.859-5.846-.859-16.041 14.088-38.958 16.835-60.925 10.676-18.437-5.156-32.629-21.107-30.755-40 4.037-40.898 50.287-35.859 79.467-46.744 7.864-2.943 13.359-14.115 13.672-25.56.403-15.157-4.206-39.206-27.735-39.466-20.494-.248-20.69 20.755-31.81 32.474-4.987 5.26-21.25 4.856-25.299-5.521-2.474-6.276-1.901-16.328 7.396-23.516 24.7-19.206 111.588-14.83 111.575 20.573 0 49.154-.352 65.586.039 107.721.078 10.508 7.943 13.763 16.771 13.894 4.648.078 11.224-3.62 15.56-6.459" fill="#231f20"/></g></svg>