<svg xmlns="http://www.w3.org/2000/svg" width="256" height="256"><defs><clipPath clipPathUnits="userSpaceOnUse" id="a"><path d="M0 192h192V0H0z"/></clipPath></defs><g stroke-width=".782"><g clip-path="url(#a)" transform="matrix(1.70499 0 0 -1.70499 -31.605 295.089)"><path d="M152.727 60.295C132.173 17.31 66.007 8.863 33.7 59.452L93.6 141.76z" fill="#ffebcd"/></g><path d="M140.238.014c-.501-.093-.985.279-1.094.845-1.01 5.133-5.655 28.8-9.34 47.718-.258 1.326 1.426 1.835 1.82.55l14.35-46.787c.195-.63-.15-1.296-.723-1.401zm-23.49.203l-5.012.926c-.573.108-.919.772-.724 1.399l14.35 46.786c.394 1.288 2.08.78 1.821-.547-3.686-18.916-8.333-42.584-9.34-47.718-.111-.566-.593-.938-1.094-.846zM94.044 5.559a.923.923 0 00-.31.037L87.968 7.34c-.633.19-.873.973-.462 1.498l34.299 43.997c.733.941 2.145-.095 1.506-1.104-10.67-16.84-24.98-39.54-28.512-45.707a.917.917 0 00-.755-.465zm68.808 1.626a.92.92 0 00-.755.462c-3.53 6.169-17.842 28.87-28.511 45.71a.927.927 0 00-.14.632l-.727-.802c-4.598-5.065-6.474-1.626-2.31 3.919 37.29 49.657 87.59 124.234 98.403 135.082-17.815 26.757-46.472 56.346-94.235 58.402-51.588 2.223-83.773-21.26-108.483-57.059 7.896-5.874 60.73-84.446 99.5-136.07 4.163-5.545 2.288-8.984-2.31-3.917L14.438 173.716c.178.85.783 2.27 1.586 3.924-.26-.445-.525-.882-.784-1.33C30.719 218.717 67.149 256 133.142 256c56.167 0 88.7-42.044 101.813-69.659 2.962-4.869 6.139-10.747 6.606-12.98L134.174 54.796c.31.075.655 0 .917-.335l34.298-43.997c.411-.525.17-1.307-.462-1.498l-5.77-1.744a.91.91 0 00-.306-.037zm-32.284 8.831c-.584-.003-1.57.009-3.159.075a.69.69 0 00-.667.72c.201 3.993.507 16.81.71 27.352.017.879 1.309.923 1.386.048l2.415-27.443a.69.69 0 00-.685-.752zm-19.056 4.009l-1.863.3a1.359 1.359 0 00-.981 1.98l12.442 23.275c.384.716 1.466.204 1.154-.545-3.99-9.58-8.758-21.11-10.052-24.606a.634.634 0 00-.7-.404zm34.257.477a.964.964 0 00-1.054.61c-1.112 2.957-4.219 10.52-7.388 18.169-.469 1.13 1.164 1.902 1.74.821l9.544-17.847a.965.965 0 00-.697-1.409zM130.523 96.45c-12.26 16.954-1.043 23.213 1.565 29.213 2.61 5.998-2.87 16.954-6.26 23.737-3.392 6.782-1.305 14.347 5.217 15.13-8.87-5.998-.002-21.912 4.17-31.042 4.176-9.128 1.308-15.65-3.127-20.607-4.434-4.957-3.392-8.606-1.565-16.431zm-2.785 93.682c-12.687 0-22.975 10.549-22.975 23.565 0 13.014 10.288 23.564 22.975 23.564 12.688 0 22.975-10.55 22.975-23.564 0-13.016-10.287-23.565-22.975-23.565z" fill="#a20011"/></g></svg>