<svg xmlns="http://www.w3.org/2000/svg" width="1200" height="628"><defs><clipPath clipPathUnits="userSpaceOnUse" id="a"><path d="M0 192h192V0H0z"/></clipPath></defs><g stroke-width=".905"><g clip-path="url(#a)" transform="matrix(2.5708 0 0 -2.5708 -37.424 565.94)" stroke-width=".519"><path d="M152.727 60.295C132.173 17.31 66.007 8.863 33.7 59.452l59.9 82.308z" fill="#ffebcd"/></g><path d="M221.683 121.021c-.756-.14-1.486.421-1.65 1.275-1.523 7.74-8.527 43.425-14.083 71.95-.389 2 2.15 2.766 2.744.83l21.637-70.547c.294-.95-.226-1.954-1.09-2.113zm-35.419.307l-7.557 1.396c-.864.163-1.386 1.164-1.092 2.11l21.637 70.544c.595 1.942 3.137 1.176 2.746-.825-5.558-28.522-12.564-64.209-14.083-71.95-.167-.853-.894-1.414-1.65-1.275zm-34.233 8.054a1.392 1.392 0 00-.468.056l-8.694 2.63c-.954.286-1.316 1.467-.696 2.258l51.716 66.34c1.105 1.418 3.234-.144 2.27-1.665-16.087-25.392-37.664-59.619-42.99-68.918a1.383 1.383 0 00-1.138-.7zm103.75 2.452a1.387 1.387 0 00-1.14.697c-5.322 9.301-26.901 43.53-42.988 68.922a1.398 1.398 0 00-.211.953l-1.097-1.21c-6.932-7.637-9.761-2.45-3.483 5.91 56.227 74.873 132.07 187.32 148.374 203.678-26.862 40.344-70.071 84.96-142.09 88.06-77.784 3.351-126.313-32.057-163.57-86.035 11.905-8.857 91.568-127.33 150.026-205.168 6.277-8.36 3.45-13.546-3.483-5.906L32 382.93c.268 1.282 1.18 3.423 2.391 5.917-.392-.67-.791-1.33-1.182-2.005C56.55 450.784 111.48 507 210.983 507c84.69 0 133.743-63.394 153.515-105.033 4.466-7.34 9.256-16.204 9.96-19.57L212.54 203.621c.468.113.988 0 1.383-.505l51.715-66.339c.62-.792.256-1.97-.697-2.259l-8.7-2.63a1.372 1.372 0 00-.461-.055zm-48.679 13.315c-.88-.004-2.367.014-4.763.114a1.04 1.04 0 00-1.006 1.085c.303 6.02.765 25.346 1.07 41.242.026 1.325 1.975 1.392 2.09.072l3.642-41.379a1.04 1.04 0 00-1.033-1.134zm-28.733 6.045l-2.809.453a2.05 2.05 0 00-1.479 2.985l18.76 35.094c.58 1.08 2.21.308 1.74-.82-6.016-14.446-13.205-31.83-15.156-37.103a.956.956 0 00-1.056-.609zm51.653.72a1.454 1.454 0 00-1.589.92c-1.677 4.458-6.361 15.861-11.14 27.395-.707 1.704 1.756 2.868 2.624 1.238l14.39-26.91a1.455 1.455 0 00-1.05-2.125zM207.034 266.43c-18.485 25.563-1.572 35 2.36 44.047 3.935 9.044-4.327 25.564-9.439 35.791-5.114 10.226-1.968 21.633 7.866 22.814-13.374-9.044-.003-33.04 6.288-46.806 6.297-13.763 1.972-23.597-4.715-31.07-6.686-7.476-5.115-12.978-2.36-24.776zm-4.199 141.254c-19.13 0-34.642 15.906-34.642 35.532 0 19.623 15.512 35.53 34.642 35.53 19.131 0 34.642-15.907 34.642-35.53 0-19.626-15.51-35.532-34.642-35.532z" fill="#a20011"/></g><g stroke-width=".92" font-family="'Open Sans'"><text style="line-height:1.25;-inkscape-font-specification:'Open Sans, Bold';font-variant-ligatures:normal;font-variant-caps:normal;font-variant-numeric:normal;font-variant-east-asian:normal" x="409.416" y="164.69" font-weight="700" font-size="140.151" fill="#a20011" transform="translate(32 129.846) scale(1.08661)"><tspan x="409.416" y="164.69">itwêwina</tspan></text><text style="line-height:1.25;-inkscape-font-specification:'Open Sans, Normal';font-variant-ligatures:normal;font-variant-caps:normal;font-variant-numeric:normal;font-variant-east-asian:normal" x="413.386" y="268.041" font-weight="400" font-size="62.049" transform="translate(32 129.846) scale(1.08661)"><tspan x="413.386" y="268.041">Plains Cree Dictionary</tspan></text></g></svg>