<svg xmlns="http://www.w3.org/2000/svg" viewBox="0 0 33.867 33.867" height="128" width="128">
    <path fill="#fff" d="M0 0h33.867v33.867H0z"/>
    <path d="M0 0v33.867h16.933v-3.53H14.8V16.015h-2.266v-3.39h4.4v-2.067h-.001c-.662 0-1.23-.232-1.703-.695a2.352 2.352 0 01-.695-1.703c0-.662.232-1.224.695-1.687a2.324 2.324 0 011.703-.711h.001V0H0zm16.933 5.763v4.796c.661 0 1.223-.232 1.686-.695a2.324 2.324 0 00.71-1.703 2.27 2.27 0 00-.71-1.687 2.27 2.27 0 00-1.686-.711zm0 6.863v17.71h2.05v-17.71h-2.05z"
          fill="#0091ff"/>
</svg>