<svg xmlns="http://www.w3.org/2000/svg" height="256" width="256"><defs><clipPath id="a" clipPathUnits="userSpaceOnUse"><path d="M0 192h192V0H0z"/></clipPath><clipPath id="b" clipPathUnits="userSpaceOnUse"><path d="M0 192h192V0H0z"/></clipPath></defs><g clip-path="url(#a)" transform="matrix(1.70499 0 0 -1.70499 -31.606 295.09)"><path d="M152.727 60.295C132.173 17.31 66.007 8.863 33.7 59.452l59.9 82.308z" fill="#ffebcd"/></g><g clip-path="url(#b)" transform="matrix(1.70499 0 0 -1.70499 -31.606 295.09)" fill="#008b8b"><path d="M90.86 142.733c-6.258 9.877-14.651 23.19-16.723 26.808a.537.537 0 01-.623.25l-3.383-1.022a.56.56 0 01-.271-.88l20.117-25.803c.43-.552 1.258.055.883.647M33.7 59.452c4.168 2.658 35.545 49.356 58.499 79.921 2.442 3.252 1.342 5.27-1.355 2.297L27.006 71.187c.459-2.192 5.382-10.417 6.694-11.735m59.432 85.011c-2.162 11.095-4.887 24.977-5.478 27.988-.065.332-.348.55-.642.496l-2.94-.543c-.336-.063-.54-.453-.425-.821l8.417-27.441c.23-.755 1.22-.457 1.068.32m-2.885 2.198c-2.34 5.619-5.137 12.382-5.896 14.432a.372.372 0 01-.41.237l-1.094-.176a.796.796 0 01-.575-1.161l7.298-13.651c.225-.42.86-.12.677.319m8.834 3.376c1.86 4.486 3.68 8.92 4.332 10.656.095.25.354.4.62.358l1.257-.203a.566.566 0 00.41-.826l-5.598-10.468c-.338-.634-1.296-.18-1.02.483m-5.794-2.864c-.119 6.183-.297 13.7-.415 16.042a.405.405 0 00.39.423c.932.039 1.51.046 1.853.044a.405.405 0 00.402-.441l-1.417-16.096c-.045-.513-.803-.487-.813.028m3.598-5.392c6.258 9.876 14.651 23.19 16.722 26.808.127.22.384.322.623.25l3.384-1.023a.56.56 0 00.271-.879L97.77 141.132c-.43-.552-1.258.055-.883.647"/><path d="M153.523 59.66c-4.169 2.657-35.546 49.355-58.5 79.921-2.442 3.252-1.342 5.268 1.355 2.297l63.838-70.483c-.459-2.193-5.38-10.417-6.693-11.736m-58.855 84.924c2.162 11.095 4.887 24.977 5.479 27.988.064.332.347.55.641.495l2.94-.543c.336-.062.539-.452.425-.821l-8.417-27.441c-.231-.754-1.219-.456-1.068.322m12.264-96.846c0-7.633-6.033-13.82-13.475-13.82-7.441 0-13.474 6.187-13.474 13.82 0 7.634 6.033 13.821 13.474 13.821 7.442 0 13.475-6.187 13.475-13.82"/><path d="M27.476 69.665c15.35-26.541 35.11-45.069 69.992-43.566 34.882 1.502 52.4 28.043 61.885 45.236-4.438-14.356-24.02-48.408-62.726-48.408S36.554 44.794 27.476 69.665m67.614 46.84c-1.07-4.59-1.683-6.73.918-9.638 2.601-2.907 4.284-6.732 1.835-12.086-2.447-5.355-7.649-14.688-2.447-18.206-3.825.46-5.049 4.895-3.06 8.873 1.99 3.978 5.202 10.404 3.672 13.922-1.53 3.52-8.108 7.191-.918 17.135"/></g></svg>