<?xml version="1.0" encoding="UTF-8" standalone="no"?>
<svg
   xmlns:dc="http://purl.org/dc/elements/1.1/"
   xmlns:cc="http://creativecommons.org/ns#"
   xmlns:rdf="http://www.w3.org/1999/02/22-rdf-syntax-ns#"
   xmlns:svg="http://www.w3.org/2000/svg"
   xmlns="http://www.w3.org/2000/svg"
   xmlns:sodipodi="http://sodipodi.sourceforge.net/DTD/sodipodi-0.dtd"
   xmlns:inkscape="http://www.inkscape.org/namespaces/inkscape"
   version="1.1"
   id="svg10"
   xml:space="preserve"
   width="256"
   height="256"
   viewBox="0 0 256 256"
   sodipodi:docname="itwewina-logo.svg"
   inkscape:version="1.0.1 (c497b03c, 2020-09-10)"><metadata
     id="metadata16"><rdf:RDF><cc:Work
         rdf:about=""><dc:format>image/svg+xml</dc:format><dc:type
           rdf:resource="http://purl.org/dc/dcmitype/StillImage" /><dc:title></dc:title></cc:Work></rdf:RDF></metadata><defs
     id="defs14"><clipPath
       clipPathUnits="userSpaceOnUse"
       id="clipPath26"><path
         d="M 0,192 H 192 V 0 H 0 Z"
         id="path24" /></clipPath><clipPath
       clipPathUnits="userSpaceOnUse"
       id="clipPath38"><path
         d="M 0,192 H 192 V 0 H 0 Z"
         id="path36" /></clipPath></defs><sodipodi:namedview
     pagecolor="#ffffff"
     bordercolor="#666666"
     borderopacity="1"
     objecttolerance="10"
     gridtolerance="10"
     guidetolerance="10"
     inkscape:pageopacity="0"
     inkscape:pageshadow="2"
     inkscape:window-width="1242"
     inkscape:window-height="800"
     id="namedview12"
     showgrid="false"
     inkscape:zoom="2.1054092"
     inkscape:cx="140.15091"
     inkscape:cy="148.70831"
     inkscape:window-x="1443"
     inkscape:window-y="57"
     inkscape:window-maximized="0"
     inkscape:current-layer="g18" /><g
     id="g18"
     inkscape:groupmode="layer"
     inkscape:label="itwêwina_192x192_warm4"
     transform="matrix(1.3333333,0,0,-1.3333333,0,256)"><g
       id="g20"><g
         id="g22"
         clip-path="url(#clipPath26)"><g
           id="g28"
           transform="translate(152.7275,60.2949)"><path
             d="m 0,0 c -20.554,-42.984 -86.72,-51.432 -119.028,-0.843 l 59.901,82.308 z"
             style="fill:#ffebcd;fill-opacity:1;fill-rule:nonzero;stroke:none"
             id="path30" /></g></g></g><path
       id="path42"
       style="fill:#a20011;fill-opacity:1;fill-rule:nonzero;stroke:none;stroke-width:1.33333"
       d="M 134.38477 25.246094 C 133.99277 25.17276 133.61463 25.463583 133.5293 25.90625 C 132.73996 29.920917 129.10728 48.429323 126.22461 63.222656 C 126.02328 64.25999 127.34044 64.657677 127.64844 63.652344 L 138.87109 27.064453 C 139.02309 26.572453 138.75269 26.051417 138.30469 25.96875 L 134.38477 25.246094 z M 116.01562 25.404297 L 112.0957 26.128906 C 111.6477 26.212906 111.3773 26.73199 111.5293 27.222656 L 122.75195 63.810547 C 123.05995 64.817214 124.37845 64.420147 124.17578 63.382812 C 121.29311 48.58948 117.65909 30.081073 116.87109 26.066406 C 116.78443 25.62374 116.40763 25.332297 116.01562 25.404297 z M 98.259766 29.582031 C 98.180016 29.578177 98.097578 29.587328 98.017578 29.611328 L 93.507812 30.974609 C 93.013146 31.123943 92.825151 31.735818 93.146484 32.146484 L 119.96875 66.552734 C 120.54208 67.288734 121.64648 66.478786 121.14648 65.689453 C 112.80248 52.52012 101.61228 34.76798 98.849609 29.945312 C 98.723609 29.724313 98.499016 29.593594 98.259766 29.582031 z M 152.06836 30.853516 C 151.82961 30.865016 151.60552 30.994844 151.47852 31.214844 C 148.71718 36.038844 137.52564 53.791603 129.18164 66.960938 C 129.07412 67.130681 129.05266 67.299052 129.07227 67.455078 L 128.50391 66.828125 C 124.90791 62.866792 123.44127 65.556578 126.69727 69.892578 C 155.85954 108.72564 195.19477 167.04609 203.65039 175.5293 C 189.7191 196.45376 167.30842 219.59284 129.95703 221.20117 C 89.61454 222.9395 64.444832 204.57526 45.121094 176.58008 C 51.29573 171.98614 92.613088 110.54139 122.93164 70.169922 C 126.18764 65.833922 124.721 63.144755 121.125 67.107422 L 36.007812 161.08398 C 36.146939 161.74839 36.620223 162.85922 37.248047 164.15234 C 37.044496 163.80451 36.837152 163.46322 36.634766 163.11328 C 48.738765 196.27461 77.227936 225.43164 128.83594 225.43164 C 172.75895 225.43164 198.20063 192.55207 208.45508 170.95703 C 210.7719 167.14931 213.25572 162.5523 213.62109 160.80664 L 129.64258 68.085938 C 129.88499 68.145181 130.15514 68.086392 130.35938 67.824219 L 157.18164 33.417969 C 157.50297 33.007302 157.31365 32.395427 156.82031 32.246094 L 152.30859 30.882812 C 152.22893 30.858813 152.14794 30.849682 152.06836 30.853516 z M 126.82227 37.759766 C 126.36493 37.757099 125.59423 37.766359 124.35156 37.818359 C 124.05156 37.830359 123.81541 38.080859 123.83008 38.380859 C 123.98741 41.503526 124.2261 51.527485 124.38477 59.771484 C 124.3981 60.458151 125.40875 60.492594 125.46875 59.808594 C 126.19942 51.509927 127.13342 40.90099 127.35742 38.347656 C 127.38542 38.031656 127.1396 37.762432 126.82227 37.759766 z M 111.91992 40.894531 L 110.46289 41.128906 C 109.74422 41.244906 109.35131 42.036401 109.69531 42.677734 L 119.42578 60.878906 C 119.72578 61.438906 120.57213 61.038458 120.32812 60.453125 C 117.20813 52.961125 113.4788 43.944271 112.4668 41.210938 C 112.38413 40.98827 112.15592 40.855865 111.91992 40.894531 z M 138.70898 41.267578 C 138.35565 41.211578 138.01143 41.409474 137.88477 41.744141 C 137.01543 44.057474 134.58609 49.971792 132.10742 55.953125 C 131.74076 56.837125 133.01808 57.441036 133.46875 56.595703 L 140.93164 42.638672 C 141.17564 42.181339 140.89872 41.619776 140.38672 41.537109 L 138.70898 41.267578 z M 126.78711 100.66016 C 117.20044 113.91882 125.97172 118.81386 128.01172 123.50586 C 130.05172 128.19653 125.76723 136.76436 123.11523 142.06836 C 120.46323 147.37236 122.09531 153.28839 127.19531 153.90039 C 120.25931 149.20972 127.19436 136.765 130.45703 129.625 C 133.72236 122.48633 131.47972 117.38577 128.01172 113.50977 C 124.54372 109.63377 125.35911 106.78016 126.78711 100.66016 z M 124.60938 173.92188 C 114.68803 173.92187 106.64258 182.17094 106.64258 192.34961 C 106.64258 202.52694 114.68803 210.77734 124.60938 210.77734 C 134.53204 210.77734 142.57617 202.52694 142.57617 192.34961 C 142.57617 182.17094 134.53204 173.92188 124.60938 173.92188 z "
       transform="matrix(0.75000002,0,0,-0.75000002,0,192)" /></g></svg>
