<svg xmlns="http://www.w3.org/2000/svg" xmlns:xlink="http://www.w3.org/1999/xlink" width="1346" height="1024">
    <defs>
        <linearGradient id="a">
            <stop offset="0" stop-color="#2e510e"/>
            <stop offset=".33" stop-color="#3c681a"/>
            <stop offset=".66" stop-color="#5393ad"/>
            <stop offset="1" stop-color="#365f6f"/>
        </linearGradient>
        <linearGradient x1="217.766" y1="243.306" x2="1408" y2="243.306" id="b" xlink:href="#a"
                        gradientUnits="userSpaceOnUse"/>
    </defs>
    <path d="M1041.973 0l-29.911 47.306 2.309-41.119c-3.661-2.47-31.489 15.49-33.614 14.61-1.878-2.168-27.23-17.682-33.833-17.878-5.903-1.303-11.258-1.973-18.01-1.973-22.213 0-43.961 10.483-58.861 25.297v.004a91.594 91.594 0 00-16.08 21.556L796.418 66.99c-1.177-.075-1.967-.192-3.43-.236h-.005l-1.001-.031c-3.591-2.117-6.056-3.084-8.039-3.798-4.369-1.574-7.126-2.13-10.04-2.713-5.829-1.167-11.666-1.896-18.472-2.529l.002.002a139.17 139.17 0 00-11.117-.57c-25.778-.333-50.118 2.645-74.621 15.096v.001c-15.726 7.992-33.572 20.19-50.756 33.309 1.402-2.71-20.185 17.392-36.894 20.918l6.546-66.965-43.807 61.114-5.677-52.29-25.932-18.313 4.534 66.934-24.653-40.228-12.905 4.8 9.008 45.636c-8.249-.82-75.85-8.671-87.822-10.099l-18.065-30.055-19.969 25.5s-26.756-5.096-27.22-5.178c-1.09-.05-19.314-3.683-13.512-2.442l-.027-.005c-1.67-.352-3.6-.615-5.704-.8-39.321-5.135-48.581-4.736-74.499-3.838-46.089 5.265-89.278 28.488-117.22 50.642-40.09 32.24-69.394 66.81-93.91 110.961-11.04 19.882-20.551 42.385-25.511 63.599l.002-.002c-7.08 30.275-6.803 66.612-3.31 97.092v.002c1.903 16.589 5.268 33.096 10.182 47.951 5.243 15.849 13.24 30.034 24.976 50.314 11.737 20.281 28.375 44.637 46.11 71.608l15.19 23.006H2.445v398.66h163.862l.33-61.813c1.575 1.984 3.903 4.387 10.728 8.173 11.854 6.58 18.172 6.238 24.9 6.325 6.73.087 12.943.028 23.323-4.702 6.67-3.04 10.927-6.585 13.982-9.845l.17 61.863h471.35l-.08-13.063c5.575 2.158 11.14 4.226 16.298 5.906 23.2 7.559 46.544 12.683 69.882 15.24l2.267.248h.614c26.054 2.506 57.933.994 84.041-3.512 43.403-7.49 81.703-27.64 105.495-61.073 2.804-3.94 5.287-8.027 7.54-12.209 13.235 16.508 28.833 31.006 46.575 42.941 25.57 17.203 54.288 28.437 84.645 33.04 24.076 3.652 46.46 3.267 70.57-1.589 34.987-7.048 68.005-22.904 95.311-45.816 12.6-10.473 21.899-21.1 32.344-33.874l19.295-24.98-121.605-105.336-17.954 19.001s-24.15 28.044-47.24 27.57c-22.65-.463-38.313-18.397-38.751-38.705-.414-19.22 14.305-41.87 38.804-42.667 13.88-.452 23.602-.923 34.316 4.988l18.03 17.493L1326.7 690.832c-21.388-26.09-46.198-46.567-74.029-60.819-17.473-7.973-35.863-14.813-51.952-18.317-16.52-2.101-28.745-2.406-43.368-1.287 10.29-8.03 36.208-21.581 43.361-33.522l.009-.008.008-.007a71.446 71.446 0 004.368-8.457c1.335-3.055 4.302-.369 4.302-19.269 0-13.737-1.457-11.037-1.828-12.264-.37-1.226-.582-1.804-.773-2.338a77.447 77.447 0 00-.957-2.537 327.4 327.4 0 00-2.197-5.413 1871.336 1871.336 0 00-7.2-17.075c-5.995-14.07-14.205-33.1-23.24-53.833-25.96-59.574-29.056-66.657-43.978-100.894 5.697-1.251 10.406-2.24 16.713-3.664 64.522-14.574 104.832-24.788 135.69-49.306v-.004c18.324-14.562 31.055-36.565 38.939-60.913.794-2.455 1.67-4.97 2.268-6.586.053-.14.047-.12.096-.246-.33.664-.684 1.377-2.239 3.798 1.023-1.59 1.558-2.626 2.257-3.849.212-.558.431-1.12.43-1.118 0 0 .257-.218.118.187 3.518-6.378 3.03-8.133 3.723-10.806.85-3.27 1.445-6.237 2.002-9.38 1.114-6.289 1.986-12.989 2.45-19.941v-.007c.26-3.922 1.358-6.09-.28-16.334-1.637-10.244-13.257-25.596-15.392-27.469v-.003c-15.427-13.53-16.549-9.571-21.233-10.99-4.685-1.42-9.374-2.553-14.523-3.66a340.297 340.297 0 00-33.67-5.452c-1.256-.138-12.975-1.976-20.166-3.42v-.001c-9.72-1.95-23.194-4.217-33.02-5.56-2.118-.288-4.709-.847-7.3-1.357-.747-.955-1.103-1.36-1.99-2.536v-.001c-15.018-19.886-37.943-34.668-67.207-45.518v-.002c-12.242-4.537-60.385-13.593-71.954-16.287z"
          fill="#fff"/>
    <path d="M801.735 980.607c-20.336-2.228-40.847-6.707-61.491-13.434-13.137-4.279-37.777-14.435-39.72-16.373-.946-.942-.28-2.64 3.824-9.754 5.494-9.521 33.303-56.198 33.747-56.641.153-.154 5.53 2.24 11.947 5.32 23.946 11.494 45.389 18.012 67.645 20.561 5.392.616 15.84.872 26.104.637 14.834-.34 17.86-.65 22.718-2.34 11.803-4.105 17.38-10.553 18.123-20.957.561-7.842-1.638-12.648-7.947-17.362-9.597-7.172-19.105-10.736-40.578-15.21-67.01-13.968-90.851-22.63-108.96-39.586-18.638-17.455-26.037-37.875-24.784-68.376.606-14.744 3.325-25.448 9.728-38.286 2.624-5.265 5.661-10.636 6.748-11.935l1.975-2.362 10.007 1.008c13.999 1.41 71.377 1.389 86.579-.03 44.954-4.194 79.322-13.417 102.529-27.512l6.81-4.137 4.5 1.91c9.717 4.121 26.688 13.331 26.688 14.483 0 .666-4.63 9.13-10.289 18.81-5.66 9.678-13.94 23.96-18.397 31.737-4.459 7.776-8.588 14.14-9.18 14.14-.59 0-4.156-1.414-7.924-3.142-21.22-9.722-44.56-17.507-59.931-19.987-13.198-2.132-36.957-2.17-44.783-.072-14.018 3.755-21.6 13.87-19.57 26.1 2.066 12.432 12.519 17.734 51.736 26.244 62.268 13.51 90.005 24.817 109.669 44.704 10.783 10.906 17.597 24.81 19.882 40.575 4.271 29.472-.571 55.968-13.567 74.232-16.51 23.2-42.773 37.953-78.567 44.13-21.155 3.651-56.113 4.999-75.267 2.903zm332.892-.341c-24.468-3.71-46.877-12.464-67.592-26.4-27.76-18.676-48.586-44.143-62.003-75.816-12.379-29.224-15.51-64.492-8.684-97.813 6.284-30.676 24.133-62.528 47.84-85.371 51.426-49.551 126.505-60.665 190.466-28.19 14.385 7.301 37.315 23.053 37.372 25.668.021 1.003-59.226 53.356-61.83 54.637-1.122.55-2.95-.102-6.77-2.424-7.565-4.596-15.475-8.01-23.757-10.255-10.315-2.799-30.167-2.835-40.32-.077-25.221 6.853-45.15 24.912-55.205 50.025-4.205 10.5-5.542 17.981-5.571 31.148-.032 14.953 1.969 23.636 8.523 36.981 10.811 22.012 29.695 37.938 52.254 44.068 9.965 2.707 29.179 2.71 39.156 0 14.601-3.959 27.901-11.821 39.487-23.337 4.009-3.987 7.585-7.248 7.947-7.248 1.169 0 63.935 51.349 64.196 52.518.356 1.593-13.234 15.802-22.736 23.775-21.67 18.183-48.887 31.263-76.712 36.868-12.4 2.497-43.267 3.179-56.06 1.238zM44.491 814.755l.22-157.287 38.81-.226c38.153-.223 38.85-.196 41.11 1.582 1.264.994 19.003 29.68 39.423 63.746 20.418 34.066 37.552 62.22 38.074 62.564.522.342 1.577-.05 2.35-.87.767-.823 13.845-22.248 29.06-47.613 15.215-25.365 28.29-46.763 29.055-47.553 1.24-1.277 2.44-1.331 10.964-.507 11.766 1.14 69.382 1.192 79.87.07 4.205-.45 7.826-.634 8.05-.417.217.222.4 64.164.4 142.1V972.04l-40.245-.226-40.244-.226-.223-80.334c-.206-74.667-.325-80.315-1.682-80.054-.818.159-5.496 6.966-10.655 15.509-53.85 89.172-58.265 96.264-60.562 97.31-2.889 1.317-8.141 1.248-10.638-.139-1.876-1.04-9.352-13.043-47.197-75.769-19.743-32.726-22.85-37.559-23.942-37.282-.552.14-1.013 28.806-1.293 80.488l-.435 80.27-40.248.227-40.245.226.219-157.287zm373.946 9.92V677.32l7.179-2.363c8.915-2.934 21.74-8.959 29.92-14.056l6.21-3.869h123.812l6.283 4.695c15.132 11.308 36.685 19.012 72.194 25.797l5.003.958v41.642h-83.803c-65.668 0-84.123.235-85.289 1.088-1.347.986-1.464 3.213-1.253 23.711l.232 22.624 80.053.435 80.053.435v73.092l-80.053.435-80.053.435v46.117l84.84.436 84.838.435.226 36.328.228 36.328h-250.62zM117.094 569.43C82.3 516.513 57.79 474.158 52.225 457.336c-3.634-10.987-6.76-25.829-8.34-39.592-2.64-23.038-1.34-66.473 2.484-82.824 3.266-13.969 12.604-37.072 21.356-52.833 22.36-40.267 46.772-69.098 83.568-98.69 28.223-22.696 56.7-36.747 82.478-40.692 10.161-1.556 10.085-1.642 7.46 8.264l-2.195 8.288 20.851 57.673c11.468 31.722 21.37 59.144 22.006 60.936 1.05 2.974.974 3.629-.868 7.396-2.17 4.443-77.373 160.446-120.703 250.386-15.476 32.126-26.95 54.936-27.717 55.1-.877.188-5.986-6.833-15.51-21.318zM661.49 433.218c-.465-.614-10.085-21.87-21.376-47.234a102371.1 102371.1 0 00-52.043-116.599c-17.33-38.765-31.915-71.502-32.41-72.75-.762-1.92-.188-4.064 3.731-13.923 2.548-6.409 4.969-12.092 5.38-12.63.41-.537 3.162-1.25 6.112-1.584 2.95-.334 11.334-2.32 18.63-4.414 22.008-6.317 41.184-14.938 52.271-23.5 16.208-12.517 35.734-25.501 46.829-31.139 14.531-7.384 43.167-12.013 62.947-10.174 11.636 1.082 19.435 2.644 19.881 3.982.171.508-3.761 4.283-8.736 8.388l-9.044 7.464-.53 5.53c-.29 3.041-.97 14.732-1.509 25.978-.873 18.265-1.524 23.056-2.936 21.643-.238-.236-3.728-8.223-7.757-17.749-4.029-9.526-7.687-17.44-8.13-17.588-.442-.146-4.986 9.448-10.095 21.321l-9.29 21.588 14.381 45.864 14.384 45.865-10.14 21.105a25795.187 25795.187 0 01-21.49 44.6 49957.058 49957.058 0 00-28.924 59.999c-9.663 20.078-17.957 36.635-18.43 36.792-.473.157-1.242-.216-1.708-.83zm-269.04-13.879c-1.73-4.02-25.073-56.298-47.53-106.447-7.5-16.75-13.645-31.238-13.654-32.195-.018-1.807 51.857-121.185 53.296-122.648.513-.524 5.369-.265 13.209.704 43.863 5.428 60.105 7.122 84.017 8.763 11.46.786 16.242 1.437 17.043 2.318.613.674 2.608 6.187 4.434 12.251l3.318 11.028-8.098 16.818c-20.565 42.7-69.275 143.784-76.452 158.65a21507.19 21507.19 0 00-16.935 35.185c-4.925 10.26-9.42 18.808-9.99 18.999-.57.19-1.766-1.351-2.66-3.426zm452.911-25.306c-.665-1.555-9.53-21.427-19.703-44.16-31.798-71.067-33.93-75.948-33.93-77.693 0-1.47 17.043-42.875 42.3-102.764 4.014-9.517 7.298-18.156 7.298-19.197 0-1.04-1.175-5.369-2.61-9.615-4.013-11.872-3.542-12.982 3.364-7.92 7.837 5.745 15.231 6.101 28.172 1.357 3.95-1.45 11.884-3.809 17.627-5.245 5.743-1.436 10.998-2.806 11.677-3.045.905-.317.402-1.3-1.873-3.667-17.142-17.827-16.307-48.197 1.818-66.222 8.774-8.723 18.67-13.149 29.414-13.149 6.025 0 13.356 1.619 13.913 3.072.246.638-.565 4.475-1.801 8.524-1.234 4.05-2.24 8.286-2.234 9.414.009 1.127 5.488 21.005 12.182 44.177 6.694 23.169 12.171 42.785 12.171 43.592 0 .806-2.497 6.713-5.55 13.127-3.052 6.413-14.37 30.455-25.15 53.427-10.781 22.972-27.52 58.604-37.2 79.183a81402.774 81402.774 0 00-27.397 58.3c-18.082 38.546-19.456 41.33-20.367 41.33-.5 0-1.454-1.272-2.118-2.827zm236.578-77.443c-1.132-2.512-13.297-30.411-27.032-61.997-13.735-31.587-28.38-65.261-32.544-74.833-4.165-9.571-8.457-19.56-9.539-22.195l-1.966-4.793L1021 124.935c5.577-15.311 10.656-28.367 11.286-29.014.94-.97 2.798-.999 10.594-.162 22.559 2.419 37.743 6.01 59.486 14.07 26.732 9.91 37.238 16.755 48.395 31.528 10.54 13.959 11.607 15.004 16.941 16.602 2.59.777 11.604 2.354 20.03 3.504 8.43 1.151 22.135 3.459 30.456 5.129 8.324 1.67 19.049 3.463 23.835 3.988 19.747 2.161 43.287 7.222 46.436 9.984 1.964 1.722 2.036 2.17 1.54 9.637-.668 10.036-2.919 22.734-4.452 25.12-.655 1.02-2.777 6.75-4.714 12.731-6.63 20.478-13.633 31.897-25.187 41.08-16.933 13.454-56.363 27.14-118.91 41.267-26.272 5.935-49.163 10.759-51.053 10.759-1.194 0-2.289-1.337-3.747-4.569zM318.702 204.163c-.893-2.324-7.914-56.58-7.477-57.764.279-.75 1.236-.994 2.7-.685 1.25.264 7.95 1.483 14.889 2.71 16.709 2.949 16.532 2.904 16.532 4.324 0 1.511-24.895 52.682-25.635 52.682-.287 0-.742-.57-1.01-1.267zm470.007-28.4c-.281-1.151-.402-16.776-.27-34.724l.244-32.63 3.045.091c4.64.14 26.449 9.135 26.82 11.062.296 1.544-25.943 54.683-28.182 57.071-.974 1.04-1.224.907-1.657-.87zm-516.827-26.115c-1.773-3.88-3.015-7.6-2.758-8.266.508-1.326 3.774-1.605 5.555-.476 1.394.884 2.626 15.796 1.305 15.796-.482 0-2.329-3.175-4.102-7.054z"
          fill="#39646d"/>
    <path overflow="visible"
          d="M593.826 530.128c-9.885 0-10.062.264-10.062 11.856v8.892h6.091v-6.552c0-6.138.136-6.605 2.176-7.534 1.627-.741 2.723-.741 4.35 0 2.04.931 2.176 1.396 2.176 7.533v6.553h6.09v-8.893c0-11.531-.584-11.855-10.822-11.855zm203.123 0c-9.955 0-10.442.612-10.442 11.856v8.892h6.091v-6.552c0-6.138.136-6.605 2.176-7.534 1.627-.741 2.723-.741 4.35 0 2.04.931 2.176 1.396 2.176 7.533v6.553h6.09v-8.893c0-11.242-.487-11.855-10.441-11.855zm-270.153.137v57.899h36.792v-9.444h-25.941v-48.456zm102.351 0v45.49c1.346 4.532 5.282 8.8 9.871 11.178 1.494.774 4.806 1.355 7.75 1.359 15.468.016 23.262-17.499 13.08-29.393-4.114-4.807-9.008-7.183-15.8-5.848l-5.734 1.114-.165-23.9zm66.159 0c-5.75 0-10.416 4.664-10.416 10.414 0 5.751 4.666 10.415 10.416 10.415 5.749 0 10.414-4.664 10.414-10.415 0-5.748-4.664-10.412-10.414-10.412zm51.918.054c-4.823-.013-8.395.724-10.668 1.904-6.35 3.295-6.296 6.545-6.296 16.532v39.409h9.25v-43.269c.388-3.147 4.951-4.376 8.057-4.298 8.52.217 8.154 1.849 8.363 8.566v5.889h9.694v-7.247c0-9.236-1.31-12.417-6.335-15.256-2.83-1.599-7.135-2.216-12.065-2.23zm-100.267 32.739c6.652 0 9.957 8.699 5.14 13.513-3.284 3.288-9.345 2.663-12.4-1.276-.582-.753-1.07-2.79-1.087-4.543-.035-4.115 3.846-7.694 8.35-7.694z"
          color="#000"/>
    <path transform="translate(-57.53 152.036) scale(.87014)"
          d="M903 608.337c-49.35-3.586-93.836-11.19-120.016-20.514-11.05-3.936-24.246-11.16-30.39-16.636-2.977-2.652-7.523-8.027-10.104-11.944-3.79-5.755-4.58-7.687-4.104-10.06l.588-2.94-17.237.81c-25.84 1.213-67.823.697-89.227-1.098-27.903-2.34-25.728-2.64-29.52 4.078-12.614 22.352-45.156 38.326-95.39 46.826-53.733 9.09-127.524 7.714-195.1-3.64-51.336-8.625-76.78-20.265-90.28-41.3l-4.454-6.944 1.984-4.558c1.092-2.507 32.914-68.683 70.717-147.058C404.3 157.357 408.19 149.196 407.702 147.5c-.26-.9-11.578-32.238-25.153-69.638-13.577-37.4-24.693-69.35-24.704-71-.025-3.94 1.873-8.76 3.267-8.295.607.202 10.47 21.276 21.916 46.83 11.446 25.556 21.27 47.14 21.832 47.965 1.63 2.4 1.444-1.778-2.518-56.276-2.514-34.564-3.366-51.103-2.67-51.798 1.358-1.36 6.1.79 6.832 3.096.508 1.6 8.094 58.093 14.097 104.978 1.444 11.275 3.012 20.917 3.486 21.426.5.536 7.215-12.098 15.95-30 8.3-17.01 25.04-51.306 37.2-76.216 16.116-33.018 22.52-45.21 23.634-44.995.84.162 2.183 2.4 2.982 4.974l1.453 4.68-38.147 87.255-38.145 87.253 7.34 16.563c4.038 9.11 19.398 43.563 34.135 76.563 14.736 33 31.566 70.717 37.4 83.815 5.832 13.098 11.046 23.835 11.585 23.86.54.025 7.668-13.84 15.843-30.814 42.63-88.513 57.533-119.432 92.087-191.068L665.13 48.45 649.064-3.546c-8.837-28.597-16.06-53.03-16.052-54.293.02-2.95 1.42-5.153 2.95-4.642.66.22 8.17 16.587 16.692 36.37 8.52 19.786 15.91 36.402 16.418 36.924 1.336 1.372 1.198-3.43-1.577-54.91-1.543-28.63-2.124-46.314-1.54-46.9 1.25-1.248 5.862 1.807 7.038 4.663.497 1.208 1.624 10.522 2.504 20.697 3.48 40.236 7.264 78.097 7.866 78.7.35.348.807.446 1.018.217.21-.23 9.93-18.754 21.594-41.167 12.653-24.31 21.776-40.75 22.616-40.75 1.015 0 1.407 1.346 1.407 4.837 0 3.97-3.855 14.452-21.5 58.465C696.675 24.162 687 48.698 687 49.19c0 .495 17.363 39.772 38.585 87.285a109449.847 109449.847 0 0169.026 154.887c16.744 37.675 30.86 69.17 31.375 69.992.666 1.066 1.24 1.184 2.01.414.593-.593 6.394-12.064 12.89-25.492 6.498-13.427 17.69-36.564 24.87-51.414 7.18-14.85 24.167-49.95 37.75-78 13.58-28.05 26.52-54.954 28.753-59.786l4.06-8.786-16.158-51.383C911.27 58.647 904 34.34 904 32.894c0-3.387 2.776-8.773 4.265-8.277.63.21 7.75 16.083 15.818 35.273 8.068 19.19 15.133 35.044 15.7 35.233 1.352.45 2.552-17.815 6.225-94.76 1.345-28.183 1.54-29.5 4.796-32.52 1.472-1.364 3.243-2.48 3.936-2.48 1 0 1.26 13.597 1.26 66.083 0 46.566.317 65.977 1.072 65.726 1.123-.375 14.495-26.09 39.945-76.81 8.986-17.91 15.594-29.966 16.298-29.735.652.213 1.577 1.94 2.057 3.837.795 3.147-1.262 8.556-23.354 61.424-13.325 31.886-26.43 63.125-29.122 69.42-2.693 6.297-4.896 12.067-4.896 12.822 0 1.272 24.737 57.14 64.28 145.173 9.002 20.043 16.825 36.594 17.385 36.78.56.187 2.95-3.836 5.315-8.94 6.918-14.94 109.862-234.54 138.656-295.78 3.49-7.426 6.35-13.975 6.355-14.556 0-.58-6.514-23.637-14.49-51.24-7.974-27.6-14.5-50.653-14.5-51.226 0-.572.686-2.68 1.524-4.686 1.123-2.69 1.817-3.35 2.642-2.526.616.616 7.506 16.758 15.313 35.873 7.805 19.115 14.65 34.907 15.212 35.094 1.128.375 1.704-4.12 6.374-49.73 2.407-23.512 3.516-31.06 4.84-32.938 2.055-2.915 3.688-3.622 4.29-1.855.242.71-.12 16.593-.8 35.293-1.723 47.157-1.724 50.282-.025 48.464.753-.805 8.446-16.764 17.096-35.464s16.38-35.027 17.176-36.282c1.88-2.962 3.027-2.146 3.852 2.74.586 3.465-1.362 9.502-16.048 49.743-9.193 25.19-17.765 48.877-19.05 52.638l-2.335 6.84 3.32 8.16c1.827 4.49 15.59 36.288 30.58 70.663 26.866 61.59 51.39 117.852 125.44 287.786 20.68 47.456 37.6 87.16 37.6 88.234 0 1.072-1.42 4.318-3.153 7.214-16.613 27.734-63.55 46.54-135.846 54.428-23.983 2.616-88.846 2.588-119.276-.052-11.977-1.04-21.986-1.68-22.242-1.425-.255.254 2.925 8.05 7.066 17.32 4.142 9.267 7.274 17.52 6.96 18.334-.31.815-2.567 4.49-5.012 8.167-15.914 23.94-59.84 40.787-123.994 47.558-35.937 2.455-75.25 2.903-109.5.41zm76.88-19c53.246-2.584 90.693-10.352 118.018-24.482 9.93-5.134 19.102-12.67 19.102-15.692 0-1.124-5.4-14.195-12-29.048-6.6-14.852-12-27.684-12-28.516 0-1.65-.5-1.676 21.5 1.19 42.676 5.56 90.918 7.685 126.5 5.575 68.89-4.086 119.89-18.45 139.963-39.42 3.094-3.233 3.35-3.91 2.41-6.35-.58-1.504-32.022-73.834-69.87-160.734-37.848-86.9-78.595-180.5-90.55-208-12.116-27.874-22.288-50-22.988-50-.69 0-17.98 35.55-38.42 79-52.525 111.643-106.136 225.41-114.392 242.75-3.862 8.114-7.43 14.75-7.927 14.75-.498 0-1.47-1.236-2.16-2.75-.692-1.51-16.695-37.4-35.564-79.75-18.87-42.35-38.442-86.224-43.497-97.5-5.054-11.274-9.42-21.06-9.704-21.75-1.086-2.64-3.07-1.027-5.53 4.5-1.41 3.164-17.613 37.026-36.01 75.25s-43.49 90.426-55.758 116c-12.267 25.576-22.757 47.083-23.31 47.794-.625.803-1.36.937-1.942.355-.874-.875-21.43-46.32-60.455-133.65-9.094-20.35-19.352-43.3-22.796-51-3.445-7.7-12.59-28.174-20.32-45.5l-29.87-66.916c-8.697-19.48-16.3-35.58-16.894-35.778-.594-.198-3.808 5.39-7.14 12.417-3.334 7.028-18.982 39.553-34.773 72.278-15.79 32.726-30.42 63.1-32.508 67.5-22.444 47.3-80.297 166.235-81.393 167.33-1.813 1.813.09 5.666-25.605-51.83-11.676-26.124-27.27-61-34.652-77.5-7.383-16.5-19.368-43.385-26.633-59.745-7.266-16.36-13.66-29.747-14.21-29.747-.55 0-8.073 14.734-16.717 32.745-8.645 18.01-26.8 55.697-40.343 83.747-13.544 28.05-26.11 54.15-27.925 58-1.814 3.85-7.443 15.55-12.51 26a27760.07 27760.07 0 00-27.008 56c-9.79 20.35-25.27 52.47-34.4 71.377-9.13 18.906-16.6 34.73-16.6 35.164 0 .434 2.123 2.657 4.717 4.94 16.535 14.56 61.145 24.98 130.283 30.434 30.34 2.396 50.265 2.85 73 1.66 50.97-2.66 86.307-9.873 111.08-22.667 8.502-4.39 18.92-12.43 18.92-14.6 0-.556-2.296-6.196-5.102-12.535-5.35-12.084-5.38-13.99-.214-12.777 4.076.956 35.728 4.43 56.316 6.18 40.05 3.405 100.302 1.95 131.594-3.178 4.898-.803 9.468-1.468 10.156-1.477 2.31-.033 1.274 3.413-4.755 15.838-3.297 6.796-5.995 13.156-5.995 14.134 0 2.125 6.053 7.786 12.125 11.34 21.136 12.37 70.508 22.42 133.375 27.147 34.658 2.604 44.358 2.81 71.38 1.496z"
          fill="url(#b)"/>
</svg>