<svg xmlns="http://www.w3.org/2000/svg" viewBox="0 0 317.5 105.833" height="400" width="1200"><g style="font:12.7px 'Helvetica Neue',Helvetica,sans-serif;line-height:1.05" letter-spacing=".265"><path fill="#fff" d="M5.027 41.275h46.567v23.283H5.027z"/><g fill="#ed1b2e"><path d="M5.027 41.275h11.642v23.283H5.027zM39.952 41.275h11.642v23.283H39.952zM28.113 43.326L26.376 46.6l-2.155-1.103 1.053 5.713-2.707-2.622-.768 1.586-2.472-.534.902 3.09-1.086.585 4.477 3.759-.501 1.97 4.527-1.002-.1 4.845h1.135l-.1-4.845 4.527 1.002-.501-1.97 4.476-3.759-1.085-.585.902-3.09-2.472.534-.769-1.586-2.706 2.622 1.052-5.713-2.154 1.103z"/></g><g fill="#231f20"><text x="70.698" y="50.683"><tspan x="70.698" y="50.683">National Research</tspan> <tspan x="70.698" y="64.018">Council Canada</tspan></text><text y="51.01" x="197.73"><tspan y="51.01" x="197.73">Conseil national de</tspan> <tspan y="64.345" x="197.73">resherches Canada</tspan></text></g></g></svg>