<svg xmlns="http://www.w3.org/2000/svg" height="185" width="788">
    <path d="M686.202 171.515c9.323-.537 11.9-1.889 19.336-20.006L735.28 78.86h2.293l36.64 82.656c3.514 7.84 6.762 10 13.787 10v4.804c-9.33-.14-15.278-.409-20.685-.409-5.403 0-11.22.27-21.054.409v-4.805c7.944 0 10.103-1.344 10.103-4.998 0-1.486-.945-4.329-3.78-11.087l-5.242-12.457h-29.635l-4.473 10.854c-3.38 9.463-3.732 11.204-3.732 12.552 0 3.518.765 5.005 9.644 5.136v4.805c-12.12-.409-13.472-.409-16.724-.409-3.38 0-4.73 0-16.22.409zm58.614-34.377l-13.366-31.777-11.652 31.777zm-307 34.377c8.786-.131 11.218-3.373 11.218-10.945V94.326c0-7.574-2.432-10.818-11.217-10.951v-4.921c4.59.134 11.217.406 18.11.406 20.687 0 37.313-.272 49.888-.406l.541 23.574h-4.324c-2.168-12.973-7.98-17.57-24.204-17.57H466.07v38.784h10.406c12.307 0 14.058-4.176 15.01-12.691h4.593c-.135 5.268-.27 10.27-.27 14.596 0 6.356.135 11.492.27 16.9h-4.593c0-10.68-3.383-13.1-15.142-13.1H466.07v31.89c0 6.218 2.568 9.6 15.279 9.6 13.787 0 23.388-2.568 26.625-19.604h4.6c-.814 6.492-2.029 18.59-2.029 25.486-13.113-.138-30.279-.408-51.508-.408-10.408 0-18.522.27-21.22.409v-4.805m88.272 0c8.789-.131 11.223-3.373 11.223-10.945V94.326c0-7.574-2.434-10.818-11.225-10.951v-4.921c6.361.134 11.768.406 16.767.406 8.786 0 17.712-.406 26.498-.406 23.517 0 30.96 12.628 30.96 25.874 0 9.197-5.682 19.47-18.798 23.525l16.902 31.092c6.083 11.226 9.33 13.79 17.032 14.868v3.249c-2.028.134-4.055.27-6.223.27-17.974 0-25.41-6.218-32.98-22.308l-5.27-10.791c-5.675-12.031-7.567-12.977-16.63-13.115v29.452c0 7.572 2.435 10.814 11.222 10.945v4.805c-10.814-.274-15.414-.409-19.738-.409-4.327 0-8.92.135-19.742.409zm28.256-46.11c2.567.539 6.22.944 8.928.944 12.163 0 19.462-5.254 19.462-18.37 0-9.868-5.001-24.603-22.578-24.603-2.43 0-3.92.132-5.812.542v41.486m80.328 46.111c8.79-.131 11.216-3.373 11.216-10.945V86.08h-11.896c-10.81 0-17.981 2.975-18.79 20.006h-4.996l.806-27.632c14.464.134 28.932.273 43.392.406 14.467.136 28.929-.272 43.395-.406l.815 27.632h-5c-.813-17.031-7.977-20.005-18.794-20.005h-11.896v74.49c0 7.571 2.428 10.813 11.219 10.944v4.805c-10.811-.274-15.408-.409-19.738-.409-4.322 0-8.92.135-19.733.409v-4.805M451.417 59.038l-7.786-16.38h-3.647v16.38h-10.822V15.022h17.436c9.765 0 15.02 6.925 15.02 14.158 0 5.998-3.709 9.77-7.17 11.5l9.522 18.358zm-5.314-34.31h-6.119v8.904h6.12c2.966 0 4.698-2.165 4.698-4.452 0-2.289-1.732-4.451-4.698-4.451M494.07 59.41c-6.738 0-12.239-1.237-16.69-5.812l6.925-6.926c2.286 2.29 6.302 3.093 9.827 3.093 4.267 0 6.306-1.421 6.306-3.956 0-1.052-.245-1.914-.867-2.598-.557-.555-1.481-.99-2.903-1.174l-5.32-.74c-3.892-.557-6.86-1.854-8.838-3.895-2.041-2.104-3.03-5.071-3.03-8.84 0-8.037 6.06-13.91 16.074-13.91 6.306 0 11.066 1.483 14.835 5.256l-6.798 6.799c-2.783-2.783-6.43-2.596-8.345-2.596-3.771 0-5.317 2.163-5.317 4.08 0 .557.183 1.362.866 2.04.553.557 1.483 1.11 3.026 1.298l5.32.743c3.955.554 6.798 1.79 8.654 3.647 2.346 2.289 3.277 5.561 3.277 9.643 0 8.965-7.728 13.847-17.003 13.847m35.852-.372V15.022h10.817v44.016H529.92m50.812-34.371v34.37h-10.82v-34.37H559.09v-9.645h32.457v9.645H580.73m48.832 16.445v17.926h-10.817V41.112l-13.294-26.09h11.81l6.924 15.826 6.86-15.826h11.807l-13.29 26.09m77.018 13.353c-3.215 3.215-6.923 4.945-12.301 4.945-5.377 0-9.086-1.73-12.301-4.945-4.639-4.637-4.451-10.817-4.451-17.435 0-6.614-.188-12.796 4.451-17.431 3.215-3.215 6.925-4.947 12.301-4.947 5.378 0 9.086 1.732 12.301 4.947 4.635 4.635 4.451 10.817 4.451 17.43 0 6.619.184 12.8-4.451 17.434zm-7.975-28.252c-.801-1.051-2.347-1.916-4.326-1.916-1.979 0-3.525.864-4.329 1.916-.988 1.3-1.605 2.784-1.605 10.817 0 8.04.617 9.46 1.605 10.758.804 1.052 2.35 1.978 4.329 1.978 1.979 0 3.525-.926 4.326-1.978.99-1.298 1.61-2.72 1.61-10.758 0-8.033-.621-9.517-1.609-10.817m42.465-1.546v7.728h16.32v9.643h-16.32v17h-10.817V15.022h29.92v9.645H741.07M154.175 171.515c9.33-.537 11.9-1.889 19.333-20.006l29.746-72.649h2.296l36.636 82.656c3.515 7.84 6.76 10 13.785 10v4.804c-9.328-.14-15.275-.409-20.682-.409-5.404 0-11.218.27-21.059.409v-4.805c7.949 0 10.11-1.344 10.11-4.998 0-1.486-.947-4.329-3.786-11.087l-5.241-12.457h-29.628l-4.477 10.854c-3.383 9.463-3.732 11.204-3.732 12.552 0 3.518.764 5.005 9.643 5.136v4.805c-12.126-.409-13.476-.409-16.72-.409-3.38 0-4.73 0-16.224.409zm58.615-34.377l-13.366-31.777-11.65 31.777zm50.76 34.377c8.783-.131 11.22-3.373 11.22-10.945V94.326c0-7.574-2.437-10.818-11.22-10.951v-4.921c10.814.273 15.407.406 19.732.406 4.33 0 8.926-.133 19.744-.406v4.922c-8.786.132-11.22 3.376-11.22 10.95v66.244c0 7.03 3.918 9.327 15.14 9.327 17.846 0 26.766-2.298 29.469-19.064h4.596l-2.165 25.486c-6.756-.138-16.625-.138-28.116-.273-11.356-.135-24.203-.135-37.18-.135-4.058 0-7.57.135-10 .409v-4.805m84.414 0c8.79-.131 11.22-3.373 11.22-10.945V94.326c0-7.574-2.43-10.818-11.22-10.951v-4.921c6.492.273 11.768.406 17.167.406 8.385 0 16.766-.406 25.153-.406 14.055 0 31.22 4.922 31.22 24.523 0 10.68-8.375 19.47-22.707 21.764v.273c16.226 2.3 26.632 9.197 26.632 25.009 0 7.438-3.11 14.467-7.58 18.658-5.534 5.132-12.292 7.639-27.164 7.639-9.06 0-20.274-.409-27.307-.409-6.087 0-11.086.135-15.414.409zm28.256-47.786h6.494c13.443 0 21.764-5.392 21.764-17.643 0-14.063-7.434-22.17-22.171-22.17h-6.087zm0 38.328c0 6.488 2.572 8.38 11.493 8.38 12.977 0 19.33-6.086 19.33-17.572 0-15.205-10.813-24.161-29.064-24.161h-1.76v33.353M206.89 59.41c-9.15 0-16.631-6.182-16.631-15.826V15.023h10.817V43.34c0 4.078 2.227 6.427 5.814 6.427 3.582 0 5.934-2.35 5.934-6.427V15.022h10.817v28.562c0 9.645-7.602 15.826-16.751 15.826m61.874-.372l-14.095-22.13v22.13h-10.817V15.022h9.456l14.094 22.134V15.022h10.82v44.016h-9.458m30.41 0V15.022h10.82v44.016h-10.82m49.882 0h-8.034l-14.527-44.016h11.187l7.419 24.606 7.295-24.606h11.25l-14.59 44.016m30.785 0V15.022h29.92v9.645h-19.102v7.358h16.319v9.644h-16.32v7.726h19.103v9.643h-29.92M70.134 185l-1.318-.448c-.868-.296-21.45-7.428-41.668-24.89C2.648 138.482 0 106.568 0 93.828V15.003l2.302-1.118C21.602 4.488 43.153.113 70.134.113c26.972 0 48.52 4.375 67.814 13.772l2.3 1.12V93.83c0 12.736-2.643 44.647-27.134 65.835-20.225 17.46-40.793 24.592-41.662 24.888l-1.318.448"
          fill="#0d7a3f"/>
    <path d="M70.134 8.3c-24.612 0-44.381 3.775-61.948 11.852v51.559c7.224-4.236 13.3-9.233 17.906-14.562C31.55 63.456 39.046 69.314 48.1 73.977c9.066-4.663 16.575-10.52 22.028-16.828 5.452 6.307 12.964 12.165 22.027 16.828 9.05-4.663 16.545-10.52 21.994-16.828 4.607 5.329 10.685 10.326 17.912 14.562V20.152C114.502 12.075 94.736 8.301 70.134 8.301zm31.292 41.084c-7.013 0-11.951-1.038-18.945-2.495a18.035 18.035 0 00-3.667-.393 16.56 16.56 0 00-7.064 1.56c-.57.27-1.108.565-1.622.863a22.21 22.21 0 00-1.61-.863 16.617 16.617 0 00-7.062-1.56c-1.166 0-2.406.13-3.678.393-6.994 1.456-11.94 2.496-18.953 2.496-.988 0-2.026-.02-3.115-.06l2.203-23.634c1.127.05 2.161.076 3.14.089l.571-7.385 2.125.106c.833.04 1.587.056 2.306.056 2.46 0 4.591-.22 6.946-.722 1.489-.313 2.969-.713 4.684-1.17.792-.211 1.628-.435 2.529-.67 3.093-.755 5.904-.35 8.476 1.117.491.279.977.598 1.434.954.461-.352.95-.675 1.456-.959 2.558-1.458 5.514-1.85 8.438-1.115.95.244 1.81.476 2.621.694 1.69.45 3.149.84 4.614 1.15 3.134.665 5.836.84 9.244.665l2.13-.109.57 7.389a91.805 91.805 0 003.15-.09l2.21 23.634c-1.096.04-2.134.06-3.13.06"
          fill="#fef3b2"/>
    <path d="M59.38 40.047l-.186.047c-5.763 1.443-9.574 2.396-15.04 2.4l1.51-19.56c2.917 0 5.438-.222 8.242-.817 1.603-.34 3.136-.747 4.912-1.222a238.423 238.423 0 012.468-.657c1.902-.467 3.628-.238 5.248.686.595.335 1.05.7 1.405 1.02v18.459a15.101 15.101 0 00-8.559-.356m21.5 0c-2.9-.724-5.778-.61-8.563.356V21.969a7.748 7.748 0 011.422-1.055c1.591-.906 3.42-1.128 5.202-.678.92.234 1.767.462 2.568.674 1.747.469 3.257.874 4.836 1.207 2.674.565 5.08.82 7.862.82.124 0 .25-.005.38-.005l1.512 19.562c-5.57-.004-9.407-.977-15.22-2.447"
          fill="#fff"/>
    <path d="M70.14 81.92c8.045-1.818 15.447-4.56 22.015-7.943-9.063-4.663-16.575-10.52-22.027-16.828-5.453 6.307-12.968 12.165-22.042 16.82 6.582 3.394 13.992 6.137 22.055 7.95"
          fill="#479954"/>
    <path d="M26.139 81.892a99.62 99.62 0 0022.055 2.458c7.716 0 15.057-.888 21.934-2.435-8.052-1.813-15.44-4.563-22.018-7.942-6.558 3.373-13.943 6.103-21.971 7.92m43.989.022a99.823 99.823 0 0021.928 2.435 99.613 99.613 0 0022.061-2.46c-8.028-1.814-15.41-4.544-21.972-7.92-6.575 3.38-13.965 6.132-22.017 7.945"
          fill="#298948"/>
    <path d="M8.186 84.23c6.26-.254 12.272-1.055 17.953-2.338a93.629 93.629 0 01-17.953-6.036v8.374" fill="#3e9450"/>
    <path d="M8.186 71.71v4.142a93.492 93.492 0 0017.97 6.043c8.014-1.815 15.39-4.549 21.944-7.918-9.052-4.663-16.551-10.52-22.008-16.828C21.486 62.478 15.41 67.475 8.186 71.71"
          fill="#77b067"/>
    <path d="M132.06 75.856a93.308 93.308 0 01-17.943 6.036c5.68 1.283 11.686 2.082 17.944 2.338v-8.374"
          fill="#3e9450"/>
    <path d="M132.06 75.852v-4.14c-7.226-4.237-13.304-9.234-17.911-14.563-5.45 6.307-12.944 12.165-21.994 16.828 6.555 3.37 13.934 6.103 21.946 7.918a93.485 93.485 0 0017.96-6.043"
          fill="#77b067"/>
    <path d="M124.565 95.472c-3.276-2.082-6.366-4.049-10.414-4.049-4.05 0-7.14 1.97-10.412 4.053-3.388 2.159-6.89 4.39-11.594 4.39-4.702 0-8.21-2.231-11.602-4.39-3.274-2.085-6.369-4.053-10.419-4.053-4.047 0-7.142 1.97-10.417 4.053-3.392 2.159-6.897 4.39-11.6 4.39-4.702 0-8.207-2.231-11.593-4.39-3.272-2.085-6.363-4.053-10.41-4.053-4.052 0-7.142 1.967-10.416 4.05-2.282 1.451-4.623 2.925-7.342 3.74a98.577 98.577 0 001.218 10.711c1.936-.801 3.71-1.923 5.448-3.023 3.281-2.082 6.676-4.235 11.09-4.235 4.419 0 7.81 2.153 11.09 4.235 3.384 2.148 6.58 4.177 10.914 4.177 4.335 0 7.535-2.029 10.921-4.177 3.287-2.082 6.681-4.235 11.097-4.235 4.419 0 7.814 2.153 11.097 4.235 3.39 2.148 6.589 4.177 10.924 4.177 4.335 0 7.53-2.029 10.913-4.177 3.284-2.082 6.677-4.235 11.093-4.235s7.81 2.153 11.088 4.235c1.736 1.101 3.51 2.218 5.444 3.022a99.002 99.002 0 001.218-10.71c-2.717-.815-5.058-2.289-7.336-3.74"
          fill="#fddb0b"/>
    <path d="M76.471 173.587v-4.901l-5.805 5.707-4.896-4.763v-7.396l4.896 4.78 5.805-5.739v-8.08l-5.805 5.708-4.896-4.76v-7.758l4.896 4.783 5.805-5.739v-8.754l-5.805 5.707-4.896-4.762v-7.254l4.896 4.465 8.279-8.063-8.776-7.445-9.611 8.341v44.369c4.407 2.197 7.815 3.6 9.575 4.28a108.748 108.748 0 006.338-2.727m-21.99-19.598l-5.805 5.96-4.897-5.002v-7.697l4.897 4.858 5.805-5.827v-9.137l-5.805 5.794-4.897-4.834v-7.736l4.897 4.464 8.277-8.063-8.776-7.445-9.61 8.341v30.724a137.689 137.689 0 0015.914 10.418v-14.818m38.175-19.157l8.279-8.063-8.776-7.445-9.612 8.341v42.905a139.815 139.815 0 0015.914-9.806v-6.775l-5.805 5.96-4.897-5.002v-7.697l4.897 4.858 5.806-5.827v-9.137l-5.806 5.794-4.897-4.834v-7.736l4.897 4.464m21.99 0l8.28-8.063-8.777-7.445-9.612 8.341v28.491a122.048 122.048 0 003.228-2.687c5.29-4.578 9.432-9.744 12.687-15.107v-1.218l-5.804 5.794-4.898-4.834v-7.736l4.898 4.464m-87.962 0l8.28-8.063-8.779-7.445-9.61 8.341v4.748c3.594 7.456 8.687 14.801 15.915 21.05v-16.319l-5.806 5.794-4.897-4.834v-7.736l4.897 4.464"
          fill="#feec81"/>
</svg>